<?xml version="1.0" encoding="iso-8859-1"?>
<!-- Generator: Adobe Illustrator 19.0.0, SVG Export Plug-In . SVG Version: 6.00 Build 0)  -->
<svg version="1.1" xmlns="http://www.w3.org/2000/svg" xmlns:xlink="http://www.w3.org/1999/xlink" x="0px" y="0px"
	 viewBox="0 0 828.656 828.656" style="enable-background:new 0 0 828.656 828.656;" xml:space="preserve">
<g id="moon">
	<g>
		<g>
			<linearGradient id="SVGID_1_" gradientUnits="userSpaceOnUse" x1="-1.434400e-005" y1="414.3281" x2="828.6561" y2="414.3281">
				<stop  offset="0" style="stop-color:#FFFFFF;stop-opacity:0.8"/>
				<stop  offset="0.6158" style="stop-color:#7B6793;stop-opacity:0.3074"/>
				<stop  offset="1" style="stop-color:#2D0D53;stop-opacity:0"/>
			</linearGradient>
			<circle style="opacity:0.12;fill:url(#SVGID_1_);" cx="414.328" cy="414.328" r="414.328"/>
			<g>
				<linearGradient id="SVGID_2_" gradientUnits="userSpaceOnUse" x1="82.864" y1="414.3281" x2="745.792" y2="414.3281">
					<stop  offset="0" style="stop-color:#FFFFFF"/>
					<stop  offset="0.1059" style="stop-color:#F7F9FC"/>
					<stop  offset="0.273" style="stop-color:#E0E7F3"/>
					<stop  offset="0.4806" style="stop-color:#BBCBE5"/>
					<stop  offset="0.7206" style="stop-color:#87A4D1"/>
					<stop  offset="0.9848" style="stop-color:#4673B8"/>
					<stop  offset="0.9975" style="stop-color:#4370B7"/>
				</linearGradient>
				<circle style="fill:url(#SVGID_2_);" cx="414.328" cy="414.328" r="331.464"/>
				<g style="opacity:0.24;">
					<linearGradient id="SVGID_3_" gradientUnits="userSpaceOnUse" x1="153.5903" y1="295.6691" x2="257.9465" y2="295.6691">
						<stop  offset="0" style="stop-color:#300D5D"/>
						<stop  offset="1" style="stop-color:#2D0D53;stop-opacity:0"/>
					</linearGradient>
					<circle style="fill:url(#SVGID_3_);" cx="205.768" cy="295.669" r="52.178"/>
				</g>
				<g style="opacity:0.24;">
					<linearGradient id="SVGID_4_" gradientUnits="userSpaceOnUse" x1="526.2244" y1="204.2495" x2="578.4026" y2="204.2495">
						<stop  offset="0" style="stop-color:#300D5D"/>
						<stop  offset="1" style="stop-color:#2D0D53;stop-opacity:0"/>
					</linearGradient>
					<circle style="fill:url(#SVGID_4_);" cx="552.314" cy="204.249" r="26.089"/>
				</g>
				<g style="opacity:0.24;">
					<linearGradient id="SVGID_5_" gradientUnits="userSpaceOnUse" x1="578.5083" y1="468.8468" x2="708.7132" y2="468.8468">
						<stop  offset="0" style="stop-color:#300D5D"/>
						<stop  offset="1" style="stop-color:#2D0D53;stop-opacity:0"/>
					</linearGradient>
					<circle style="fill:url(#SVGID_5_);" cx="643.611" cy="468.847" r="65.102"/>
				</g>
				<g style="opacity:0.24;">
					<linearGradient id="SVGID_6_" gradientUnits="userSpaceOnUse" x1="404.5422" y1="620.943" x2="534.7468" y2="620.943">
						<stop  offset="0" style="stop-color:#300D5D"/>
						<stop  offset="1" style="stop-color:#2D0D53;stop-opacity:0"/>
					</linearGradient>
					<circle style="fill:url(#SVGID_6_);" cx="469.645" cy="620.943" r="65.102"/>
				</g>
				<g style="opacity:0.24;">
					<linearGradient id="SVGID_7_" gradientUnits="userSpaceOnUse" x1="304.1" y1="581.3901" x2="377.4197" y2="581.3901">
						<stop  offset="0" style="stop-color:#300D5D"/>
						<stop  offset="1" style="stop-color:#2D0D53;stop-opacity:0"/>
					</linearGradient>
					<circle style="fill:url(#SVGID_7_);" cx="340.76" cy="581.39" r="36.66"/>
				</g>
				<g style="opacity:0.24;">
					<linearGradient id="SVGID_8_" gradientUnits="userSpaceOnUse" x1="386.7559" y1="530.691" x2="431.1372" y2="530.691">
						<stop  offset="0" style="stop-color:#300D5D"/>
						<stop  offset="1" style="stop-color:#2D0D53;stop-opacity:0"/>
					</linearGradient>
					<circle style="fill:url(#SVGID_8_);" cx="408.947" cy="530.691" r="22.191"/>
				</g>
				<g style="opacity:0.24;">
					<linearGradient id="SVGID_9_" gradientUnits="userSpaceOnUse" x1="678.6329" y1="376.8797" x2="728.8307" y2="376.8797">
						<stop  offset="0" style="stop-color:#300D5D"/>
						<stop  offset="1" style="stop-color:#2D0D53;stop-opacity:0"/>
					</linearGradient>
					<circle style="fill:url(#SVGID_9_);" cx="703.732" cy="376.88" r="25.099"/>
				</g>
				<g style="opacity:0.24;">
					<linearGradient id="SVGID_10_" gradientUnits="userSpaceOnUse" x1="678.6329" y1="377.87" x2="730.8112" y2="377.87">
						<stop  offset="0" style="stop-color:#300D5D"/>
						<stop  offset="1" style="stop-color:#2D0D53;stop-opacity:0"/>
					</linearGradient>
					<path style="fill:url(#SVGID_10_);" d="M704.722,351.781c-0.166,0-0.33,0.009-0.495,0.012
						c13.632,0.265,24.604,11.391,24.604,25.086c0,13.862-11.237,25.099-25.099,25.099c-13.696,0-24.821-10.971-25.086-24.604
						c-0.003,0.165-0.013,0.329-0.013,0.495c0,14.409,11.68,26.089,26.089,26.089c14.409,0,26.089-11.681,26.089-26.089
						S719.131,351.781,704.722,351.781z"/>
				</g>
				<g style="opacity:0.24;">
					<linearGradient id="SVGID_11_" gradientUnits="userSpaceOnUse" x1="206.1069" y1="407.9398" x2="272.281" y2="407.9398">
						<stop  offset="0" style="stop-color:#300D5D"/>
						<stop  offset="1" style="stop-color:#2D0D53;stop-opacity:0"/>
					</linearGradient>
					<circle style="fill:url(#SVGID_11_);" cx="239.194" cy="407.94" r="33.087"/>
				</g>
				<g style="opacity:0.24;">
					<linearGradient id="SVGID_12_" gradientUnits="userSpaceOnUse" x1="286.7625" y1="287.2379" x2="342.2065" y2="287.2379">
						<stop  offset="0" style="stop-color:#300D5D"/>
						<stop  offset="1" style="stop-color:#2D0D53;stop-opacity:0"/>
					</linearGradient>
					<circle style="fill:url(#SVGID_12_);" cx="314.484" cy="287.238" r="27.722"/>
				</g>
				<g style="opacity:0.24;">
					<linearGradient id="SVGID_13_" gradientUnits="userSpaceOnUse" x1="245.8309" y1="600.7723" x2="283.2216" y2="600.7723">
						<stop  offset="0" style="stop-color:#300D5D"/>
						<stop  offset="1" style="stop-color:#2D0D53;stop-opacity:0"/>
					</linearGradient>
					<circle style="fill:url(#SVGID_13_);" cx="264.526" cy="600.772" r="18.695"/>
				</g>
				<path style="fill:#F5F5F5;" d="M265.264,582.077c-0.124,0-0.246,0.007-0.369,0.01c10.154,0.197,18.327,8.484,18.327,18.686
					c0,10.325-8.37,18.695-18.695,18.695c-10.202,0-18.489-8.172-18.686-18.327c-0.003,0.123-0.01,0.245-0.01,0.369
					c0,10.733,8.7,19.433,19.433,19.433c10.733,0,19.433-8.7,19.433-19.433C284.697,590.778,275.997,582.077,265.264,582.077z"/>
			</g>
		</g>
	</g>
</g>
<g id="Layer_1">
</g>
</svg>
