<?xml version="1.0" encoding="iso-8859-1"?>
<!-- Generator: Adobe Illustrator 19.0.0, SVG Export Plug-In . SVG Version: 6.00 Build 0)  -->
<svg version="1.1" xmlns="http://www.w3.org/2000/svg" xmlns:xlink="http://www.w3.org/1999/xlink" x="0px" y="0px"
	 viewBox="0 0 1520.232 889.675" style="enable-background:new 0 0 1520.232 889.675;" xml:space="preserve">
<g id="earth">
	<g>
		<g>
			
				<linearGradient id="SVGID_1_" gradientUnits="userSpaceOnUse" x1="1551.4535" y1="-459.7257" x2="1102.374" y2="-277.4084" gradientTransform="matrix(-0.9202 -0.3914 -0.3914 0.9202 1517.0013 1408.7454)">
				<stop  offset="0" style="stop-color:#FF5740;stop-opacity:0"/>
				<stop  offset="0.4657" style="stop-color:#FF5740"/>
				<stop  offset="0.5471" style="stop-color:#FF5C41"/>
				<stop  offset="0.6379" style="stop-color:#FF6944"/>
				<stop  offset="0.7332" style="stop-color:#FF7F4A"/>
				<stop  offset="0.8316" style="stop-color:#FE9F51"/>
				<stop  offset="0.9315" style="stop-color:#FEC65A"/>
				<stop  offset="1" style="stop-color:#FEE662"/>
			</linearGradient>
			<path style="opacity:0.15;fill:url(#SVGID_1_);" d="M1036.513,511.379c203.443,178.049,103.75,320.998-21.112,361.714
				c-154.419,51.029-312.246-29.821-464.66-53.452c-79.114-13.051-154.842-1.781-233.043,15.303
				c-73.501,16.794-160.521,43.857-230.325-1.847C31.133,793.163-7.022,694.56,1.085,627.073
				c10.779-100.674,92.677-180.256,173.55-230.527c21.805-13.609,45.548-26.394,70.405-36.417"/>
			<linearGradient id="SVGID_2_" gradientUnits="userSpaceOnUse" x1="1263.5055" y1="412.6495" x2="1006.4303" y2="561.072">
				<stop  offset="0" style="stop-color:#FEE662"/>
				<stop  offset="0.0677" style="stop-color:#FEC65A"/>
				<stop  offset="0.1663" style="stop-color:#FE9F51"/>
				<stop  offset="0.2634" style="stop-color:#FF7F4A"/>
				<stop  offset="0.3576" style="stop-color:#FF6944"/>
				<stop  offset="0.4472" style="stop-color:#FF5C41"/>
				<stop  offset="0.5276" style="stop-color:#FF5740"/>
				<stop  offset="1" style="stop-color:#FF5740;stop-opacity:0.5"/>
			</linearGradient>
			<path style="opacity:0.15;fill:url(#SVGID_2_);" d="M1422.263,726.122c21.439-2.105,43.588-4.288,66.526-6.557
				c186.045-238.004-521.262-149.172-357.006-256.441s-179.341-177.665-335.217-93.861
				c-114.275,42.747-216.627,84.845-375.358,92.705l0,0c84.124,162.282,251.678,264.153,434.469,264.153H1422.263z"/>
			<g>
				<g>
					<linearGradient id="SVGID_3_" gradientUnits="userSpaceOnUse" x1="278.9887" y1="370.2251" x2="1019.4335" y2="370.2251">
						<stop  offset="0.0025" style="stop-color:#486BED"/>
						<stop  offset="0.1475" style="stop-color:#4359D1"/>
						<stop  offset="0.4233" style="stop-color:#3B3AA2"/>
						<stop  offset="0.6674" style="stop-color:#362480"/>
						<stop  offset="0.8679" style="stop-color:#32166B"/>
						<stop  offset="1" style="stop-color:#311163"/>
					</linearGradient>
					<path style="fill:url(#SVGID_3_);" d="M1019.434,370.225c0,204.471-165.751,370.225-370.222,370.225
						S278.989,574.696,278.989,370.225S444.74,0,649.211,0S1019.434,165.754,1019.434,370.225z"/>
					<linearGradient id="SVGID_4_" gradientUnits="userSpaceOnUse" x1="282.6567" y1="366.4193" x2="1019.4335" y2="366.4193">
						<stop  offset="0" style="stop-color:#00BFA7"/>
						<stop  offset="0.2168" style="stop-color:#00AAA1"/>
						<stop  offset="0.6614" style="stop-color:#007593"/>
						<stop  offset="1" style="stop-color:#004887"/>
					</linearGradient>
					<path style="fill:url(#SVGID_4_);" d="M1019.434,370.225c0,93.142-34.405,178.242-91.187,243.309l-22.6-16.651l4.161-22.849
						l-25.622-58.166l30.466-25.619l-17.311-34.622l-16.272-29.775l-37.739,5.536h-67.86l-16.616-73.396l6.922-76.86l40.855-4.847
						l63.705-11.772l37.389,33.239l45.011-33.239l21.466,17.311h29.083l6.053,2.25
						C1015.925,311.72,1019.434,340.562,1019.434,370.225z M327.921,335.603l24.005,5.539l24.005,15.694l32.316,10.158l16.616,4.153
						l15.694,6.925l-8.311,16.619l-25.85,41.547l28.622,34.158l40.622,25.852v23.083l26.777,40.621c0,0-2.772,25.852,0,34.161
						c2.772,8.311,18.461,51.702,18.461,51.702l15.699,20.311l37.855,4.616l-24.011-38.774c0,0,35.088-53.549,37.855-55.396
						c2.772-1.845-11.078-23.081-8.305-25.852c2.766-2.77,24.922-26.772,24.922-26.772l24.005-30.472l10.161-39.697l-30.472-48.01
						c0,0-34.155-24.002-34.155-26.775c0-2.769-22.161-26.775-22.161-26.775l-61.86-1.844l-35.083-11.078l-12.927,23.08
						l-29.539-14.772l0.922-24.395h-20.311h-2.772l-12.927-19.921l19.388-14.775l39.7,20.314l24.928-15.697l26.777-62.78
						l24.005-30.469h43.394l6.461-14.772l28.622-13.847l12.005,7.964l12.922-19.044l-24.928-35.083l-19.389-6.464l-7.15,6.715
						l-23.316,21.906l-54.471-12.925l-7.388,25.85l-24.005-30.466l31.394-11.08l35.078,9.233l13.849-13.847l44.322-6.466
						l-36.011-37.852h-41.544l-16.622,26.775L469.18,75.246l-40.177-2.65c-77.814,57.67-132.206,145.128-146.347,245.522
						l29.57,5.094L327.921,335.603z M872.18,140.795v16.619l-48.933,13.85l4.617,35.085l-27.699-16.966l-26.772,21.58l17.539,25.852
						l26.777,3.692l45.238-36.008l12.927,16.619c0,0-8.311,19.389,0,25.852c8.311,6.461,43.219,16.616,43.219,16.616v-31.389
						l-23.83-21.236l15.694-12.925l28.622,24.003l-9.233,16.619l53.549,24.927c0,0,5.873-6.795,14.422-16.833
						c-26.889-76.023-77.888-140.642-143.83-184.658l-15.546,58.388L872.18,140.795z M363.836,529.625l-5.602-5.603l-15.509,3.181
						v15.265l-16.278,9.199c7.33,13.015,15.429,25.542,24.228,37.524l11.767-2.2l23.109-16.537l1.272-15.05l-22.988-11.028V529.625z
						"/>
				</g>
				<linearGradient id="XMLID_2_" gradientUnits="userSpaceOnUse" x1="611.5605" y1="350.2843" x2="1092.5522" y2="350.2843">
					<stop  offset="0" style="stop-color:#FFFFFF"/>
					<stop  offset="0.1059" style="stop-color:#F7F9FC"/>
					<stop  offset="0.273" style="stop-color:#E0E7F3"/>
					<stop  offset="0.4806" style="stop-color:#BBCBE5"/>
					<stop  offset="0.7206" style="stop-color:#87A4D1"/>
					<stop  offset="0.9848" style="stop-color:#4673B8"/>
					<stop  offset="0.9975" style="stop-color:#4370B7"/>
				</linearGradient>
				<path id="XMLID_173_" style="fill:url(#XMLID_2_);" d="M1006.761,274.298c195.013,37.368,55.185,240.738-395.2,106.943
					c44.424-44.121,95.06-26.417,101.773-14.954c43.878-56.49,93.172-37.199,109.511,10.636
					c17.458-36.464,40.998-33.524,52.812-28.089c12.653-40.638,49.194-66.19,88.383-10.404c9.715-40.026,37.96-41.646,37.96-41.646
					L1006.761,274.298z"/>
				<linearGradient id="XMLID_3_" gradientUnits="userSpaceOnUse" x1="242.0347" y1="468.3104" x2="723.0266" y2="468.3104">
					<stop  offset="0" style="stop-color:#FFFFFF"/>
					<stop  offset="0.1059" style="stop-color:#F7F9FC"/>
					<stop  offset="0.273" style="stop-color:#E0E7F3"/>
					<stop  offset="0.4806" style="stop-color:#BBCBE5"/>
					<stop  offset="0.7206" style="stop-color:#87A4D1"/>
					<stop  offset="0.9848" style="stop-color:#4673B8"/>
					<stop  offset="0.9975" style="stop-color:#4370B7"/>
				</linearGradient>
				<path id="XMLID_172_" style="fill:url(#XMLID_3_);" d="M327.826,392.324c-195.013,37.367-55.185,240.737,395.2,106.945
					c-44.424-44.123-95.06-26.421-101.773-14.958c-43.878-56.49-93.172-37.197-109.511,10.639
					c-17.457-36.464-40.998-33.526-52.811-28.089c-12.653-40.639-49.194-66.19-88.383-10.406
					c-9.715-40.024-37.96-41.646-37.96-41.646L327.826,392.324z"/>
				<linearGradient id="XMLID_4_" gradientUnits="userSpaceOnUse" x1="727.2927" y1="602.4453" x2="971.1431" y2="602.4453">
					<stop  offset="0" style="stop-color:#FFFFFF"/>
					<stop  offset="0.1059" style="stop-color:#F7F9FC"/>
					<stop  offset="0.273" style="stop-color:#E0E7F3"/>
					<stop  offset="0.4806" style="stop-color:#BBCBE5"/>
					<stop  offset="0.7206" style="stop-color:#87A4D1"/>
					<stop  offset="0.9848" style="stop-color:#4673B8"/>
					<stop  offset="0.9975" style="stop-color:#4370B7"/>
				</linearGradient>
				<path id="XMLID_171_" style="fill:url(#XMLID_4_);" d="M927.648,563.922c98.869,18.946,27.978,122.05-200.355,54.219
					c22.521-22.368,48.194-13.393,51.594-7.586c22.247-28.634,47.237-18.858,55.521,5.396c8.849-18.488,20.785-16.996,26.776-14.241
					c6.411-20.606,24.94-33.557,44.806-5.274c4.927-20.292,19.247-21.117,19.247-21.117L927.648,563.922z"/>
			</g>
		</g>
		<g>
			<g style="opacity:0.5;">
				<g>
					<path style="fill:#FFFFFF;" d="M1469.386,639.945c0.077-2.126,1.86-3.794,3.987-3.721c2.13,0.074,3.793,1.863,3.72,3.987
						c-0.07,2.127-1.857,3.797-3.987,3.724C1470.98,643.858,1469.312,642.075,1469.386,639.945z"/>
					<path style="fill:#FFFFFF;" d="M1469.386,639.945c0.077-2.126,1.86-3.794,3.987-3.721c2.13,0.074,3.793,1.863,3.72,3.987
						c-0.07,2.127-1.857,3.797-3.987,3.724C1470.98,643.858,1469.312,642.075,1469.386,639.945z"/>
				</g>
				<g>
					<path style="fill:#FFFFFF;" d="M1371.724,658.423c0.085-2.435,2.13-4.341,4.568-4.256c2.438,0.082,4.348,2.128,4.262,4.566
						c-0.085,2.435-2.128,4.348-4.566,4.262C1373.55,662.913,1371.641,660.861,1371.724,658.423z"/>
					<path style="fill:#FFFFFF;" d="M1371.724,658.423c0.085-2.435,2.13-4.341,4.568-4.256c2.438,0.082,4.348,2.128,4.262,4.566
						c-0.085,2.435-2.128,4.348-4.566,4.262C1373.55,662.913,1371.641,660.861,1371.724,658.423z"/>
				</g>
				<g>
					<path style="fill:#FFFFFF;" d="M1276.715,634.927c0.092-2.615,2.285-4.665,4.904-4.576c2.615,0.092,4.662,2.292,4.573,4.907
						c-0.094,2.608-2.288,4.662-4.903,4.573C1278.673,639.739,1276.626,637.54,1276.715,634.927z"/>
					<path style="fill:#FFFFFF;" d="M1276.715,634.927c0.092-2.615,2.285-4.665,4.904-4.576c2.615,0.092,4.662,2.292,4.573,4.907
						c-0.094,2.608-2.288,4.662-4.903,4.573C1278.673,639.739,1276.626,637.54,1276.715,634.927z"/>
				</g>
				<g>
					<path style="fill:#FFFFFF;" d="M1383.089,573.123c0.016-2.615,2.15-4.727,4.765-4.714c2.619,0.017,4.727,2.156,4.713,4.775
						c-0.016,2.609-2.152,4.724-4.768,4.711C1385.18,577.878,1383.072,575.738,1383.089,573.123z"/>
					<path style="fill:#FFFFFF;" d="M1383.089,573.123c0.016-2.615,2.15-4.727,4.765-4.714c2.619,0.017,4.727,2.156,4.713,4.775
						c-0.016,2.609-2.152,4.724-4.768,4.711C1385.18,577.878,1383.072,575.738,1383.089,573.123z"/>
				</g>
				<g>
					<path style="fill:#FFFFFF;" d="M1392.288,686.572c0.089-2.615,2.282-4.666,4.901-4.577c2.615,0.095,4.662,2.288,4.573,4.903
						c-0.092,2.612-2.285,4.662-4.903,4.573C1394.246,691.383,1392.199,689.183,1392.288,686.572z"/>
					<path style="fill:#FFFFFF;" d="M1392.288,686.572c0.089-2.615,2.282-4.666,4.901-4.577c2.615,0.095,4.662,2.288,4.573,4.903
						c-0.092,2.612-2.285,4.662-4.903,4.573C1394.246,691.383,1392.199,689.183,1392.288,686.572z"/>
				</g>
				<g>
					<circle style="fill:#FFFFFF;" cx="1391.558" cy="640.465" r="4.097"/>
					<circle style="fill:#FFFFFF;" cx="1391.558" cy="640.465" r="4.097"/>
				</g>
				<g>
					<path style="fill:#FFFFFF;" d="M1429.474,632.461c0.069-1.973,1.723-3.517,3.696-3.448c1.969,0.069,3.51,1.729,3.442,3.695
						c-0.066,1.97-1.722,3.511-3.689,3.442C1430.95,636.081,1429.408,634.434,1429.474,632.461z"/>
					<path style="fill:#FFFFFF;" d="M1429.474,632.461c0.069-1.973,1.723-3.517,3.696-3.448c1.969,0.069,3.51,1.729,3.442,3.695
						c-0.066,1.97-1.722,3.511-3.689,3.442C1430.95,636.081,1429.408,634.434,1429.474,632.461z"/>
				</g>
				<g>
					<path style="fill:#FFFFFF;" d="M1189.878,554.345c0.069-1.973,1.723-3.517,3.693-3.448c1.969,0.069,3.513,1.729,3.445,3.695
						c-0.069,1.969-1.722,3.51-3.692,3.442C1191.354,557.964,1189.809,556.317,1189.878,554.345z"/>
					<path style="fill:#FFFFFF;" d="M1189.878,554.345c0.069-1.973,1.723-3.517,3.693-3.448c1.969,0.069,3.513,1.729,3.445,3.695
						c-0.069,1.969-1.722,3.51-3.692,3.442C1191.354,557.964,1189.809,556.317,1189.878,554.345z"/>
				</g>
				<g>
					<path style="fill:#FFFFFF;" d="M1269.403,565.913c0.069-1.973,1.723-3.517,3.692-3.448c1.969,0.069,3.513,1.729,3.445,3.695
						c-0.069,1.969-1.722,3.511-3.692,3.442C1270.879,569.533,1269.334,567.886,1269.403,565.913z"/>
					<path style="fill:#FFFFFF;" d="M1269.403,565.913c0.069-1.973,1.723-3.517,3.692-3.448c1.969,0.069,3.513,1.729,3.445,3.695
						c-0.069,1.969-1.722,3.511-3.692,3.442C1270.879,569.533,1269.334,567.886,1269.403,565.913z"/>
				</g>
				<g>
					<path style="fill:#FFFFFF;" d="M1341.625,580.04c0.076-2.255,1.974-4.027,4.235-3.951c2.261,0.082,4.033,1.981,3.954,4.238
						c-0.08,2.264-1.977,4.03-4.239,3.954C1343.315,584.202,1341.546,582.307,1341.625,580.04z"/>
					<path style="fill:#FFFFFF;" d="M1341.625,580.04c0.076-2.255,1.974-4.027,4.235-3.951c2.261,0.082,4.033,1.981,3.954,4.238
						c-0.08,2.264-1.977,4.03-4.239,3.954C1343.315,584.202,1341.546,582.307,1341.625,580.04z"/>
				</g>
				<g>
					<path style="fill:#FFFFFF;" d="M1294.661,593.03c0.098-2.825,2.467-5.033,5.295-4.938c2.825,0.101,5.037,2.467,4.941,5.299
						c-0.101,2.821-2.47,5.033-5.295,4.938C1296.774,598.227,1294.562,595.858,1294.661,593.03z"/>
					<path style="fill:#FFFFFF;" d="M1294.661,593.03c0.098-2.825,2.467-5.033,5.295-4.938c2.825,0.101,5.037,2.467,4.941,5.299
						c-0.101,2.821-2.47,5.033-5.295,4.938C1296.774,598.227,1294.562,595.858,1294.661,593.03z"/>
				</g>
				<g>
					<path style="fill:#FFFFFF;" d="M1401.73,605.642c0.108-3.149,2.75-5.616,5.896-5.508c3.152,0.112,5.612,2.754,5.507,5.903
						c-0.111,3.143-2.75,5.609-5.899,5.501C1404.085,611.43,1401.619,608.784,1401.73,605.642z"/>
					<path style="fill:#FFFFFF;" d="M1401.73,605.642c0.108-3.149,2.75-5.616,5.896-5.508c3.152,0.112,5.612,2.754,5.507,5.903
						c-0.111,3.143-2.75,5.609-5.899,5.501C1404.085,611.43,1401.619,608.784,1401.73,605.642z"/>
				</g>
				<g>
					<path style="fill:#FFFFFF;" d="M1447.274,661.822c0.089-2.552,2.233-4.562,4.789-4.472c2.556,0.09,4.561,2.24,4.472,4.792
						c-0.09,2.556-2.233,4.562-4.789,4.472C1449.19,666.525,1447.184,664.378,1447.274,661.822z"/>
					<path style="fill:#FFFFFF;" d="M1447.274,661.822c0.089-2.552,2.233-4.562,4.789-4.472c2.556,0.09,4.561,2.24,4.472,4.792
						c-0.09,2.556-2.233,4.562-4.789,4.472C1449.19,666.525,1447.184,664.378,1447.274,661.822z"/>
				</g>
				<g>
					<path style="fill:#FFFFFF;" d="M1424.112,604.122c0.086-2.553,2.229-4.556,4.789-4.469c2.556,0.09,4.558,2.236,4.472,4.789
						c-0.09,2.556-2.236,4.562-4.795,4.471C1426.021,608.824,1424.021,606.678,1424.112,604.122z"/>
					<path style="fill:#FFFFFF;" d="M1424.112,604.122c0.086-2.553,2.229-4.556,4.789-4.469c2.556,0.09,4.558,2.236,4.472,4.789
						c-0.09,2.556-2.236,4.562-4.795,4.471C1426.021,608.824,1424.021,606.678,1424.112,604.122z"/>
				</g>
				<g>
					<circle style="fill:#FFFFFF;" cx="1245.088" cy="563.533" r="4.633"/>
					<circle style="fill:#FFFFFF;" cx="1245.088" cy="563.533" r="4.633"/>
				</g>
				<g>
					<path style="fill:#FFFFFF;" d="M1503.928,672.184c0.106-3.054,2.672-5.445,5.727-5.339c3.054,0.109,5.449,2.666,5.342,5.727
						c-0.106,3.054-2.669,5.449-5.727,5.343C1506.216,677.808,1503.821,675.244,1503.928,672.184z"/>
					<path style="fill:#FFFFFF;" d="M1503.928,672.184c0.106-3.054,2.672-5.445,5.727-5.339c3.054,0.109,5.449,2.666,5.342,5.727
						c-0.106,3.054-2.669,5.449-5.727,5.343C1506.216,677.808,1503.821,675.244,1503.928,672.184z"/>
				</g>
				<g>
					<circle style="fill:#FFFFFF;" cx="1281.096" cy="550.184" r="4.633"/>
					<circle style="fill:#FFFFFF;" cx="1281.096" cy="550.184" r="4.633"/>
				</g>
				<g>
					<path style="fill:#FFFFFF;" d="M1179.641,520.588c0.09-2.559,2.236-4.561,4.792-4.471c2.557,0.086,4.559,2.236,4.469,4.792
						c-0.09,2.556-2.233,4.559-4.789,4.472C1181.557,525.29,1179.555,523.141,1179.641,520.588z"/>
					<path style="fill:#FFFFFF;" d="M1179.641,520.588c0.09-2.559,2.236-4.561,4.792-4.471c2.557,0.086,4.559,2.236,4.469,4.792
						c-0.09,2.556-2.233,4.559-4.789,4.472C1181.557,525.29,1179.555,523.141,1179.641,520.588z"/>
				</g>
			</g>
			<g>
				<g>
					<path style="fill:#FFFFFF;" d="M1469.386,639.945c0.077-2.126,1.86-3.794,3.987-3.721c2.13,0.074,3.793,1.863,3.72,3.987
						c-0.07,2.127-1.857,3.797-3.987,3.724C1470.98,643.858,1469.312,642.075,1469.386,639.945z"/>
				</g>
				<g>
					<path style="fill:#FFFFFF;" d="M1371.724,658.423c0.085-2.435,2.13-4.341,4.568-4.256c2.438,0.082,4.348,2.128,4.262,4.566
						c-0.085,2.435-2.128,4.348-4.566,4.262C1373.55,662.913,1371.641,660.861,1371.724,658.423z"/>
				</g>
				<g>
					<path style="opacity:0.5;fill:#FFFFFF;" d="M1276.715,634.927c0.092-2.615,2.285-4.665,4.904-4.576
						c2.615,0.092,4.662,2.292,4.573,4.907c-0.094,2.608-2.288,4.662-4.903,4.573
						C1278.673,639.739,1276.626,637.54,1276.715,634.927z"/>
				</g>
				<g>
					<path style="opacity:0.5;fill:#FFFFFF;" d="M1383.089,573.123c0.016-2.615,2.15-4.727,4.765-4.714
						c2.619,0.017,4.727,2.156,4.713,4.775c-0.016,2.609-2.152,4.724-4.768,4.711
						C1385.18,577.878,1383.072,575.738,1383.089,573.123z"/>
				</g>
				<g>
					<path style="opacity:0.5;fill:#FFFFFF;" d="M1392.288,686.572c0.089-2.615,2.282-4.666,4.901-4.577
						c2.615,0.095,4.662,2.288,4.573,4.903c-0.092,2.612-2.285,4.662-4.903,4.573
						C1394.246,691.383,1392.199,689.183,1392.288,686.572z"/>
				</g>
				<g>
					<circle style="opacity:0.5;fill:#FFFFFF;" cx="1391.558" cy="640.465" r="4.097"/>
				</g>
				<g>
					<path style="opacity:0.5;fill:#FFFFFF;" d="M1429.474,632.461c0.069-1.973,1.723-3.517,3.696-3.448
						c1.969,0.069,3.51,1.729,3.442,3.695c-0.066,1.97-1.722,3.511-3.689,3.442C1430.95,636.081,1429.408,634.434,1429.474,632.461z
						"/>
				</g>
				<g>
					<path style="opacity:0.5;fill:#FFFFFF;" d="M1189.878,554.345c0.069-1.973,1.723-3.517,3.693-3.448
						c1.969,0.069,3.513,1.729,3.445,3.695c-0.069,1.969-1.722,3.51-3.692,3.442
						C1191.354,557.964,1189.809,556.317,1189.878,554.345z"/>
				</g>
				<g>
					<path style="opacity:0.5;fill:#FFFFFF;" d="M1269.403,565.913c0.069-1.973,1.723-3.517,3.692-3.448
						c1.969,0.069,3.513,1.729,3.445,3.695c-0.069,1.969-1.722,3.511-3.692,3.442
						C1270.879,569.533,1269.334,567.886,1269.403,565.913z"/>
				</g>
				<g>
					<path style="fill:#FFFFFF;" d="M1341.625,580.04c0.076-2.255,1.974-4.027,4.235-3.951c2.261,0.082,4.033,1.981,3.954,4.238
						c-0.08,2.264-1.977,4.03-4.239,3.954C1343.315,584.202,1341.546,582.307,1341.625,580.04z"/>
				</g>
				<g>
					<path style="opacity:0.5;fill:#FFFFFF;" d="M1294.661,593.03c0.098-2.825,2.467-5.033,5.295-4.938
						c2.825,0.101,5.037,2.467,4.941,5.299c-0.101,2.821-2.47,5.033-5.295,4.938C1296.774,598.227,1294.562,595.858,1294.661,593.03
						z"/>
				</g>
				<g>
					<path style="fill:#FFFFFF;" d="M1401.73,605.642c0.108-3.149,2.75-5.616,5.896-5.508c3.152,0.112,5.612,2.754,5.507,5.903
						c-0.111,3.143-2.75,5.609-5.899,5.501C1404.085,611.43,1401.619,608.784,1401.73,605.642z"/>
				</g>
				<g>
					<path style="fill:#FFFFFF;" d="M1447.274,661.822c0.089-2.552,2.233-4.562,4.789-4.472c2.556,0.09,4.561,2.24,4.472,4.792
						c-0.09,2.556-2.233,4.562-4.789,4.472C1449.19,666.525,1447.184,664.378,1447.274,661.822z"/>
				</g>
				<g>
					<path style="fill:#FFFFFF;" d="M1424.112,604.122c0.086-2.553,2.229-4.556,4.789-4.469c2.556,0.09,4.558,2.236,4.472,4.789
						c-0.09,2.556-2.236,4.562-4.795,4.471C1426.021,608.824,1424.021,606.678,1424.112,604.122z"/>
				</g>
				<g>
					<circle style="fill:#FFFFFF;" cx="1245.088" cy="563.533" r="4.633"/>
				</g>
				<g>
					<path style="fill:#FFFFFF;" d="M1503.928,672.184c0.106-3.054,2.672-5.445,5.727-5.339c3.054,0.109,5.449,2.666,5.342,5.727
						c-0.106,3.054-2.669,5.449-5.727,5.343C1506.216,677.808,1503.821,675.244,1503.928,672.184z"/>
				</g>
				<g>
					<circle style="fill:#FFFFFF;" cx="1281.096" cy="550.184" r="4.633"/>
				</g>
				<g>
					<path style="fill:#FFFFFF;" d="M1179.641,520.588c0.09-2.559,2.236-4.561,4.792-4.471c2.557,0.086,4.559,2.236,4.469,4.792
						c-0.09,2.556-2.233,4.559-4.789,4.472C1181.557,525.29,1179.555,523.141,1179.641,520.588z"/>
				</g>
			</g>
		</g>
	</g>
</g>
<g id="Layer_1">
</g>
</svg>
