<?xml version="1.0" encoding="iso-8859-1"?>
<!-- Generator: Adobe Illustrator 19.0.0, SVG Export Plug-In . SVG Version: 6.00 Build 0)  -->
<svg version="1.1" xmlns="http://www.w3.org/2000/svg" xmlns:xlink="http://www.w3.org/1999/xlink" x="0px" y="0px"
	 viewBox="0 0 368.581 627.121" style="enable-background:new 0 0 368.581 627.121;" xml:space="preserve">
<g id="rocket">
	<g>
		<g>
			
				<linearGradient id="SVGID_1_" gradientUnits="userSpaceOnUse" x1="-1523.8081" y1="258.275" x2="-1567.2979" y2="246.0918" gradientTransform="matrix(0.9354 0.3536 -0.3536 0.9354 1846.7065 573.0298)">
				<stop  offset="0.0025" style="stop-color:#486BED"/>
				<stop  offset="0.1346" style="stop-color:#4766E5"/>
				<stop  offset="0.3434" style="stop-color:#4357CE"/>
				<stop  offset="0.6026" style="stop-color:#3D3FA9"/>
				<stop  offset="0.8996" style="stop-color:#341D76"/>
				<stop  offset="1" style="stop-color:#311163"/>
			</linearGradient>
			<path style="fill:url(#SVGID_1_);" d="M335.596,229.583c-0.152-0.399-0.346-0.812-0.569-1.229
				c-2.362-4.41-6.944-7.295-11.942-7.519c-0.472-0.021-0.928-0.018-1.354,0.018c-3.406,0.284-46.574,52.091-47.146,59.15
				c-0.773,9.552,10.143,14.992,10.143,14.992s9.623,7.493,17.903,2.668C308.751,294.096,336.812,232.777,335.596,229.583z"/>
			
				<linearGradient id="SVGID_2_" gradientUnits="userSpaceOnUse" x1="3077.6509" y1="257.8496" x2="3034.1604" y2="245.6663" gradientTransform="matrix(-0.9354 -0.3536 -0.3536 0.9354 3156.0059 1068.4464)">
				<stop  offset="0.0025" style="stop-color:#486BED"/>
				<stop  offset="0.1559" style="stop-color:#4662DF"/>
				<stop  offset="0.4478" style="stop-color:#3F49B9"/>
				<stop  offset="0.8444" style="stop-color:#35227D"/>
				<stop  offset="1" style="stop-color:#311163"/>
			</linearGradient>
			<path style="fill:url(#SVGID_2_);" d="M212.313,182.974c0.378-0.199,0.796-0.38,1.239-0.545
				c4.688-1.745,10.034-0.877,13.929,2.262c0.368,0.296,0.708,0.601,1.003,0.909c2.366,2.466,0.464,69.874-3.778,75.546
				c-5.739,7.675-17.524,4.531-17.524,4.531s-12.174-0.747-15.19-9.844C189.764,249.111,209.288,184.565,212.313,182.974z"/>
			
				<linearGradient id="SVGID_3_" gradientUnits="userSpaceOnUse" x1="-1768.6855" y1="442.5909" x2="-1658.3176" y2="577.5193" gradientTransform="matrix(0.9226 0.3857 -0.3857 0.9226 2074.4783 338.033)">
				<stop  offset="0" style="stop-color:#FF543C"/>
				<stop  offset="0.1039" style="stop-color:#FF4B40"/>
				<stop  offset="0.2718" style="stop-color:#FF3349"/>
				<stop  offset="0.4817" style="stop-color:#FF0D59"/>
				<stop  offset="0.5433" style="stop-color:#FF005E"/>
				<stop  offset="0.6695" style="stop-color:#C7045F"/>
				<stop  offset="0.895" style="stop-color:#680A60"/>
				<stop  offset="0.9967" style="stop-color:#420C60"/>
			</linearGradient>
			<path style="fill:url(#SVGID_3_);" d="M327.104,61.944c-12.971-5.422-24.757-12.007-34.994-19.294
				c-39.471,36.882-81.572,96.364-66.901,175.12c3.053,16.391,14.475,29.989,30.07,35.885l0,0l0,0
				c15.596,5.896,33.156,3.255,46.29-7.016c62.099-48.566,70.623-119.507,65.925-172.996
				C354.495,71.544,340.803,67.67,327.104,61.944z"/>
			
				<linearGradient id="SVGID_4_" gradientUnits="userSpaceOnUse" x1="-1571.613" y1="225.1808" x2="-1628.9957" y2="167.7981" gradientTransform="matrix(0.9354 0.3536 0.3536 -0.9354 1737.0009 862.1234)">
				<stop  offset="0" style="stop-color:#FEE662"/>
				<stop  offset="0.1846" style="stop-color:#FED15D"/>
				<stop  offset="0.5658" style="stop-color:#FF9B50"/>
				<stop  offset="1" style="stop-color:#FF5740"/>
			</linearGradient>
			<path style="fill:url(#SVGID_4_);" d="M346.411,128.855c8.576-22.684-2.324-47.822-24.345-56.147
				c-22.021-8.325-46.825,3.314-55.401,25.998c-8.576,22.684,2.323,47.822,24.345,56.147
				C313.031,163.179,337.835,151.539,346.411,128.855z"/>
			
				<linearGradient id="SVGID_5_" gradientUnits="userSpaceOnUse" x1="2852.8149" y1="141.2044" x2="2798.8862" y2="86.3654" gradientTransform="matrix(-0.9354 -0.3536 -0.3536 0.9354 2991.1746 1006.1294)">
				<stop  offset="0" style="stop-color:#FEE662"/>
				<stop  offset="0.1846" style="stop-color:#FED15D"/>
				<stop  offset="0.5658" style="stop-color:#FF9B50"/>
				<stop  offset="1" style="stop-color:#FF5740"/>
			</linearGradient>
			<path style="fill:url(#SVGID_5_);" d="M322.678,149.542c20.16-9.098,29.278-32.485,20.364-52.236
				c-8.914-19.75-32.483-28.386-52.643-19.287c-20.16,9.098-29.278,32.485-20.364,52.236
				C278.948,150.006,302.517,158.641,322.678,149.542z"/>
			
				<linearGradient id="SVGID_6_" gradientUnits="userSpaceOnUse" x1="2175.9827" y1="1691.7178" x2="2243.8088" y2="1691.7178" gradientTransform="matrix(-0.4114 -0.9115 -0.9115 0.4114 2757.8992 1431.208)">
				<stop  offset="0" style="stop-color:#300D5D"/>
				<stop  offset="0.9975" style="stop-color:#CB1B5E"/>
			</linearGradient>
			<path style="fill:url(#SVGID_6_);" d="M295.003,144.292c17.698,6.691,37.36-1.94,43.915-19.279
				c6.555-17.339-2.478-36.818-20.177-43.509c-17.698-6.691-37.36,1.94-43.915,19.279
				C268.271,118.121,277.305,137.601,295.003,144.292z"/>
			
				<linearGradient id="SVGID_7_" gradientUnits="userSpaceOnUse" x1="-1654.6362" y1="408.0246" x2="-1752.1759" y2="380.7" gradientTransform="matrix(0.9226 0.3857 -0.3857 0.9226 2074.4783 338.033)">
				<stop  offset="0" style="stop-color:#311163"/>
				<stop  offset="0.1556" style="stop-color:#35227D"/>
				<stop  offset="0.5522" style="stop-color:#3F49B9"/>
				<stop  offset="0.8441" style="stop-color:#4662DF"/>
				<stop  offset="0.9975" style="stop-color:#486BED"/>
			</linearGradient>
			<path style="fill:url(#SVGID_7_);" d="M326.756,62.775c13.699,5.726,27.391,9.6,40.39,11.699C363.385,31.642,351.144,0,351.144,0
				s-28.907,15.005-59.382,43.481C301.999,50.768,313.785,57.353,326.756,62.775z"/>
			
				<linearGradient id="SVGID_8_" gradientUnits="userSpaceOnUse" x1="-1618.0811" y1="251.3799" x2="-1583.5125" y2="251.3799" gradientTransform="matrix(0.9354 0.3536 -0.3536 0.9354 1846.7065 573.0298)">
				<stop  offset="0.0025" style="stop-color:#486BED"/>
				<stop  offset="0.1475" style="stop-color:#4359D1"/>
				<stop  offset="0.4233" style="stop-color:#3B3AA2"/>
				<stop  offset="0.6674" style="stop-color:#362480"/>
				<stop  offset="0.8679" style="stop-color:#32166B"/>
				<stop  offset="1" style="stop-color:#311163"/>
			</linearGradient>
			<path style="fill:url(#SVGID_8_);" d="M282.206,207.616c-0.228-0.361-0.501-0.727-0.802-1.09c-3.192-3.851-8.258-5.766-13.2-4.99
				c-0.467,0.073-0.913,0.168-1.323,0.287c-3.281,0.957-35.268,60.322-34.422,67.354c1.144,9.515,12.925,12.671,12.925,12.671
				s10.923,5.427,18.075-0.951C268.746,276.183,284.034,210.504,282.206,207.616z"/>
		</g>
		<linearGradient id="SVGID_9_" gradientUnits="userSpaceOnUse" x1="119.7873" y1="356.8578" x2="299.235" y2="356.8578">
			<stop  offset="0" style="stop-color:#FFFFFF"/>
			<stop  offset="0.1866" style="stop-color:#E6F1FF"/>
			<stop  offset="0.5486" style="stop-color:#BBD9FE"/>
			<stop  offset="0.8311" style="stop-color:#A0CAFD"/>
			<stop  offset="0.9975" style="stop-color:#96C4FD"/>
		</linearGradient>
		<path style="fill:url(#SVGID_9_);" d="M245.937,322.384c-8.806-30.87-39.482-50.993-71.973-45.799
			c-35.078,5.607-58.968,38.589-53.361,73.667c3.243,20.289,15.654,36.82,32.323,46.081c0.073,1.659,0.23,3.329,0.498,5.008
			c3.789,23.701,26.074,39.844,49.775,36.055c13.692-2.189,24.851-10.556,31.112-21.797c7.515,2.779,15.823,3.732,24.299,2.377
			c26.303-4.205,44.218-28.936,40.014-55.239C294.555,337.285,271.27,319.691,245.937,322.384z"/>
		<linearGradient id="SVGID_10_" gradientUnits="userSpaceOnUse" x1="79.7093" y1="507.3174" x2="190.5287" y2="507.3174">
			<stop  offset="0" style="stop-color:#FFFFFF"/>
			<stop  offset="0.1866" style="stop-color:#E6F1FF"/>
			<stop  offset="0.5486" style="stop-color:#BBD9FE"/>
			<stop  offset="0.8311" style="stop-color:#A0CAFD"/>
			<stop  offset="0.9975" style="stop-color:#96C4FD"/>
		</linearGradient>
		<path style="fill:url(#SVGID_10_);" d="M156.239,484.32c-6.458-18.556-25.903-29.781-45.575-25.474
			c-21.238,4.65-34.685,25.636-30.036,46.874c2.689,12.284,10.85,21.952,21.358,27.029c0.102,1.011,0.257,2.026,0.479,3.042
			c3.142,14.35,17.322,23.436,31.672,20.294c8.29-1.815,14.816-7.317,18.25-14.404c4.689,1.436,9.798,1.728,14.93,0.605
			c15.925-3.487,26.009-19.223,22.523-35.149C186.466,491.729,171.624,481.791,156.239,484.32z"/>
		<linearGradient id="SVGID_11_" gradientUnits="userSpaceOnUse" x1="-2.576826e-005" y1="589.8168" x2="76.6451" y2="589.8168">
			<stop  offset="0" style="stop-color:#FFFFFF"/>
			<stop  offset="0.1866" style="stop-color:#E6F1FF"/>
			<stop  offset="0.5486" style="stop-color:#BBD9FE"/>
			<stop  offset="0.8311" style="stop-color:#A0CAFD"/>
			<stop  offset="0.9975" style="stop-color:#96C4FD"/>
		</linearGradient>
		<path style="fill:url(#SVGID_11_);" d="M58.737,582.303c0.225-14.657-10.529-27.503-25.418-29.521
			c-16.074-2.179-30.871,9.086-33.05,25.16c-1.26,9.298,1.984,18.162,8.048,24.41c-0.187,0.735-0.339,1.486-0.443,2.255
			c-1.472,10.861,6.139,20.859,17,22.331c6.274,0.85,12.257-1.335,16.478-5.422c2.918,2.207,6.424,3.72,10.308,4.246
			c12.053,1.634,23.149-6.813,24.783-18.867C78.024,595.234,70.167,584.469,58.737,582.303z"/>
	</g>
</g>
<g id="Layer_1">
</g>
</svg>
