<?xml version="1.0" encoding="utf-8"?>
<!-- Generator: Adobe Illustrator 22.0.0, SVG Export Plug-In . SVG Version: 6.00 Build 0)  -->
<svg version="1.1" id="Layer_1" xmlns="http://www.w3.org/2000/svg" xmlns:xlink="http://www.w3.org/1999/xlink" x="0px" y="0px"
	 viewBox="0 0 556.9 1160.3" style="enable-background:new 0 0 556.9 1160.3;" xml:space="preserve">
<style type="text/css">
	.st0{fill:#FEAA0F;}
	.st1{fill:url(#SVGID_1_);}
	.st2{fill:url(#SVGID_2_);}
	.st3{fill:url(#SVGID_3_);}
	.st4{fill:url(#SVGID_4_);}
	.st5{fill:url(#SVGID_5_);}
	.st6{fill:url(#SVGID_6_);}
	.st7{fill:url(#SVGID_7_);}
	.st8{fill:#3AB4BF;}
	.st9{fill:none;}
	.st10{fill:#75FFD1;}
	.st11{fill:url(#SVGID_8_);}
	.st12{fill:url(#SVGID_9_);}
	.st13{fill:url(#SVGID_10_);}
	.st14{fill:url(#SVGID_11_);}
	.st15{opacity:0.7;fill:url(#SVGID_12_);enable-background:new    ;}
	.st16{fill:#FED593;}
	.st17{fill:url(#SVGID_13_);}
	.st18{fill:url(#SVGID_14_);}
	.st19{fill:url(#SVGID_15_);}
	.st20{fill:url(#SVGID_16_);}
	.st21{opacity:0.7;fill:#FEDAC0;enable-background:new    ;}
	.st22{fill:url(#SVGID_17_);}
	.st23{fill:url(#SVGID_18_);}
	.st24{fill:url(#SVGID_19_);}
	.st25{fill:url(#SVGID_20_);}
	.st26{fill:url(#SVGID_21_);}
	.st27{fill:url(#SVGID_22_);}
	.st28{fill:url(#SVGID_23_);}
	.st29{fill:#FFFFFF;}
	.st30{fill:url(#SVGID_24_);}
	.st31{fill:url(#SVGID_25_);}
	.st32{fill:url(#SVGID_26_);}
	.st33{fill:url(#SVGID_27_);}
	.st34{fill:url(#SVGID_28_);}
</style>
<g id="spaceship">
	<g>
		<g>
			<path class="st0" d="M278.7,12.2c3-0.4,5.4-2.9,5.4-6.1c0-3.4-2.8-6.1-6.1-6.1s-6.1,2.8-6.1,6.1c0,3.1,2.4,5.7,5.4,6.1
				c-1.8,17.4-5.2,32.8-10.6,45.5h11.3h11.3C283.9,45,280.5,29.6,278.7,12.2z"/>
			
				<linearGradient id="SVGID_1_" gradientUnits="userSpaceOnUse" x1="245.596" y1="1100.782" x2="310.284" y2="1100.782" gradientTransform="matrix(1 0 0 -1 0 1160)">
				<stop  offset="0" style="stop-color:#FEE662"/>
				<stop  offset="0.1846" style="stop-color:#FED15D"/>
				<stop  offset="0.5658" style="stop-color:#FF9B50"/>
				<stop  offset="1" style="stop-color:#FF5740"/>
			</linearGradient>
			<path class="st1" d="M277.9,48.6c-18.7,0-27.8,9.7-32.3,19.9l32.3,1.3l32.3-1.3C305.7,58.3,296.6,48.6,277.9,48.6z"/>
			
				<linearGradient id="SVGID_2_" gradientUnits="userSpaceOnUse" x1="155.0711" y1="1048.2991" x2="400.8089" y2="1048.2991" gradientTransform="matrix(1 0 0 -1 0 1160)">
				<stop  offset="2.500000e-03" style="stop-color:#486BED"/>
				<stop  offset="0.1475" style="stop-color:#4359D1"/>
				<stop  offset="0.4233" style="stop-color:#3B3AA2"/>
				<stop  offset="0.6674" style="stop-color:#362480"/>
				<stop  offset="0.8679" style="stop-color:#32166B"/>
				<stop  offset="1" style="stop-color:#311163"/>
			</linearGradient>
			<path class="st2" d="M277.9,157.8h122.9l-14.2-63.3c-69.7-38.9-142.2-38.3-217.4,0l-14.2,63.3H277.9z"/>
			
				<linearGradient id="SVGID_3_" gradientUnits="userSpaceOnUse" x1="181.3611" y1="1052.8" x2="376.1077" y2="1052.8" gradientTransform="matrix(1 0 0 -1 0 1160)">
				<stop  offset="0" style="stop-color:#FFFFFF"/>
				<stop  offset="0.1059" style="stop-color:#F7F9FC"/>
				<stop  offset="0.273" style="stop-color:#E0E7F3"/>
				<stop  offset="0.4806" style="stop-color:#BBCBE5"/>
				<stop  offset="0.7206" style="stop-color:#87A4D1"/>
				<stop  offset="0.9848" style="stop-color:#4673B8"/>
				<stop  offset="0.9975" style="stop-color:#4370B7"/>
			</linearGradient>
			<path class="st3" d="M371.4,126.9c-3.2,0-7.3-4.2-8.5-10.4c-0.6-3.5-0.1-6.9,1.5-8.9c0.8-1,1.7-1.5,2.8-1.6c0,0,0,0,0,0
				c3.4,0,7.6,4.2,8.7,10.3c0.6,3.5,0.1,6.9-1.5,8.9c-0.8,1-1.7,1.5-2.8,1.6L371.4,126.9z M185.9,126.8c-1.1-0.1-2-0.6-2.8-1.6
				c-1.5-2-2.1-5.4-1.5-8.9c1.1-6.2,5.3-10.4,8.5-10.4c1.3,0.1,2.2,0.6,3,1.6c1.6,2,2.1,5.4,1.5,8.9c-1.1,6.2-5.3,10.4-8.5,10.4
				L185.9,126.8z M330.7,119.7c-5,0-9.7-5.6-10.4-12.5c-0.4-4.1,0.6-8,2.8-10.6c1-1.1,2.6-2.5,5-2.7c0,0,0,0,0,0
				c5.4,0,10.1,5.6,10.8,12.5c0.4,4.1-0.6,8-2.8,10.6c-1,1.1-2.6,2.5-5,2.7L330.7,119.7z M226.4,119.7c-2.4-0.1-4.1-1.5-5-2.7
				c-2.2-2.5-3.2-6.5-2.8-10.6C219.3,99.5,224,94,229,94c2.8,0.1,4.4,1.5,5.4,2.7c2.2,2.5,3.2,6.5,2.8,10.6
				c-0.7,6.9-5.4,12.5-10.4,12.5L226.4,119.7z M277.9,118.6c-7.5,0-13.7-7-13.7-15.5s6.1-15.5,13.7-15.5s13.7,7,13.7,15.5
				S285.5,118.6,277.9,118.6z"/>
			
				<linearGradient id="SVGID_4_" gradientUnits="userSpaceOnUse" x1="7.139" y1="921.1625" x2="548.741" y2="921.1625" gradientTransform="matrix(1 0 0 -1 0 1160)">
				<stop  offset="0" style="stop-color:#FF543C"/>
				<stop  offset="0.1039" style="stop-color:#FF4B40"/>
				<stop  offset="0.2718" style="stop-color:#FF3349"/>
				<stop  offset="0.4817" style="stop-color:#FF0D59"/>
				<stop  offset="0.5433" style="stop-color:#FF005E"/>
				<stop  offset="0.6695" style="stop-color:#C7045F"/>
				<stop  offset="0.895" style="stop-color:#680A60"/>
				<stop  offset="0.9967" style="stop-color:#420C60"/>
			</linearGradient>
			<path class="st4" d="M277.9,339.1c208.6,0,270.8-135.1,270.8-135.1s-44.8-65.4-270.8-65.4S7.1,204,7.1,204
				S69.3,339.1,277.9,339.1z"/>
			
				<linearGradient id="SVGID_5_" gradientUnits="userSpaceOnUse" x1="0" y1="970.0582" x2="556.867" y2="970.0582" gradientTransform="matrix(1 0 0 -1 0 1160)">
				<stop  offset="0" style="stop-color:#FEE662"/>
				<stop  offset="0.1846" style="stop-color:#FED15D"/>
				<stop  offset="0.5658" style="stop-color:#FF9B50"/>
				<stop  offset="1" style="stop-color:#FF5740"/>
			</linearGradient>
			<path class="st5" d="M549.8,209.8c-180.4-37.4-363.4-37.4-543.8,0c-6.3,1.3-8.6-10.2-2.4-11.5c182-37.7,366.5-37.7,548.5,0
				C559.8,199.9,557.4,211.3,549.8,209.8z"/>
			
				<linearGradient id="SVGID_6_" gradientUnits="userSpaceOnUse" x1="79.4876" y1="916.92" x2="477.7072" y2="916.92" gradientTransform="matrix(1 0 0 -1 0 1160)">
				<stop  offset="0" style="stop-color:#FEE662"/>
				<stop  offset="0.1846" style="stop-color:#FED15D"/>
				<stop  offset="0.5658" style="stop-color:#FF9B50"/>
				<stop  offset="1" style="stop-color:#FF5740"/>
			</linearGradient>
			<path class="st6" d="M277.9,276.3c-21,0-38-14.9-38-33.2s17-33.2,38-33.2s38,14.9,38,33.2S298.9,276.3,277.9,276.3z M142.5,248.3
				c-8.6-14.7-28.9-26.7-45.2-26.7c-16.3,0-22.6,11.9-13.9,26.7C92,263,112.3,275,128.6,275C145,275,151.2,263,142.5,248.3z
				 M428.6,275c16.3,0,36.6-11.9,45.2-26.7s2.4-26.7-13.9-26.7s-36.6,11.9-45.2,26.7C406,263,412.2,275,428.6,275z"/>
			
				<linearGradient id="SVGID_7_" gradientUnits="userSpaceOnUse" x1="73.6336" y1="919.674" x2="484.6003" y2="919.674" gradientTransform="matrix(1 0 0 -1 0 1160)">
				<stop  offset="0" style="stop-color:#00BFA7"/>
				<stop  offset="0.2168" style="stop-color:#00AAA1"/>
				<stop  offset="0.6614" style="stop-color:#007593"/>
				<stop  offset="1" style="stop-color:#004887"/>
			</linearGradient>
			<path class="st7" d="M277.9,272c-20.3,0-36.8-14.9-36.8-33.2c0-18.3,16.5-33.2,36.8-33.2s36.8,14.9,36.8,33.2
				S298.3,272,277.9,272z M136.7,248.3c-8.6-14.7-28.9-26.7-45.2-26.7c-16.3,0-22.6,11.9-13.9,26.7c8.6,14.7,28.9,26.7,45.2,26.7
				S145.3,263,136.7,248.3z M435.5,275c16.3,0,36.6-11.9,45.2-26.7s2.4-26.7-13.9-26.7s-36.6,11.9-45.2,26.7S419.1,275,435.5,275z"
				/>
			<path class="st8" d="M187.1,244.1"/>
			<line class="st9" x1="375.2" y1="243.5" x2="375.2" y2="243.5"/>
			<path class="st10" d="M379.3,235.5"/>
			
				<linearGradient id="SVGID_8_" gradientUnits="userSpaceOnUse" x1="175.6949" y1="841.564" x2="380.1851" y2="841.564" gradientTransform="matrix(1 0 0 -1 0 1160)">
				<stop  offset="0" style="stop-color:#FEE662"/>
				<stop  offset="0.1846" style="stop-color:#FED15D"/>
				<stop  offset="0.5658" style="stop-color:#FF9B50"/>
				<stop  offset="1" style="stop-color:#FF5740"/>
			</linearGradient>
			<ellipse class="st11" cx="277.9" cy="318.4" rx="102.2" ry="16.1"/>
			
				<linearGradient id="SVGID_9_" gradientUnits="userSpaceOnUse" x1="183.783" y1="839.123" x2="373.327" y2="839.123" gradientTransform="matrix(1 0 0 -1 0 1160)">
				<stop  offset="2.500000e-03" style="stop-color:#486BED"/>
				<stop  offset="0.1475" style="stop-color:#4359D1"/>
				<stop  offset="0.4233" style="stop-color:#3B3AA2"/>
				<stop  offset="0.6674" style="stop-color:#362480"/>
				<stop  offset="0.8679" style="stop-color:#32166B"/>
				<stop  offset="1" style="stop-color:#311163"/>
			</linearGradient>
			<ellipse class="st12" cx="278.6" cy="320.9" rx="94.8" ry="14.9"/>
			<path class="st10" d="M184.3,232.3"/>
			<path class="st10" d="M181.7,235.3"/>
			
				<linearGradient id="SVGID_10_" gradientUnits="userSpaceOnUse" x1="215.5569" y1="837.739" x2="341.553" y2="837.739" gradientTransform="matrix(1 0 0 -1 0 1160)">
				<stop  offset="0" style="stop-color:#00BFA7"/>
				<stop  offset="0.2168" style="stop-color:#00AAA1"/>
				<stop  offset="0.6614" style="stop-color:#007593"/>
				<stop  offset="1" style="stop-color:#004887"/>
			</linearGradient>
			<ellipse class="st13" cx="278.6" cy="322.3" rx="63" ry="10.2"/>
			
				<linearGradient id="SVGID_11_" gradientUnits="userSpaceOnUse" x1="5.1867" y1="968.9218" x2="553.4606" y2="968.9218" gradientTransform="matrix(1 0 0 -1 0 1160)">
				<stop  offset="0" style="stop-color:#FEE662"/>
				<stop  offset="0.1846" style="stop-color:#FED15D"/>
				<stop  offset="0.5658" style="stop-color:#FF9B50"/>
				<stop  offset="1" style="stop-color:#FF5740"/>
			</linearGradient>
			<path class="st14" d="M551.5,206c-0.1,0-0.3,0-0.4,0c-172.9-34.4-355.8-34.4-543.6,0c-1,0.2-2.1-0.5-2.3-1.6
				c-0.2-1.1,0.5-2.1,1.6-2.3c188.4-34.5,371.8-34.5,545.1,0c1.1,0.2,1.7,1.2,1.5,2.3C553.2,205.3,552.4,206,551.5,206z"/>
		</g>
		
			<linearGradient id="SVGID_12_" gradientUnits="userSpaceOnUse" x1="264.7615" y1="835.724" x2="264.7615" y2="25.045" gradientTransform="matrix(1 0 0 -1 0 1160)">
			<stop  offset="0" style="stop-color:#FEE662"/>
			<stop  offset="0.112" style="stop-color:#FED15D"/>
			<stop  offset="0.3433" style="stop-color:#FF9B50"/>
			<stop  offset="0.6067" style="stop-color:#FF5740"/>
			<stop  offset="1" style="stop-color:#FF5740;stop-opacity:0"/>
		</linearGradient>
		<polygon class="st15" points="520.9,1135 320.5,325.5 277.1,324.9 219.8,324.3 8.6,1135 		"/>
		<g>
			<path class="st16" d="M317.9,932.7c1.8,3,2,6.7,0.4,9.8c-0.4,0.9-0.3,2,0.4,2.6l0,0c0.7,0.6,2,0.1,2.6-1.1c2-4.2,1.8-9.1-0.6-13
				c-0.7-1.2-2-1.5-2.7-0.9l0,0C317.4,930.8,317.4,931.9,317.9,932.7z"/>
			<path class="st16" d="M315.4,931.7c1.8,3,2,6.7,0.4,9.8c-0.4,0.9-0.3,2,0.4,2.6l0,0c0.7,0.6,2,0.1,2.6-1.1c2-4.2,1.8-9.1-0.6-13
				c-0.7-1.2-2-1.5-2.7-0.9l0,0C314.9,929.7,314.9,930.8,315.4,931.7z"/>
			<path class="st16" d="M313,931.2c1.8,3,2,6.7,0.4,9.8c-0.4,0.9-0.3,2,0.4,2.6l0,0c0.7,0.6,2,0.1,2.6-1.1c2-4.2,1.8-9.1-0.6-13
				c-0.7-1.2-2-1.5-2.7-0.9l0,0C312.4,929.3,312.5,930.4,313,931.2z"/>
			
				<linearGradient id="SVGID_13_" gradientUnits="userSpaceOnUse" x1="308.9708" y1="221.0555" x2="324.8173" y2="221.0555" gradientTransform="matrix(1 0 0 -1 0 1160)">
				<stop  offset="0" style="stop-color:#FEE662"/>
				<stop  offset="1" style="stop-color:#FFBF3F"/>
			</linearGradient>
			<path class="st17" d="M322.9,932.1c-0.6-1-1.5-1.3-2.3-1.1c-0.1-0.1-0.1-0.3-0.2-0.4c-0.7-1.1-2-1.5-2.7-0.9
				c-0.7-1-1.9-1.2-2.5-0.6c0,0,0,0-0.1,0.1c-0.7-0.8-1.8-1-2.4-0.5c-0.7,0.6-0.7,1.8-0.2,2.6c1.2,2,1.7,4.4,1.4,6.6
				c-0.3,0.2-0.7,0.5-1,0.9c-0.3-0.9-0.6-1.9-0.6-2.9c-0.1-1-0.7-1.9-1.6-2.1c-0.9-0.1-1.8,0.9-1.7,2.3c0.1,2.4,0.9,4.7,2.2,6.6
				c-0.3,2.4,0.8,4.8,2.9,5.7l1.5,0.7c2.7,1.3,6.1-0.2,7.5-3.3c0,0,0-0.1,0-0.1c0.1-0.2,0.2-0.3,0.3-0.5
				C325.5,941,325.2,936.1,322.9,932.1z"/>
			<path class="st16" d="M183.6,1014c2.5,2.4,3.6,6,2.9,9.4c-0.2,1,0.2,2,1,2.4l0,0c0.8,0.4,2-0.4,2.3-1.8c0.9-4.5-0.6-9.2-3.9-12.4
				c-1-1-2.4-0.9-2.9-0.2l0,0C182.6,1012.2,182.9,1013.3,183.6,1014z"/>
			
				<linearGradient id="SVGID_14_" gradientUnits="userSpaceOnUse" x1="227.8271" y1="219.8895" x2="274.2029" y2="219.8895" gradientTransform="matrix(1 0 0 -1 0 1160)">
				<stop  offset="0" style="stop-color:#FEE662"/>
				<stop  offset="1" style="stop-color:#FFBF3F"/>
			</linearGradient>
			<path class="st18" d="M258.2,914.6l3.8,10.5c0,0,11.3-2.5,12.3,8.2l-9.9,2.9c0,0,0.3,11.4,2.8,14.6s4.2,8.4,0,9
				c-4.2,0.7-22,5.9-22,5.9s-17.8-47.5-17.3-47.7C228.4,917.7,240.1,925.6,258.2,914.6z"/>
			
				<linearGradient id="SVGID_15_" gradientUnits="userSpaceOnUse" x1="233.4185" y1="215.832" x2="240.7089" y2="215.832" gradientTransform="matrix(1 0 0 -1 0 1160)">
				<stop  offset="0" style="stop-color:#FEE662"/>
				<stop  offset="1" style="stop-color:#FFBF3F"/>
			</linearGradient>
			<path class="st19" d="M239.5,947.5c-1.5,1.1-3.8,0.4-5.1-1.4c-1.3-1.9-1.2-4.2,0.3-5.3c1.5-1.1,3.8-0.4,5.1,1.4
				C241.1,944.1,241,946.5,239.5,947.5z"/>
			
				<linearGradient id="SVGID_16_" gradientUnits="userSpaceOnUse" x1="226.354" y1="239.478" x2="263.3157" y2="239.478" gradientTransform="matrix(1 0 0 -1 0 1160)">
				<stop  offset="2.500000e-03" style="stop-color:#212121"/>
				<stop  offset="0.5937" style="stop-color:#0F0F0F"/>
				<stop  offset="1" style="stop-color:#000000"/>
			</linearGradient>
			<path class="st20" d="M228.5,920.2c-1.1-0.4,16.9,6,28.9-5.1c12-11.1,2-17.8,2-17.8s6.3,5.1-2.4,14.7c0,0,6.6-10.8-0.8-15.5
				c0,0,5.4,6.3-2.8,15.5c0,0,7-9,0.5-13.2c0,0,4.1,4.4-2.9,12.2c0,0-26.4-12.1-23.1,6.9c0,0-7.5,13,11.1,26.6
				C238.9,944.5,242.3,925.9,228.5,920.2z"/>
			<path class="st21" d="M264.7,934.9c0-0.1-0.1-0.1-0.2-0.1c0.2-0.1,0.5-0.1,1-0.1c0,0-0.9-0.1-1.4,0.1c0,0-0.1,0-0.1,0
				c-0.3,0.1-0.5,0.4-0.5,0.5s0.4,0.2,0.7,0.1C264.6,935.3,264.8,935.1,264.7,934.9z"/>
			
				<linearGradient id="SVGID_17_" gradientUnits="userSpaceOnUse" x1="252.1778" y1="209.969" x2="261.223" y2="209.969" gradientTransform="matrix(1 0 0 -1 0 1160)">
				<stop  offset="0" style="stop-color:#FF543C"/>
				<stop  offset="1" style="stop-color:#FF005E"/>
			</linearGradient>
			<path class="st22" d="M258.5,955c-2.3,0.8-5-0.7-6-3.5c-1-2.8,0-5.7,2.3-6.5s5,0.7,6,3.5C261.8,951.3,260.8,954.2,258.5,955z"/>
			
				<linearGradient id="SVGID_18_" gradientUnits="userSpaceOnUse" x1="238.919" y1="15.3218" x2="273.867" y2="15.3218" gradientTransform="matrix(1 0 0 -1 0 1160)">
				<stop  offset="2.500000e-03" style="stop-color:#212121"/>
				<stop  offset="0.5937" style="stop-color:#0F0F0F"/>
				<stop  offset="1" style="stop-color:#000000"/>
			</linearGradient>
			<path class="st23" d="M250.5,1129c0,0-11.2,0.4-11.6,11l31.8,20.3c0,0,5,0.2,2.4-4.5c-2.6-4.7-15.8-17.8-15.8-17.8
				s-1.6-2.1,0.7-3.9L250.5,1129z"/>
			
				<linearGradient id="SVGID_19_" gradientUnits="userSpaceOnUse" x1="332.6562" y1="30.6245" x2="369.5027" y2="30.6245" gradientTransform="matrix(1 0 0 -1 0 1160)">
				<stop  offset="2.500000e-03" style="stop-color:#212121"/>
				<stop  offset="0.5937" style="stop-color:#0F0F0F"/>
				<stop  offset="1" style="stop-color:#000000"/>
			</linearGradient>
			<path class="st24" d="M337.1,1122.5c0,0-7.9,7.1-2.7,14.7l33.6-5.3c0,0,3.7-2.9-0.6-4.6c-4.3-1.7-20.7-2.8-20.7-2.8
				s-2.3-0.4-1.5-3.1L337.1,1122.5z"/>
			<g>
				
					<linearGradient id="SVGID_20_" gradientUnits="userSpaceOnUse" x1="254.6888" y1="191.5428" x2="323.3827" y2="191.5428" gradientTransform="matrix(1 0 0 -1 0 1160)">
					<stop  offset="0" style="stop-color:#311163"/>
					<stop  offset="0.1506" style="stop-color:#321468"/>
					<stop  offset="0.3248" style="stop-color:#341D76"/>
					<stop  offset="0.5108" style="stop-color:#382C8D"/>
					<stop  offset="0.7049" style="stop-color:#3D42AD"/>
					<stop  offset="0.9035" style="stop-color:#445CD7"/>
					<stop  offset="0.9975" style="stop-color:#486BED"/>
				</linearGradient>
				<path class="st25" d="M255.2,979.7c-1.6,2.3,0.6,7.8,5,9.6c14.6,5.9,30.3,2.3,42.5-5.7c9.7-6.4,17.2-16.4,19.8-28.7
					c0.4-2,0.7-4.1,0.9-6.2c0.1-1.3-0.5-2.4-1.3-2.4c-2.5-0.1-7.4-1.4-9.9-1.5c-0.8,0-1.4,0.8-1.5,1.8c-0.1,1.6-0.4,3.2-0.7,4.8
					c-2.1,9.6-7.8,17.4-15.4,22.3c-9.4,6.2-20.8,6.9-32.1,2.4C259.2,974.8,257.1,976.3,255.2,979.7z"/>
			</g>
			
				<linearGradient id="SVGID_21_" gradientUnits="userSpaceOnUse" x1="269.031" y1="73.1556" x2="349.6469" y2="73.1556" gradientTransform="matrix(1 0 0 -1 0 1160)">
				<stop  offset="0" style="stop-color:#311163"/>
				<stop  offset="0.1506" style="stop-color:#321468"/>
				<stop  offset="0.3248" style="stop-color:#341D76"/>
				<stop  offset="0.5108" style="stop-color:#382C8D"/>
				<stop  offset="0.7049" style="stop-color:#3D42AD"/>
				<stop  offset="0.9035" style="stop-color:#445CD7"/>
				<stop  offset="0.9975" style="stop-color:#486BED"/>
			</linearGradient>
			<path class="st26" d="M297.1,1048.4l34.3,11.4c0.1,0.2,0.3,0.4,0.4,0.6l17.7,57.6c0.5,1.2-0.1,2.7-1.4,3.1l-16.6,5
				c-1.1,0.3-2.3-0.2-2.7-1.3l-14.4-50.2c-0.1-0.3-45-13.6-45-13.6c-1.3-1.2,3-6.8,4.7-7.3l20.8-5.9
				C295.6,1047.4,296.5,1047.7,297.1,1048.4z"/>
			<g>
				
					<image style="overflow:visible;opacity:0.12;enable-background:new    ;" width="58" height="97" xlink:href="12FE1310090AAB43.png"  transform="matrix(0.9828 0 0 0.9828 240.5128 1047.4686)">
				</image>
				<g>
					
						<linearGradient id="SVGID_22_" gradientUnits="userSpaceOnUse" x1="243.8541" y1="65.2645" x2="293.2271" y2="65.2645" gradientTransform="matrix(1 0 0 -1 0 1160)">
						<stop  offset="2.500000e-03" style="stop-color:#486BED"/>
						<stop  offset="0.1475" style="stop-color:#4359D1"/>
						<stop  offset="0.4233" style="stop-color:#3B3AA2"/>
						<stop  offset="0.6674" style="stop-color:#362480"/>
						<stop  offset="0.8679" style="stop-color:#32166B"/>
						<stop  offset="1" style="stop-color:#311163"/>
					</linearGradient>
					<polygon class="st27" points="258.1,1058.7 269.8,1094.9 243.9,1126.3 261.6,1139.2 292.9,1103 293.2,1100.3 285.8,1050.2 
											"/>
				</g>
			</g>
			<g>
				
					<image style="overflow:visible;opacity:7.000000e-02;enable-background:new    ;" width="88" height="127" xlink:href="12FE1310090AAB41.png"  transform="matrix(0.9886 0 0 0.9886 223.8057 953.6473)">
				</image>
				<g>
					
						<linearGradient id="SVGID_23_" gradientUnits="userSpaceOnUse" x1="234.572" y1="143.4795" x2="299.8216" y2="143.4795" gradientTransform="matrix(1 0 0 -1 0 1160)">
						<stop  offset="2.500000e-03" style="stop-color:#486BED"/>
						<stop  offset="0.1475" style="stop-color:#4359D1"/>
						<stop  offset="0.4233" style="stop-color:#3B3AA2"/>
						<stop  offset="0.6674" style="stop-color:#362480"/>
						<stop  offset="0.8679" style="stop-color:#32166B"/>
						<stop  offset="1" style="stop-color:#311163"/>
					</linearGradient>
					<path class="st28" d="M261.6,964.5l-19.1,5.7c-5.9,1.8-9.2,8-7.5,13.9l11.8,39.6l7.8,26.2l5.6,18.7l39.5-20.6l-3.2-10.7
						l-7.8-26.2l-7.2-23.9C279.9,981.3,277.4,966.1,261.6,964.5z"/>
				</g>
			</g>
			<g>
				
					<image style="overflow:visible;opacity:7.000000e-02;enable-background:new    ;" width="51" height="74" xlink:href="12FE1310090AAB47.png"  transform="matrix(0.9804 0 0 0.9804 250.8057 953.6512)">
				</image>
				<g>
					<path class="st29" d="M289.9,1014.9l-8.3-27.7c-1.8-5.9-4.2-21.1-20-22.7l-0.3,0.1C264.1,971.4,288,1010.9,289.9,1014.9z"/>
				</g>
			</g>
			
				<linearGradient id="SVGID_24_" gradientUnits="userSpaceOnUse" x1="244.199" y1="196.089" x2="260.826" y2="196.089" gradientTransform="matrix(1 0 0 -1 0 1160)">
				<stop  offset="0" style="stop-color:#FEE662"/>
				<stop  offset="1" style="stop-color:#FFBF3F"/>
			</linearGradient>
			<polygon class="st30" points="245.9,969.1 244.2,963.2 259.1,958.8 260.8,964.6 			"/>
			<g>
				
					<image style="overflow:visible;opacity:6.000000e-02;enable-background:new    ;" width="22" height="24" xlink:href="12FE1310090AAB40.png"  transform="matrix(0.9545 0 0 0.9545 258.5128 961.178)">
				</image>
				<g>
					<path class="st29" d="M269.2,980.1c0,0,5.5-3.9,0.7-9.5c0,0,2.5,2.5,5.6,0.8c0,0-5.7-7.1-14.3-6.9L269.2,980.1z"/>
				</g>
			</g>
			<g>
				
					<image style="overflow:visible;opacity:0.12;enable-background:new    ;" width="41" height="66" xlink:href="12FE1310090AAB4E.png"  transform="matrix(0.9756 0 0 0.9756 256.5128 961.4374)">
				</image>
				<g>
					
						<linearGradient id="SVGID_25_" gradientUnits="userSpaceOnUse" x1="259.388" y1="166.4105" x2="292.2391" y2="166.4105" gradientTransform="matrix(1 0 0 -1 0 1160)">
						<stop  offset="2.500000e-03" style="stop-color:#486BED"/>
						<stop  offset="0.1475" style="stop-color:#4359D1"/>
						<stop  offset="0.4233" style="stop-color:#3B3AA2"/>
						<stop  offset="0.6674" style="stop-color:#362480"/>
						<stop  offset="0.8679" style="stop-color:#32166B"/>
						<stop  offset="1" style="stop-color:#311163"/>
					</linearGradient>
					<polygon class="st31" points="261.3,964.6 289.9,1014.9 292.2,1022.6 274.2,1003.3 273.8,993.3 269.7,997.1 259.4,965.1 					
						"/>
				</g>
			</g>
			<path class="st16" d="M177.1,1016.3c1.3,3.2,4.1,5.6,7.5,6.3c1,0.2,1.8,1,1.8,1.9l0,0c0,0.9-1.1,1.7-2.5,1.4
				c-4.5-0.9-8.3-4.1-10-8.4c-0.5-1.3,0-2.5,0.9-2.7l0,0C175.8,1014.7,176.7,1015.4,177.1,1016.3z"/>
			<path class="st16" d="M177.7,1013.7c1.3,3.2,4.1,5.6,7.5,6.3c1,0.2,1.8,1,1.8,1.9l0,0c0,0.9-1.1,1.7-2.5,1.4
				c-4.5-0.9-8.3-4.1-10-8.4c-0.5-1.3,0-2.5,0.9-2.7l0,0C176.5,1012.1,177.4,1012.8,177.7,1013.7z"/>
			<path class="st16" d="M178.9,1011.5c1.3,3.2,4.1,5.6,7.5,6.3c1,0.2,1.8,1,1.8,1.9l0,0c0,0.9-1.1,1.7-2.5,1.4
				c-4.5-0.9-8.3-4.1-10-8.4c-0.5-1.3,0-2.5,0.9-2.7l0,0C177.6,1009.9,178.5,1010.6,178.9,1011.5z"/>
			
				<linearGradient id="SVGID_26_" gradientUnits="userSpaceOnUse" x1="173.4212" y1="140.9136" x2="191.9986" y2="140.9136" gradientTransform="matrix(1 0 0 -1 0 1160)">
				<stop  offset="0" style="stop-color:#FEE662"/>
				<stop  offset="1" style="stop-color:#FFBF3F"/>
			</linearGradient>
			<path class="st32" d="M187,1016.1c-1.2-0.3-2.3-0.2-3.4,0.1c-2-1.1-3.6-2.9-4.4-5.1c-0.4-0.9-1.3-1.6-2.2-1.4
				c-0.8,0.1-1.3,1.1-1.1,2.2c0,0-0.1,0-0.1,0c-0.8,0.1-1.4,1.2-1,2.4c-0.9,0.2-1.4,1.4-0.9,2.7c0.1,0.1,0.1,0.3,0.2,0.4
				c-0.6,0.4-0.9,1.5-0.5,2.5c1.7,4.3,5.5,7.4,10,8.4c0.2,0,0.4,0.1,0.6,0c0,0,0.1,0,0.1,0c3.3,0.7,6.5-1.1,7.2-4l0.4-1.6
				C192.5,1019.8,190.3,1016.8,187,1016.1z"/>
			<g>
				
					<image style="overflow:visible;opacity:0.15;enable-background:new    ;" width="86" height="80" xlink:href="12FE1310090AAB4F.png"  transform="matrix(0.9875 0 0 0.9875 174.8432 964.4257)">
				</image>
				<g>
					
						<linearGradient id="SVGID_27_" gradientUnits="userSpaceOnUse" x1="229.0163" y1="134.935" x2="209.8398" y2="168.1496" gradientTransform="matrix(1 0 0 -1 0 1160)">
						<stop  offset="0" style="stop-color:#311163"/>
						<stop  offset="0.2721" style="stop-color:#392F91"/>
						<stop  offset="0.6042" style="stop-color:#414FC2"/>
						<stop  offset="0.8565" style="stop-color:#4663E1"/>
						<stop  offset="0.9975" style="stop-color:#486BED"/>
					</linearGradient>
					<path class="st33" d="M240.5,975.4c2.9-0.5,7.8,4.1,8.3,9.2c1.6,17.1-6.8,31.1-18.6,39.5c-9.5,6.8-22,9.6-35.5,6.7
						c-2.2-0.5-4.4-1.1-6.6-1.9c-1.4-0.5-2.3-1.6-2.1-2.4c0.7-2.5,0.8-8,1.5-10.5c0.2-0.8,1.3-1,2.3-0.7c1.7,0.6,3.4,1.1,5.1,1.5
						c10.5,2.3,20.2,0.1,27.5-5.2c9.2-6.6,13.4-17.4,12.1-30.7C234.3,977.2,236.5,975.7,240.5,975.4z"/>
				</g>
			</g>
			
				<linearGradient id="SVGID_28_" gradientUnits="userSpaceOnUse" x1="269.8619" y1="164.9895" x2="313.5738" y2="164.9895" gradientTransform="matrix(1 0 0 -1 0 1160)">
				<stop  offset="0" style="stop-color:#FF543C"/>
				<stop  offset="1" style="stop-color:#FF005E"/>
			</linearGradient>
			<path class="st34" d="M299.3,1005.7c-10.1-2.2-13.7-7.3-14.1-8l-0.1-0.5l-2.5-14.8l-1.9-1.8l-0.1-0.3l-1.7-3.1l-0.4-1.5
				c-0.5-1.8-1.5-3.3-2.8-4.5l-5.6-0.8l0.9,6.9c0.2,0.1,0.4,0.2,0.6,0.3c1.6,0.8,3.1,1.3,4.4,1.4l-0.7,5.4L275,985l10.3,18.7
				l0.3,1.2c0.6,1.1,0.9,2,1.8,2.6l0.1,0.2l0-0.2c1.4,0.9,4.3,1.4,11.5,1.5c12.5,0.2,14.5,10.6,14.5,10.6
				C313.6,1017.1,310.2,1008,299.3,1005.7z"/>
		</g>
	</g>
</g>
<g id="Layer_1_1_">
</g>
</svg>
