<?xml version="1.0" encoding="iso-8859-1"?>
<!-- Generator: Adobe Illustrator 19.0.0, SVG Export Plug-In . SVG Version: 6.00 Build 0)  -->
<svg version="1.1" xmlns="http://www.w3.org/2000/svg" xmlns:xlink="http://www.w3.org/1999/xlink" x="0px" y="0px"
	 viewBox="0 0 374.481 592.982" style="enable-background:new 0 0 374.481 592.982;" xml:space="preserve">
<g id="alien">
	<g>
		<g>
			<linearGradient id="SVGID_1_" gradientUnits="userSpaceOnUse" x1="-1.434400e-005" y1="115.1091" x2="46.3335" y2="115.1091">
				<stop  offset="0.0025" style="stop-color:#486BED"/>
				<stop  offset="0.1475" style="stop-color:#4359D1"/>
				<stop  offset="0.4233" style="stop-color:#3B3AA2"/>
				<stop  offset="0.6674" style="stop-color:#362480"/>
				<stop  offset="0.8679" style="stop-color:#32166B"/>
				<stop  offset="1" style="stop-color:#311163"/>
			</linearGradient>
			<path style="fill:url(#SVGID_1_);" d="M21.89,83.402c-0.809-2.34-1.254-4.818-2.355-7.034c-1.105-2.219-3.081-4.221-5.546-4.453
				c-3.976-0.372-6.795,3.72-8.371,7.388c-10.592,24.664-5.914,55.174,11.578,75.534c1.368,1.597,3,3.232,5.09,3.461
				c3.938,0.434,6.467-4.178,6.966-8.108c0.496-3.93,0.313-8.417,3.142-11.192c3.235-3.173,9.03-2.559,12.031-5.954
				c2.302-2.607,2.043-6.521,1.651-9.976c-0.846-7.444,0.534-19.467-6.892-23.721C31.753,95.093,24.975,92.273,21.89,83.402z"/>
			<linearGradient id="SVGID_2_" gradientUnits="userSpaceOnUse" x1="35.6318" y1="296.4911" x2="315.8887" y2="296.4911">
				<stop  offset="0" style="stop-color:#00BFA7"/>
				<stop  offset="0.2168" style="stop-color:#00AAA1"/>
				<stop  offset="0.6614" style="stop-color:#007593"/>
				<stop  offset="1" style="stop-color:#004887"/>
			</linearGradient>
			<path style="fill:url(#SVGID_2_);" d="M219.527,579.149c-5.443-13.047-6.935-27.385-12.253-40.632
				c-6.17-15.371-12.278-30.768-18.201-46.238c-4.66-12.178-12.075-26.665-23.124-34.205
				c-22.786-15.538-32.665,21.146-36.068,36.712c-2.883,13.203-2.571,26.971-4.474,40.327c-2.474,17.396-4.971,43.428-25.315,47.639
				c-5.361,1.108-10.889,1.021-16.362,0.93c-2.865-0.05-5.894-0.145-8.308-1.689c-2.415-1.54-3.789-5.084-2.047-7.361
				c0.828-1.084,2.148-1.649,3.408-2.171c9.359-3.875,23.311-5.973,26.559-16.447c3.891-12.551,1.533-27.695,2.771-40.675
				c1.867-19.521,3.768-39.045,5.185-58.606c2.673-36.88,3.464-73.818,1.25-110.75c-0.163-2.702-0.466-5.686-2.464-7.515
				c-2.681-2.46-7.261-1.45-9.784,1.175c-8.267,8.606-7.013,24.843-9.128,35.916c-1.667,8.711-1.732,17.645-1.56,26.481
				c0.09,4.498,0.255,8.995,0.347,13.495c0.04,1.982-0.274,4.008,0.043,5.958c0.352,2.164,1.222,4.214,2.211,6.155
				c1.372,2.687,3.015,5.253,4.05,8.089c0.537,1.47,3.168,10.95,0.698,11.161c-2.273,0.193-1.402-3.46-1.758-4.627
				c-0.522-1.716-1.739-3.787-2.645-5.34c-0.701-1.205-1.885-3.375-3.639-2.971c-1.97,0.452-1.29,3.701-1.191,5.156
				c0.38,5.529,0.76,11.062,1.142,16.591c0.047,0.694,0.088,1.422-0.19,2.059c-0.28,0.638-0.994,1.142-1.659,0.943
				c-0.855-0.253-1.05-1.356-1.092-2.244c-0.225-4.869-0.45-9.738-0.675-14.606c-0.053-1.151-0.241-4.268-2.036-4.145
				c-1.72,0.117-1.014,3.457-0.942,4.555c0.379,5.889,0.757,11.779,1.137,17.666c0.05,0.77,0.096,1.567-0.174,2.288
				c-0.267,0.723-0.942,1.357-1.712,1.321c-1.111-0.051-1.7-1.32-1.946-2.402c-0.972-4.341-0.301-8.853,0.091-13.284
				c0.257-2.903,0.383-5.871-0.158-8.753c-0.286-1.532-1.011-6.486-2.499-2.758c-1.253,3.149-0.491,7.966-0.584,11.327
				c-0.019,0.662-0.041,1.346-0.319,1.947c-0.281,0.602-0.887,1.101-1.548,1.043c-0.639-0.056-1.142-0.624-1.328-1.238
				c-0.189-0.614-0.124-1.275-0.059-1.915c0.663-6.537,0.68-13.053,0.68-19.636c0.035-2.531,0.086-5.064,0.103-7.596
				c0.012-1.829-0.598-3.374-0.724-5.176c-0.702-9.947,0.035-20.025,0.795-29.946c0.214-2.81,0.498-5.617,0.658-8.431
				c0.942-16.264,1.142-32.602,1.689-48.883c0.336-9.954,0.777-20.32,5.529-29.071c5.73-10.551,17.047-17.147,28.728-19.935
				c8.071-1.929,16.757,2.555,25.079,1.654c11.421-1.244,10.606-9.743,10.571-19.245c-0.036-9.05-3.369-17.877-10.07-24.142
				c-4.798-4.489-10.853-7.347-16.715-10.316c-32.303-16.366-64.517-36.046-77.517-71.617C15.1,81.625,78.149,21.254,145.058,4.567
				c29.866-7.445,60.327-5.867,88.997,5.319c61.866,24.136,106.336,112.217,66.949,171.953
				c-10.107,15.332-25.079,27.337-42.099,34.17c-17.823,7.153-37.379,8.994-54.979,16.827c-8.237,3.667-16.248,8.678-21.185,16.443
				c-4.817,7.58-11.369,25.475-0.153,30.656c9.803,4.525,24.05-8.384,33.04-11.438c11.081-3.759,24.33-5.398,33.631,1.696
				c11.415,8.709,11.837,26.64,12.998,39.772c1.874,21.174,3.746,42.35,5.621,63.525c1.256,14.189,1.187,28.463,0.613,42.687
				c-0.093,2.318-0.096,4.639-0.208,6.954c-0.159,3.353-0.209,6.772-1.521,9.855c-1.237,2.9-0.922,6.326-0.213,9.311
				c0.819,3.445,2.228,6.736,2.865,10.219c0.119,0.649,0.21,1.327,0.041,1.969c-0.168,0.639-0.656,1.239-1.307,1.347
				c-0.66,0.108-1.317-0.302-1.695-0.854c-0.374-0.549-0.531-1.215-0.677-1.869c-0.663-2.917-1.323-5.836-1.985-8.753
				c-0.328-1.451-1.176-3.771-2.901-2.391c-1.389,1.109-1.687,3.581-1.794,5.192c-0.557,8.396-1.115,16.793-1.672,25.189
				c-1.005,0.531-2.304-0.17-2.825-1.18c-0.521-1.008-0.477-2.201-0.423-3.337c0.355-7.245,0.714-14.492,1.069-21.74
				c0.06-1.209,0.13-4.362-1.818-3.917c-1.459,0.333-1.931,2.868-2.166,4.036c-0.903,4.52-1.809,9.037-2.714,13.558
				c-0.13,0.664-0.271,1.342-0.637,1.915c-0.364,0.567-1.012,1.009-1.685,0.93c-0.749-0.088-1.301-0.8-1.455-1.539
				c-0.156-0.738,0.001-1.501,0.16-2.24c1.477-6.933,3.022-13.858,4.442-20.804c0.423-2.069,0.527-3.871-1.558-5.02
				c-2.796-1.546-5.121,0.797-5.571,3.532c-0.267,1.633-0.03,3.303,0.006,4.961c0.083,3.372-0.67,6.758-2.167,9.778
				c-0.564,0.124-1.138-0.281-1.399-0.797c-0.26-0.515-0.282-1.117-0.3-1.693c-0.078-2.795-0.157-5.587-0.232-8.381
				c-0.059-2.018-0.106-4.092,0.572-5.994c0.651-1.831,1.924-3.362,3.174-4.849c1.405-1.673,2.809-3.345,4.215-5.02
				c1.035-1.234,2.167-2.241,2.473-3.828c0.69-3.59,0.995-7.382,1.374-11.024c0.797-7.685,1.111-15.42,0.941-23.144
				c-0.42-19.045-3.762-38.13-10.581-55.951c-2.958-7.733-12.048-16.612-20.39-9.522c-5.481,4.661-6.519,15.153-6.049,21.791
				c1.682,23.647,3.359,47.292,5.038,70.938c1.739,24.455,4.598,48.811,8.218,73.056c2.573,17.227,7.263,34.056,10.019,51.249
				c1.128,7.039,1.003,14.049,4.73,20.375c4.971,8.443,25.268,15.362,16.017,27.944
				C248.677,598.978,224.811,591.808,219.527,579.149z"/>
			<linearGradient id="SVGID_3_" gradientUnits="userSpaceOnUse" x1="64.1686" y1="114.283" x2="267.328" y2="114.283">
				<stop  offset="0" style="stop-color:#FEE662"/>
				<stop  offset="0.1846" style="stop-color:#FED15D"/>
				<stop  offset="0.5658" style="stop-color:#FF9B50"/>
				<stop  offset="1" style="stop-color:#FF5740"/>
			</linearGradient>
			<path style="fill:url(#SVGID_3_);" d="M101.021,70.145c12.94-5.162,27.136-8.134,40.092-10.104
				c22.417-3.41,45.433-2.922,67.662,1.58c15.438,3.128,30.957,8.411,42.684,18.93c12.547,11.255,20.008,29.971,13.423,46.457
				c-6.406,16.039-22.861,25.134-38.349,30.568c-21.133,7.418-45.156,12.457-67.504,13.116c-1.329,0.04-2.656,0.06-3.984,0.06
				c-17.082-0.01-33.845-4.023-49.994-9.306c-8.823-2.891-17.834-5.881-25.192-11.54c-11.671-8.974-16.852-24.277-15.471-38.652
				C66.422,90.067,82.517,77.529,101.021,70.145z"/>
			<linearGradient id="SVGID_4_" gradientUnits="userSpaceOnUse" x1="66.2562" y1="110.7074" x2="263.3735" y2="110.7074">
				<stop  offset="0" style="stop-color:#FF543C"/>
				<stop  offset="0.1039" style="stop-color:#FF4B40"/>
				<stop  offset="0.2718" style="stop-color:#FF3349"/>
				<stop  offset="0.4817" style="stop-color:#FF0D59"/>
				<stop  offset="0.5433" style="stop-color:#FF005E"/>
				<stop  offset="0.6695" style="stop-color:#C7045F"/>
				<stop  offset="0.895" style="stop-color:#680A60"/>
				<stop  offset="0.9967" style="stop-color:#420C60"/>
			</linearGradient>
			<path style="fill:url(#SVGID_4_);" d="M109.392,153.473c-1.906-0.598-3.809-1.201-5.688-1.868
				c-10.073-3.56-20.037-8.182-27.67-15.656c-12.83-12.558-12.468-29.109-2.216-41.752c1.765-2.174,3.818-4.233,6.149-6.135
				c7.64-6.239,16.362-10.562,25.646-13.644c-1.428,2.163-2.743,4.435-3.879,6.871C91.013,104.344,94.583,133.035,109.392,153.473z
				 M250.745,84.66c-10.319-9.243-23.4-14.214-37.139-16.718c3.491,3.363,6.589,7.119,9.142,11.296
				c13.486,22.063,11.591,51.859-2.759,73.154c1.903-0.635,3.804-1.274,5.686-1.974c16.442-6.121,36.422-17.971,37.647-37.975
				C263.961,101.944,258.582,91.678,250.745,84.66z"/>
			<linearGradient id="SVGID_5_" gradientUnits="userSpaceOnUse" x1="95.5303" y1="113.657" x2="231.8804" y2="113.657">
				<stop  offset="0" style="stop-color:#FEE662"/>
				<stop  offset="0.1846" style="stop-color:#FED15D"/>
				<stop  offset="0.5658" style="stop-color:#FF9B50"/>
				<stop  offset="1" style="stop-color:#FF5740"/>
			</linearGradient>
			<path style="fill:url(#SVGID_5_);" d="M222.748,79.237c-2.553-4.177-5.651-7.933-9.142-11.296
				c-12.716-2.32-25.995-2.533-38.186-1.986c-22.208,0.995-47.649,1.107-69.807,8.461c-1.428,2.163-2.743,4.435-3.879,6.871
				c-10.721,23.056-7.151,51.747,7.658,72.185c35.743,11.249,75.042,10.782,110.597-1.081
				C234.34,131.097,236.235,101.3,222.748,79.237z"/>
			<linearGradient id="SVGID_6_" gradientUnits="userSpaceOnUse" x1="125.4653" y1="107.7685" x2="191.7962" y2="107.7685">
				<stop  offset="0" style="stop-color:#FF543C"/>
				<stop  offset="0.1039" style="stop-color:#FF4B40"/>
				<stop  offset="0.2718" style="stop-color:#FF3349"/>
				<stop  offset="0.4817" style="stop-color:#FF0D59"/>
				<stop  offset="0.5433" style="stop-color:#FF005E"/>
				<stop  offset="0.6695" style="stop-color:#C7045F"/>
				<stop  offset="0.895" style="stop-color:#680A60"/>
				<stop  offset="0.9967" style="stop-color:#420C60"/>
			</linearGradient>
			<path style="fill:url(#SVGID_6_);" d="M130.268,95.201c-13.457,19.869,3.451,41.108,24.916,42.881
				c25.674,2.121,48.736-29.603,29.471-50.991C168.64,69.309,141.785,78.197,130.268,95.201z"/>
			<linearGradient id="SVGID_7_" gradientUnits="userSpaceOnUse" x1="148.7521" y1="109.6517" x2="160.8345" y2="109.6517">
				<stop  offset="0" style="stop-color:#FEE662"/>
				<stop  offset="0.1846" style="stop-color:#FED15D"/>
				<stop  offset="0.5658" style="stop-color:#FF9B50"/>
				<stop  offset="1" style="stop-color:#FF5740"/>
			</linearGradient>
			<path style="fill:url(#SVGID_7_);" d="M156.376,133.975c-0.581-1.008,2.654-8.797,2.975-10.343
				c0.722-3.518,1.183-7.091,1.377-10.678c0.398-7.363-0.32-14.789-2.15-21.932c-0.607-2.36-0.935-5.872-4.075-5.686
				c-2.97,0.176-3.551,3.473-4.104,5.762c-1.638,6.752-2.049,13.792-1.258,20.691C150.036,119.569,152.461,127.186,156.376,133.975z
				"/>
			<linearGradient id="SVGID_8_" gradientUnits="userSpaceOnUse" x1="284.436" y1="108.336" x2="374.4806" y2="108.336">
				<stop  offset="0.0025" style="stop-color:#486BED"/>
				<stop  offset="0.1475" style="stop-color:#4359D1"/>
				<stop  offset="0.4233" style="stop-color:#3B3AA2"/>
				<stop  offset="0.6674" style="stop-color:#362480"/>
				<stop  offset="0.8679" style="stop-color:#32166B"/>
				<stop  offset="1" style="stop-color:#311163"/>
			</linearGradient>
			<path style="fill:url(#SVGID_8_);" d="M341.845,149.603c-10.826-8.634-23.972-14.328-37.672-16.323
				c-3.735-0.542-7.611-0.849-10.949-2.607c-5.798-3.051-8.705-9.977-8.786-16.531c-0.082-6.551,2.382-13.298,4.602-19.466
				c18.174-5.41,35.147-14.815,49.372-27.355c3.42-3.015,7.536-8.161,11.975-9.206c4.436-1.047,9.336,0.101,12.848,3.009
				c3.338,2.763,5.297,6.832,6.784,10.898c9.254,25.324,3.297,54.349-10.385,77.58c-1.632,2.765-3.43,5.54-6.044,7.404
				c-2.612,1.864-6.235,2.642-9.073,1.138C341.681,156.643,339.752,152.039,341.845,149.603z"/>
			<path style="fill:#161743;" d="M345.142,105.122c1.461,3.663,3.59,7.278,3.393,11.215c-0.139,2.774-1.428,5.335-2.42,7.927
				c-1.884,4.931-2.741,10.251-2.5,15.523c0.155,3.43,1.215,7.413,4.417,8.651c2.216,0.857,4.805,0.017,6.608-1.527
				c1.803-1.545,2.97-3.689,4.029-5.818c9.404-18.911,13.34-40.505,11.209-61.522c-0.577-5.697-2.461-12.075-8.608-14.026
				c-5.618-1.782-9.784,3.364-12.525,7.582C342.689,82.438,340.995,94.72,345.142,105.122z"/>
			<g>
				<g>
					<linearGradient id="SVGID_9_" gradientUnits="userSpaceOnUse" x1="165.7167" y1="82.2906" x2="174.7055" y2="82.2906">
						<stop  offset="0" style="stop-color:#FEE662"/>
						<stop  offset="0.1846" style="stop-color:#FED15D"/>
						<stop  offset="0.5658" style="stop-color:#FF9B50"/>
						<stop  offset="1" style="stop-color:#FF5740"/>
					</linearGradient>
					<path style="fill:url(#SVGID_9_);" d="M170.551,83.408c0.897-0.332,1.808-0.67,2.585-1.227c0.781-0.557,1.424-1.367,1.57-2.314
						c-0.18,1.168-7.834,3.637-8.989,4.498C166.937,85.389,169.283,83.878,170.551,83.408z"/>
					<linearGradient id="SVGID_10_" gradientUnits="userSpaceOnUse" x1="168.4408" y1="89.5508" x2="181.1107" y2="89.5508">
						<stop  offset="0" style="stop-color:#FEE662"/>
						<stop  offset="0.1846" style="stop-color:#FED15D"/>
						<stop  offset="0.5658" style="stop-color:#FF9B50"/>
						<stop  offset="1" style="stop-color:#FF5740"/>
					</linearGradient>
					<path style="fill:url(#SVGID_10_);" d="M168.441,90.255c1.366,3.068,10.777-1.352,12.67-2.473
						c-1.281,0.757-4.915,0.337-6.51,0.635C172.656,88.786,170.092,89.162,168.441,90.255z"/>
					<linearGradient id="SVGID_11_" gradientUnits="userSpaceOnUse" x1="169.6468" y1="102.4245" x2="189.6523" y2="102.4245">
						<stop  offset="0" style="stop-color:#FEE662"/>
						<stop  offset="0.1846" style="stop-color:#FED15D"/>
						<stop  offset="0.5658" style="stop-color:#FF9B50"/>
						<stop  offset="1" style="stop-color:#FF5740"/>
					</linearGradient>
					<path style="fill:url(#SVGID_11_);" d="M169.702,103.011c0.776,2.124,7.721,0.938,9.5,0.722
						c1.795-0.224,3.572-0.567,5.32-1.026c1.212-0.323,3.99-1.903,5.13-1.747C187.342,100.642,168.497,99.702,169.702,103.011z"/>
					<linearGradient id="SVGID_12_" gradientUnits="userSpaceOnUse" x1="168.4035" y1="114.6635" x2="185.8405" y2="114.6635">
						<stop  offset="0" style="stop-color:#FEE662"/>
						<stop  offset="0.1846" style="stop-color:#FED15D"/>
						<stop  offset="0.5658" style="stop-color:#FF9B50"/>
						<stop  offset="1" style="stop-color:#FF5740"/>
					</linearGradient>
					<path style="fill:url(#SVGID_12_);" d="M184.51,114.416c-1.958-0.579-16.154-3.69-16.106-0.691
						c0.057,3.504,13.362,3.283,15.675,3.042c0.808-0.082,1.85-0.481,1.756-1.288C185.763,114.884,185.086,114.585,184.51,114.416z"
						/>
					<linearGradient id="SVGID_13_" gradientUnits="userSpaceOnUse" x1="165.0531" y1="125.9876" x2="177.5178" y2="125.9876">
						<stop  offset="0" style="stop-color:#FEE662"/>
						<stop  offset="0.1846" style="stop-color:#FED15D"/>
						<stop  offset="0.5658" style="stop-color:#FF9B50"/>
						<stop  offset="1" style="stop-color:#FF5740"/>
					</linearGradient>
					<path style="fill:url(#SVGID_13_);" d="M174.381,125.478c-1.737-0.498-8.042-3.249-9.328-2.165
						c1.798,1.501,4.106,2.625,6.107,3.861c0.963,0.6,1.942,1.204,3.03,1.522c1.089,0.318,2.318,0.322,3.298-0.246
						c0.153-0.776-0.304-1.571-0.933-2.049C175.922,125.921,175.142,125.694,174.381,125.478z"/>
					<linearGradient id="SVGID_14_" gradientUnits="userSpaceOnUse" x1="141.8666" y1="126.6327" x2="149.5334" y2="126.6327">
						<stop  offset="0" style="stop-color:#FEE662"/>
						<stop  offset="0.1846" style="stop-color:#FED15D"/>
						<stop  offset="0.5658" style="stop-color:#FF9B50"/>
						<stop  offset="1" style="stop-color:#FF5740"/>
					</linearGradient>
					<path style="fill:url(#SVGID_14_);" d="M141.904,128.472c2.471-0.578,5.12-3.534,7.629-3.679
						C147.861,124.906,141.315,125.898,141.904,128.472z"/>
					<linearGradient id="SVGID_15_" gradientUnits="userSpaceOnUse" x1="131.4077" y1="119.8277" x2="148.7204" y2="119.8277">
						<stop  offset="0" style="stop-color:#FEE662"/>
						<stop  offset="0.1846" style="stop-color:#FED15D"/>
						<stop  offset="0.5658" style="stop-color:#FF9B50"/>
						<stop  offset="1" style="stop-color:#FF5740"/>
					</linearGradient>
					<path style="fill:url(#SVGID_15_);" d="M148.247,119.074c0.436-0.386,0.648-1.095,0.298-1.562
						c-0.414-0.558-1.263-0.446-1.935-0.275c-4.351,1.095-8.717,2.206-13.08,3.139c-1.442,0.308-3.479,1.618-0.856,2.095
						c2.057,0.372,4.721-0.556,6.706-1.023c2.425-0.568,4.848-1.139,7.274-1.711C147.219,119.605,147.811,119.461,148.247,119.074z"
						/>
					<linearGradient id="SVGID_16_" gradientUnits="userSpaceOnUse" x1="129.2391" y1="111.812" x2="147.3428" y2="111.812">
						<stop  offset="0" style="stop-color:#FEE662"/>
						<stop  offset="0.1846" style="stop-color:#FED15D"/>
						<stop  offset="0.5658" style="stop-color:#FF9B50"/>
						<stop  offset="1" style="stop-color:#FF5740"/>
					</linearGradient>
					<path style="fill:url(#SVGID_16_);" d="M137.507,113.134c2.902-0.225,5.786-0.674,8.62-1.345
						c0.62-0.147,1.403-0.599,1.176-1.19c-0.161-0.414-0.706-0.492-1.149-0.495c-2.956-0.035-5.918,0.172-8.842,0.61
						c-2.107,0.314-6.597,0.545-8.072,2.057C130.154,114.131,135.884,113.258,137.507,113.134z"/>
					<linearGradient id="SVGID_17_" gradientUnits="userSpaceOnUse" x1="133.1686" y1="104.0104" x2="147.194" y2="104.0104">
						<stop  offset="0" style="stop-color:#FEE662"/>
						<stop  offset="0.1846" style="stop-color:#FED15D"/>
						<stop  offset="0.5658" style="stop-color:#FF9B50"/>
						<stop  offset="1" style="stop-color:#FF5740"/>
					</linearGradient>
					<path style="fill:url(#SVGID_17_);" d="M146.306,105.404c0.291-0.057,0.604-0.144,0.776-0.388
						c0.251-0.353,0.052-0.881-0.3-1.13c-0.353-0.251-0.808-0.301-1.239-0.343c-1.935-0.185-11.611-2.152-12.374-0.451
						c1.12,0.44,2.318,0.731,3.474,1.075C139.789,105.103,143.09,106.05,146.306,105.404z"/>
					<linearGradient id="SVGID_18_" gradientUnits="userSpaceOnUse" x1="137.5184" y1="96.891" x2="146.9975" y2="96.891">
						<stop  offset="0" style="stop-color:#FEE662"/>
						<stop  offset="0.1846" style="stop-color:#FED15D"/>
						<stop  offset="0.5658" style="stop-color:#FF9B50"/>
						<stop  offset="1" style="stop-color:#FF5740"/>
					</linearGradient>
					<path style="fill:url(#SVGID_18_);" d="M144.274,99.002c0.558,0.205,1.158,0.383,1.734,0.247
						c0.577-0.133,1.094-0.695,0.972-1.275c-0.131-0.604-0.81-0.884-1.398-1.066c-2.544-0.795-5.442-2.167-8.063-2.424
						C139.052,96.593,141.872,98.116,144.274,99.002z"/>
					<linearGradient id="SVGID_19_" gradientUnits="userSpaceOnUse" x1="144.9078" y1="89.3331" x2="148.8648" y2="89.3331">
						<stop  offset="0" style="stop-color:#FEE662"/>
						<stop  offset="0.1846" style="stop-color:#FED15D"/>
						<stop  offset="0.5658" style="stop-color:#FF9B50"/>
						<stop  offset="1" style="stop-color:#FF5740"/>
					</linearGradient>
					<path style="fill:url(#SVGID_19_);" d="M148.865,91.567c-0.313-2.083-1.934-3.889-3.957-4.468
						C145.635,89.001,147.055,90.631,148.865,91.567z"/>
					<linearGradient id="SVGID_20_" gradientUnits="userSpaceOnUse" x1="144.7749" y1="86.9898" x2="144.9078" y2="86.9898">
						<stop  offset="0" style="stop-color:#FEE662"/>
						<stop  offset="0.1846" style="stop-color:#FED15D"/>
						<stop  offset="0.5658" style="stop-color:#FF9B50"/>
						<stop  offset="1" style="stop-color:#FF5740"/>
					</linearGradient>
					<path style="fill:url(#SVGID_20_);" d="M144.807,86.88l-0.032,0.16c0.05,0.012,0.089,0.045,0.133,0.059
						C144.881,87.025,144.834,86.955,144.807,86.88z"/>
				</g>
			</g>
			<linearGradient id="SVGID_21_" gradientUnits="userSpaceOnUse" x1="128.202" y1="394.2585" x2="199.3329" y2="394.2585">
				<stop  offset="0" style="stop-color:#FEE662"/>
				<stop  offset="0.1846" style="stop-color:#FED15D"/>
				<stop  offset="0.5658" style="stop-color:#FF9B50"/>
				<stop  offset="1" style="stop-color:#FF5740"/>
			</linearGradient>
			<path style="fill:url(#SVGID_21_);" d="M135.534,430.909c-6.276-6.236-7.709-15.347-7.254-23.833
				c0.628-11.737,1.715-24.084,6.203-35.164c4.451-10.986,14.584-19.842,26.466-21.591c12.818-1.884,23.184,6.117,29.268,16.772
				c4.609,8.068,6.667,17.149,7.785,26.291c1.031,8.438,2.215,17.282,0.353,25.689c-4.214,19.037-29.092,20.218-44.677,19.101
				c-6.206-0.447-12.265-2.042-17.037-6.236C136.254,431.603,135.885,431.257,135.534,430.909z"/>
			<linearGradient id="SVGID_22_" gradientUnits="userSpaceOnUse" x1="136.5765" y1="397.5419" x2="190.3311" y2="397.5419">
				<stop  offset="0.0025" style="stop-color:#486BED"/>
				<stop  offset="0.1475" style="stop-color:#4359D1"/>
				<stop  offset="0.4233" style="stop-color:#3B3AA2"/>
				<stop  offset="0.6674" style="stop-color:#362480"/>
				<stop  offset="0.8679" style="stop-color:#32166B"/>
				<stop  offset="1" style="stop-color:#311163"/>
			</linearGradient>
			<path style="fill:url(#SVGID_22_);" d="M139.107,386.646c-4.246,14.571-3.983,32.078,7.33,41.38
				c6.245,5.136,15.567,5.318,23.114,3.666c15.694-3.434,23.216-19.095,20.081-34.112c-2.073-9.921-4.956-20.466-11.85-28.198
				c-8.185-9.179-22.189-9.287-30.243,0.046C143.343,374.293,140.883,380.554,139.107,386.646z"/>
		</g>
		<g>
			<linearGradient id="SVGID_23_" gradientUnits="userSpaceOnUse" x1="135.5882" y1="200.4963" x2="187.6438" y2="200.4963">
				<stop  offset="0.0025" style="stop-color:#486BED"/>
				<stop  offset="0.1475" style="stop-color:#4359D1"/>
				<stop  offset="0.4233" style="stop-color:#3B3AA2"/>
				<stop  offset="0.6674" style="stop-color:#362480"/>
				<stop  offset="0.8679" style="stop-color:#32166B"/>
				<stop  offset="1" style="stop-color:#311163"/>
			</linearGradient>
			<path style="fill-rule:evenodd;clip-rule:evenodd;fill:url(#SVGID_23_);" d="M187.64,200.423
				c-0.188,2.271-6.721,4.196-12.943,5.542c-6.437,1.677-12.839,2.784-12.839,2.784s-6.745-0.83-13.364-2.238
				c-6.831-1.934-13.221-4.45-12.893-6.703c0.329-2.253,6.924-3.898,13.072-4.969c6.393-1.588,12.66-2.597,12.66-2.597
				s6.619,0.737,13.203,2.048C181.34,195.929,187.828,198.155,187.64,200.423z"/>
		</g>
	</g>
</g>
<g id="Layer_1">
</g>
</svg>
