<?xml version="1.0" encoding="iso-8859-1"?>
<!-- Generator: Adobe Illustrator 19.0.0, SVG Export Plug-In . SVG Version: 6.00 Build 0)  -->
<svg version="1.1" xmlns="http://www.w3.org/2000/svg" xmlns:xlink="http://www.w3.org/1999/xlink" x="0px" y="0px"
	 viewBox="0 0 714.174 484.047" style="enable-background:new 0 0 714.174 484.047;" xml:space="preserve">
<g id="orangeplanet">
	<g>
		<g>
			<g>
				
					<linearGradient id="SVGID_1_" gradientUnits="userSpaceOnUse" x1="1764.312" y1="883.9825" x2="1352.6714" y2="398.1115" gradientTransform="matrix(0.9464 -0.3229 0.3229 0.9464 -1307.6183 170.6688)">
					<stop  offset="0.3186" style="stop-color:#FFBB94;stop-opacity:0.7"/>
					<stop  offset="0.9167" style="stop-color:#ED1E79;stop-opacity:0"/>
				</linearGradient>
				<path style="fill:url(#SVGID_1_);" d="M430.771,472.337c-113.924,38.866-238.229-22.198-277.093-136.122
					C114.812,222.293,175.876,97.99,289.799,59.124c113.922-38.866,238.227,22.196,277.093,136.12
					C605.758,309.167,544.694,433.471,430.771,472.337z"/>
				
					<linearGradient id="SVGID_2_" gradientUnits="userSpaceOnUse" x1="1473.5276" y1="534.8356" x2="1725.2963" y2="852.0641" gradientTransform="matrix(0.9464 -0.3229 0.3229 0.9464 -1307.6183 170.6688)">
					<stop  offset="0.0882" style="stop-color:#ED1E79"/>
					<stop  offset="0.6863" style="stop-color:#ED1E79"/>
				</linearGradient>
				<circle style="fill:url(#SVGID_2_);" cx="360.284" cy="265.73" r="198.056"/>
				
					<linearGradient id="SVGID_3_" gradientUnits="userSpaceOnUse" x1="1473.5276" y1="534.8356" x2="1725.2963" y2="852.0641" gradientTransform="matrix(0.9464 -0.3229 0.3229 0.9464 -1307.6183 170.6688)">
					<stop  offset="0" style="stop-color:#FF543C"/>
					<stop  offset="0.1039" style="stop-color:#FF4B40"/>
					<stop  offset="0.2718" style="stop-color:#FF3349"/>
					<stop  offset="0.4817" style="stop-color:#FF0D59"/>
					<stop  offset="0.5433" style="stop-color:#FF005E"/>
					<stop  offset="0.6695" style="stop-color:#C7045F"/>
					<stop  offset="0.895" style="stop-color:#680A60"/>
					<stop  offset="0.9967" style="stop-color:#420C60"/>
				</linearGradient>
				<circle style="fill:url(#SVGID_3_);" cx="360.284" cy="265.73" r="198.056"/>
				
					<linearGradient id="SVGID_4_" gradientUnits="userSpaceOnUse" x1="1713.7692" y1="449.1435" x2="1371.8452" y2="632.033" gradientTransform="matrix(0.9464 -0.3229 0.3229 0.9464 -1307.6183 170.6688)">
					<stop  offset="0" style="stop-color:#FFECA6;stop-opacity:0"/>
					<stop  offset="1" style="stop-color:#FFECA6;stop-opacity:0.4"/>
				</linearGradient>
				<path style="fill:url(#SVGID_4_);" d="M458.455,93.729c-47.603-27.143-106.177-34.533-162.121-15.445
					c-103.522,35.319-158.815,147.87-123.498,251.396c4.745,13.908,10.897,26.939,18.224,39.006
					c54.405,7.348,122.21-14.065,179.893-62.037C446.246,244.033,480.214,156.215,458.455,93.729z"/>
				
					<linearGradient id="SVGID_5_" gradientUnits="userSpaceOnUse" x1="1630.941" y1="429.3935" x2="1403.8368" y2="550.8678" gradientTransform="matrix(0.9464 -0.3229 0.3229 0.9464 -1307.6183 170.6688)">
					<stop  offset="0" style="stop-color:#FFECA6;stop-opacity:0"/>
					<stop  offset="1" style="stop-color:#FFECA6;stop-opacity:0.4"/>
				</linearGradient>
				<path style="fill:url(#SVGID_5_);" d="M164.258,237.187c30.509,26.39,92.338,15.36,143.369-27.075
					c54.31-45.167,75.86-108.843,48.29-142.432c-19.79,0.442-39.851,3.871-59.583,10.604
					C223.6,103.097,174.675,166.037,164.258,237.187z"/>
				
					<linearGradient id="SVGID_6_" gradientUnits="userSpaceOnUse" x1="1753.7106" y1="681.8177" x2="1511.5333" y2="811.3544" gradientTransform="matrix(0.9464 -0.3229 0.3229 0.9464 -1307.6183 170.6688)">
					<stop  offset="0" style="stop-color:#300D5D"/>
					<stop  offset="0.9975" style="stop-color:#CB1B5E"/>
				</linearGradient>
				<path style="fill:url(#SVGID_6_);" d="M558.225,273.54c-9.058-6.412-20.279-5.718-31.972,14.712
					c-26.95,47.088-43.865,43.84-115.694,71.555c-54.128,20.883-73.85,73.151-46.542,103.983
					c19.997-0.382,40.272-3.81,60.216-10.613C503.963,425.978,555.074,352.961,558.225,273.54z"/>
				
					<linearGradient id="SVGID_7_" gradientUnits="userSpaceOnUse" x1="1547.0704" y1="594.3575" x2="1462.4221" y2="432.997" gradientTransform="matrix(0.9464 -0.3229 0.3229 0.9464 -1307.6183 170.6688)">
					<stop  offset="0" style="stop-color:#FFECA6;stop-opacity:0"/>
					<stop  offset="0.7402" style="stop-color:#FFECA6;stop-opacity:0.4"/>
				</linearGradient>
				<path style="fill:url(#SVGID_7_);" d="M291.542,64.233c-96.396,32.886-153.97,128.496-142.775,225.796
					c57.953,38.289,166.388,2.366,207.349-71.003c33.37-59.774,53.125-114.884,72.995-154.663
					C386.017,49.582,337.899,48.417,291.542,64.233z"/>
			</g>
			
				<linearGradient id="SVGID_8_" gradientUnits="userSpaceOnUse" x1="1409.9781" y1="402.2065" x2="1337.4392" y2="589.2211" gradientTransform="matrix(0.9815 -0.1913 0.1913 0.9815 -1100.8785 104.2504)">
				<stop  offset="0" style="stop-color:#311163"/>
				<stop  offset="0.1321" style="stop-color:#32166B"/>
				<stop  offset="0.3326" style="stop-color:#362480"/>
				<stop  offset="0.5767" style="stop-color:#3B3AA2"/>
				<stop  offset="0.8525" style="stop-color:#4359D1"/>
				<stop  offset="0.9975" style="stop-color:#486BED"/>
			</linearGradient>
			<path style="fill:url(#SVGID_8_);" d="M616.687,161.917c-2.896-8.486-27.343-8.843-65.757-2.564
				c0.638,1.145,1.259,2.304,1.878,3.464c31.539-5.321,51.213-5.349,53.422,1.124c5.576,16.345-102.084,67.864-240.461,115.072
				c-138.38,47.209-255.076,72.23-260.652,55.888c-2.165-6.346,12.768-18.004,39.938-32.653c-0.22-1.293-0.441-2.586-0.637-3.88
				c-33.207,18.104-51.664,32.971-48.814,41.321c6.702,19.645,128.785-4.222,272.676-53.313
				C512.174,237.287,623.39,181.562,616.687,161.917z"/>
			
				<linearGradient id="SVGID_9_" gradientUnits="userSpaceOnUse" x1="1361.5394" y1="347.8018" x2="1475.4939" y2="563.8543" gradientTransform="matrix(0.9815 -0.1913 0.1913 0.9815 -1100.8785 104.2504)">
				<stop  offset="0.0025" style="stop-color:#486BED"/>
				<stop  offset="0.1475" style="stop-color:#4359D1"/>
				<stop  offset="0.4233" style="stop-color:#3B3AA2"/>
				<stop  offset="0.6674" style="stop-color:#362480"/>
				<stop  offset="0.8679" style="stop-color:#32166B"/>
				<stop  offset="1" style="stop-color:#311163"/>
			</linearGradient>
			<path style="fill:url(#SVGID_9_);" d="M713.736,131.888c-6.066-17.774-74.211-12.012-172.763,11.326
				c1.549,2.283,3.066,4.592,4.534,6.944c69.673-15.103,116.165-18.036,120.578-5.097c7.974,23.372-124.328,89.662-295.502,148.061
				c-171.176,58.398-316.405,86.789-324.379,63.419c-4.375-12.825,33.506-38.577,96.865-68.857c-0.28-2.771-0.491-5.539-0.664-8.305
				C51.132,320.828-5.589,357.57,0.437,375.237c9.67,28.343,177.187-3.154,374.158-70.352
				C571.567,237.686,723.405,160.232,713.736,131.888z"/>
		</g>
		<linearGradient id="SVGID_10_" gradientUnits="userSpaceOnUse" x1="531.1573" y1="20.8602" x2="581.4873" y2="84.276">
			<stop  offset="0" style="stop-color:#FF543C;stop-opacity:0"/>
			<stop  offset="1" style="stop-color:#FF543C"/>
		</linearGradient>
		<circle style="fill:url(#SVGID_10_);" cx="546.025" cy="39.594" r="39.593"/>
		<linearGradient id="SVGID_11_" gradientUnits="userSpaceOnUse" x1="640.8511" y1="284.9141" x2="620.8697" y2="252.7218">
			<stop  offset="0.0025" style="stop-color:#CB1B5E"/>
			<stop  offset="1" style="stop-color:#CB1B5E;stop-opacity:0"/>
		</linearGradient>
		<circle style="opacity:0.56;fill:url(#SVGID_11_);" cx="634.658" cy="274.936" r="18.872"/>
		<linearGradient id="SVGID_12_" gradientUnits="userSpaceOnUse" x1="128.2219" y1="419.9307" x2="168.7942" y2="470.0333">
			<stop  offset="2.288818e-007" style="stop-color:#004887;stop-opacity:0"/>
			<stop  offset="0.3387" style="stop-color:#007593;stop-opacity:0.3387"/>
			<stop  offset="0.7832" style="stop-color:#00AAA1;stop-opacity:0.7832"/>
			<stop  offset="1" style="stop-color:#00BFA7"/>
		</linearGradient>
		<path style="fill:url(#SVGID_12_);" d="M130.821,464.058h15.865c13.897-3.532,24.177-16.126,24.177-31.121
			c0-17.733-14.376-32.11-32.109-32.11c-17.734,0-32.11,14.377-32.11,32.11C106.644,447.933,116.924,460.526,130.821,464.058z"/>
	</g>
</g>
<g id="Layer_1">
</g>
</svg>
