<?xml version="1.0" encoding="iso-8859-1"?>
<!-- Generator: Adobe Illustrator 19.0.0, SVG Export Plug-In . SVG Version: 6.00 Build 0)  -->
<svg version="1.1" xmlns="http://www.w3.org/2000/svg" xmlns:xlink="http://www.w3.org/1999/xlink" x="0px" y="0px"
	 viewBox="0 0 541.652 468.558" style="enable-background:new 0 0 541.652 468.558;" xml:space="preserve">
<g id="satellite">
	<g>
		<g id="Satellite_1_">
			<linearGradient id="SVGID_1_" gradientUnits="userSpaceOnUse" x1="-1.434400e-005" y1="234.2791" x2="541.6523" y2="234.2791">
				<stop  offset="0" style="stop-color:#00BFA7"/>
				<stop  offset="0.2168" style="stop-color:#00AAA1"/>
				<stop  offset="0.6614" style="stop-color:#007593"/>
				<stop  offset="1" style="stop-color:#004887"/>
			</linearGradient>
			<path style="fill:url(#SVGID_1_);" d="M541.652,299.053l-58.708,82.719l-130.22-92.428l58.708-82.715L541.652,299.053z
				 M61.601,82.714l130.222,92.424l58.708-82.715L120.31,0L61.601,82.714z M0,169.505l130.222,92.428l58.708-82.719L58.71,86.79
				L0,169.505z M291.123,376.134l130.22,92.425l58.708-82.715l-130.22-92.425L291.123,376.134z"/>
			<linearGradient id="SVGID_2_" gradientUnits="userSpaceOnUse" x1="270.8268" y1="456.5522" x2="270.8268" y2="12.0058">
				<stop  offset="0" style="stop-color:#311163"/>
				<stop  offset="0.1321" style="stop-color:#32166B"/>
				<stop  offset="0.3326" style="stop-color:#362480"/>
				<stop  offset="0.5767" style="stop-color:#3B3AA2"/>
				<stop  offset="0.8525" style="stop-color:#4359D1"/>
				<stop  offset="0.9975" style="stop-color:#486BED"/>
			</linearGradient>
			<path style="fill:url(#SVGID_2_);" d="M420.152,325.691l-55.864-39.651l47.842-67.405l55.864,39.651L420.152,325.691z
				 M530.088,302.356l-55.862-39.648l-47.842,67.406l55.862,39.648L530.088,302.356z M176.871,51.657l-55.862-39.651L73.167,79.411
				l55.864,39.651L176.871,51.657z M238.966,95.728L183.104,56.08l-47.842,67.406l55.864,39.651L238.966,95.728z M115.271,138.447
				L59.407,98.796l-47.842,67.406l55.864,39.648L115.271,138.447z M177.366,182.521l-55.864-39.651l-47.84,67.405l55.862,39.648
				L177.366,182.521z M406.392,345.076l-55.862-39.651l-47.842,67.406l55.862,39.648L406.392,345.076z M468.489,389.147
				l-55.864-39.648l-47.842,67.405l55.864,39.648L468.489,389.147z"/>
			<g>
				<linearGradient id="SVGID_3_" gradientUnits="userSpaceOnUse" x1="168.2" y1="340.3513" x2="225.3263" y2="340.3513">
					<stop  offset="0" style="stop-color:#00BFA7"/>
					<stop  offset="0.2168" style="stop-color:#00AAA1"/>
					<stop  offset="0.6614" style="stop-color:#007593"/>
					<stop  offset="1" style="stop-color:#004887"/>
				</linearGradient>
				<path style="fill:url(#SVGID_3_);" d="M217.134,310.263c-8.76-6.216-20.901-4.158-27.118,4.603
					c-4.772,6.721-4.652,15.424-0.389,21.923l-8.469,11.932c-4.061-0.093-8.095,1.766-10.623,5.33
					c-4.045,5.699-2.705,13.598,2.995,17.643c5.699,4.045,13.598,2.705,17.645-2.994c2.528-3.563,2.952-7.985,1.524-11.787
					l8.469-11.932c7.542,1.879,15.797-0.878,20.566-7.6C227.953,328.62,225.891,316.478,217.134,310.263z"/>
				<linearGradient id="SVGID_4_" gradientUnits="userSpaceOnUse" x1="336.796" y1="104.2957" x2="395.6314" y2="104.2957">
					<stop  offset="0" style="stop-color:#00BFA7"/>
					<stop  offset="0.2168" style="stop-color:#00AAA1"/>
					<stop  offset="0.6614" style="stop-color:#007593"/>
					<stop  offset="1" style="stop-color:#004887"/>
				</linearGradient>
				<polygon style="fill:url(#SVGID_4_);" points="395.631,95.697 360.779,70.957 352.587,82.5 364.242,90.772 336.796,129.442 
					348.338,137.634 375.783,98.963 387.439,107.237 				"/>
			</g>
			
				<linearGradient id="SVGID_5_" gradientUnits="userSpaceOnUse" x1="333.1924" y1="366.1545" x2="578.2297" y2="366.1545" gradientTransform="matrix(1.0642 0.0456 0.0456 1.0324 -232.1505 -164.7724)">
				<stop  offset="0.0025" style="stop-color:#486BED"/>
				<stop  offset="0.1475" style="stop-color:#4359D1"/>
				<stop  offset="0.4233" style="stop-color:#3B3AA2"/>
				<stop  offset="0.6674" style="stop-color:#362480"/>
				<stop  offset="0.8679" style="stop-color:#32166B"/>
				<stop  offset="1" style="stop-color:#311163"/>
			</linearGradient>
			<path style="fill:url(#SVGID_5_);" d="M335.245,313.971l-29.209-20.729l4.676-7.141l29.207,20.732L335.245,313.971z
				 M305.636,355.136l-29.209-20.729l-4.751,6.695l29.207,20.729L305.636,355.136z M139.982,247.63l29.209,20.729l4.826-6.25
				l-29.207-20.732L139.982,247.63z M174.343,199.77l29.207,20.729l4.676-7.137l-29.209-20.729L174.343,199.77z M367.312,268.791
				l-29.207-20.732l-4.753,6.695l29.207,20.729L367.312,268.791z M201.584,160.836l29.207,20.732l4.827-6.249l-29.207-20.732
				L201.584,160.836z M235.866,112.534l29.209,20.732l4.826-6.253l-29.207-20.729L235.866,112.534z M362.533,211.867l32.03,22.735
				l4.851-6.236l-32.028-22.731L362.533,211.867z"/>
			<linearGradient id="SVGID_6_" gradientUnits="userSpaceOnUse" x1="336.9947" y1="282.3499" x2="225.3322" y2="170.6873">
				<stop  offset="0.0033" style="stop-color:#420C60"/>
				<stop  offset="0.105" style="stop-color:#680A60"/>
				<stop  offset="0.3305" style="stop-color:#C7045F"/>
				<stop  offset="0.4567" style="stop-color:#FF005E"/>
				<stop  offset="0.5183" style="stop-color:#FF0D59"/>
				<stop  offset="0.7282" style="stop-color:#FF3349"/>
				<stop  offset="0.8961" style="stop-color:#FF4B40"/>
				<stop  offset="1" style="stop-color:#FF543C"/>
			</linearGradient>
			<path style="fill:url(#SVGID_6_);" d="M356.608,113.422c-28.3-20.089-67.526-13.428-87.614,14.87l0,0L154.475,289.639
				l102.488,72.743L371.48,201.038l0.002-0.003C391.568,172.733,384.908,133.508,356.608,113.422z"/>
			<linearGradient id="SVGID_7_" gradientUnits="userSpaceOnUse" x1="256.7373" y1="207.76" x2="300.3789" y2="232.9565">
				<stop  offset="0" style="stop-color:#FEE662"/>
				<stop  offset="0.1846" style="stop-color:#FED15D"/>
				<stop  offset="0.5658" style="stop-color:#FF9B50"/>
				<stop  offset="1" style="stop-color:#FF5740"/>
			</linearGradient>
			<path style="fill:url(#SVGID_7_);" d="M298.414,158.777c4.506-6.348,13.387-7.855,19.734-3.348l8.636,6.127
				c6.35,4.508,7.857,13.387,3.351,19.736l-71.434,100.644c-4.504,6.352-13.386,7.855-19.735,3.351l-8.637-6.131
				c-6.346-4.504-7.855-13.383-3.349-19.732L298.414,158.777z"/>
		</g>
		
			<linearGradient id="SVGID_8_" gradientUnits="userSpaceOnUse" x1="-1945.7111" y1="1162.761" x2="-1840.2719" y2="1162.761" gradientTransform="matrix(0.8458 0.5336 -0.5336 0.8458 2380.7954 412.3042)">
			<stop  offset="0" style="stop-color:#00BFA7"/>
			<stop  offset="0.2168" style="stop-color:#00AAA1"/>
			<stop  offset="0.6614" style="stop-color:#007593"/>
			<stop  offset="1" style="stop-color:#004887"/>
		</linearGradient>
		<path style="fill:url(#SVGID_8_);" d="M98.939,382.664c18.873-28.978,53.876-39.469,78.183-23.433
			c24.306,16.037,28.712,52.528,9.839,81.506L98.939,382.664z"/>
	</g>
</g>
<g id="Layer_1">
</g>
</svg>
