<?xml version="1.0" encoding="iso-8859-1"?>
<!-- Generator: Adobe Illustrator 19.0.0, SVG Export Plug-In . SVG Version: 6.00 Build 0)  -->
<svg version="1.1" xmlns="http://www.w3.org/2000/svg" xmlns:xlink="http://www.w3.org/1999/xlink" x="0px" y="0px"
	 viewBox="0 0 370.949 464.996" style="enable-background:new 0 0 370.949 464.996;" xml:space="preserve">
<g id="profile">
	<g>
		
			<linearGradient id="SVGID_1_" gradientUnits="userSpaceOnUse" x1="-1147.499" y1="-537.6161" x2="-1147.499" y2="-537.6161" gradientTransform="matrix(-1 0 0 -1 -825.1177 -241.4791)">
			<stop  offset="0" style="stop-color:#FEE662"/>
			<stop  offset="0.1846" style="stop-color:#FED15D"/>
			<stop  offset="0.5658" style="stop-color:#FF9B50"/>
			<stop  offset="1" style="stop-color:#FF5740"/>
		</linearGradient>
		<path style="fill:none;stroke:url(#SVGID_1_);stroke-width:4.4886;stroke-miterlimit:10;" d="M322.381,296.137"/>
		<linearGradient id="SVGID_2_" gradientUnits="userSpaceOnUse" x1="3.5151" y1="184.2998" x2="367.4338" y2="184.2998">
			<stop  offset="0" style="stop-color:#FF543C"/>
			<stop  offset="0.1039" style="stop-color:#FF4B40"/>
			<stop  offset="0.2718" style="stop-color:#FF3349"/>
			<stop  offset="0.4817" style="stop-color:#FF0D59"/>
			<stop  offset="0.5433" style="stop-color:#FF005E"/>
			<stop  offset="0.6695" style="stop-color:#C7045F"/>
			<stop  offset="0.895" style="stop-color:#680A60"/>
			<stop  offset="0.9967" style="stop-color:#420C60"/>
		</linearGradient>
		<path style="fill:url(#SVGID_2_);" d="M185.474,0C84.981,0,3.515,82.514,3.515,184.3s81.466,184.3,181.959,184.3
			s181.959-82.514,181.959-184.3S285.968,0,185.474,0z M185.474,352.233c-89.663,0-162.35-75.186-162.35-167.934
			S95.811,16.366,185.474,16.366s162.35,75.186,162.35,167.934S275.138,352.233,185.474,352.233z"/>
		<g>
			<defs>
				<ellipse id="SVGID_3_" cx="185.474" cy="184.3" rx="162.35" ry="167.934"/>
			</defs>
			<clipPath id="SVGID_4_">
				<use xlink:href="#SVGID_3_"  style="overflow:visible;"/>
			</clipPath>
			<g style="clip-path:url(#SVGID_4_);">
				<linearGradient id="SVGID_5_" gradientUnits="userSpaceOnUse" x1="38.4199" y1="303.7811" x2="332.5289" y2="303.7811">
					<stop  offset="0" style="stop-color:#00BFA7"/>
					<stop  offset="0.2168" style="stop-color:#00AAA1"/>
					<stop  offset="0.6614" style="stop-color:#007593"/>
					<stop  offset="1" style="stop-color:#004887"/>
				</linearGradient>
				<path style="fill:url(#SVGID_5_);" d="M332.529,363.058c0,15.855-13.935,28.709-31.125,28.709H69.545
					c-17.19,0-31.125-12.853-31.125-28.709V244.504c0-15.855,13.935-28.709,31.125-28.709h231.859
					c17.19,0,31.125,12.853,31.125,28.709V363.058z"/>
				<linearGradient id="SVGID_6_" gradientUnits="userSpaceOnUse" x1="51.5132" y1="305.6015" x2="319.4353" y2="305.6015">
					<stop  offset="0.0025" style="stop-color:#486BED"/>
					<stop  offset="0.1475" style="stop-color:#4359D1"/>
					<stop  offset="0.4233" style="stop-color:#3B3AA2"/>
					<stop  offset="0.6674" style="stop-color:#362480"/>
					<stop  offset="0.8679" style="stop-color:#32166B"/>
					<stop  offset="1" style="stop-color:#311163"/>
				</linearGradient>
				<path style="fill:url(#SVGID_6_);" d="M319.435,358.263c0,14.086-12.694,25.505-28.353,25.505H79.867
					c-15.659,0-28.354-11.419-28.354-25.505V252.94c0-14.086,12.694-25.505,28.354-25.505h211.215
					c15.659,0,28.353,11.419,28.353,25.505V358.263z"/>
				<path style="fill:none;stroke:#1D1D1B;stroke-width:2.5402;stroke-miterlimit:10;" d="M185.474,406.578"/>
				<g>
					<linearGradient id="SVGID_7_" gradientUnits="userSpaceOnUse" x1="-3.136016e-005" y1="343.7633" x2="85.0842" y2="343.7633">
						<stop  offset="0" style="stop-color:#FFFFFF"/>
						<stop  offset="0.1059" style="stop-color:#F7F9FC"/>
						<stop  offset="0.273" style="stop-color:#E0E7F3"/>
						<stop  offset="0.4806" style="stop-color:#BBCBE5"/>
						<stop  offset="0.7206" style="stop-color:#87A4D1"/>
						<stop  offset="0.9848" style="stop-color:#4673B8"/>
						<stop  offset="0.9975" style="stop-color:#4370B7"/>
					</linearGradient>
					<path style="fill:url(#SVGID_7_);" d="M0.284,406.578h71.909l12.892-101.174l-36.632-24.456
						C48.452,280.948-4.315,284.919,0.284,406.578z"/>
					<linearGradient id="SVGID_8_" gradientUnits="userSpaceOnUse" x1="48.4515" y1="363.8784" x2="322.4973" y2="363.8784">
						<stop  offset="0" style="stop-color:#FFFFFF"/>
						<stop  offset="0.1059" style="stop-color:#F7F9FC"/>
						<stop  offset="0.273" style="stop-color:#E0E7F3"/>
						<stop  offset="0.4806" style="stop-color:#BBCBE5"/>
						<stop  offset="0.7206" style="stop-color:#87A4D1"/>
						<stop  offset="0.9848" style="stop-color:#4673B8"/>
						<stop  offset="0.9975" style="stop-color:#4370B7"/>
					</linearGradient>
					<path style="fill:url(#SVGID_8_);" d="M246.497,262.761h-61.022h-61.022l-76.001,18.187c0,0,18.724,25.71,23.741,125.63
						l113.282,58.418l113.282-58.418c5.017-99.92,23.741-125.63,23.741-125.63L246.497,262.761z"/>
					<linearGradient id="SVGID_9_" gradientUnits="userSpaceOnUse" x1="298.756" y1="343.7633" x2="370.9491" y2="343.7633">
						<stop  offset="0" style="stop-color:#FFFFFF"/>
						<stop  offset="0.1059" style="stop-color:#F7F9FC"/>
						<stop  offset="0.273" style="stop-color:#E0E7F3"/>
						<stop  offset="0.4806" style="stop-color:#BBCBE5"/>
						<stop  offset="0.7206" style="stop-color:#87A4D1"/>
						<stop  offset="0.9848" style="stop-color:#4673B8"/>
						<stop  offset="0.9975" style="stop-color:#4370B7"/>
					</linearGradient>
					<path style="fill:url(#SVGID_9_);" d="M370.665,406.578h-71.909l18.423-79.358l5.319-46.273
						C322.497,280.948,375.264,284.919,370.665,406.578z"/>
					<linearGradient id="SVGID_10_" gradientUnits="userSpaceOnUse" x1="130.5058" y1="331.8421" x2="239.16" y2="331.8421">
						<stop  offset="0" style="stop-color:#00BFA7"/>
						<stop  offset="0.2168" style="stop-color:#00AAA1"/>
						<stop  offset="0.6614" style="stop-color:#007593"/>
						<stop  offset="1" style="stop-color:#004887"/>
					</linearGradient>
					<path style="fill:url(#SVGID_10_);" d="M239.16,331.842c0,5.822-4.719,10.541-10.541,10.541h-87.572
						c-5.822,0-10.541-4.72-10.541-10.541l0,0c0-5.822,4.719-10.541,10.541-10.541h87.572
						C234.441,321.301,239.16,326.02,239.16,331.842L239.16,331.842z"/>
					<path style="fill:#9DD1E0;" d="M239.16,376.766c0,5.822-4.719,10.541-10.541,10.541h-87.572
						c-5.822,0-10.541-4.719-10.541-10.541l0,0c0-5.822,4.719-10.541,10.541-10.541h87.572
						C234.441,366.225,239.16,370.945,239.16,376.766L239.16,376.766z"/>
					<linearGradient id="SVGID_11_" gradientUnits="userSpaceOnUse" x1="116.9629" y1="265.7253" x2="253.9857" y2="265.7253">
						<stop  offset="0" style="stop-color:#FEE662"/>
						<stop  offset="0.1846" style="stop-color:#FED15D"/>
						<stop  offset="0.5658" style="stop-color:#FF9B50"/>
						<stop  offset="1" style="stop-color:#FF5740"/>
					</linearGradient>
					<path style="fill:url(#SVGID_11_);" d="M240.197,239.395l-54.722,3.302l-54.722-3.302
						c-0.546-0.354-13.789,25.158-13.789,25.158s11.129,27.506,68.512,27.506s68.511-27.506,68.511-27.506
						S240.742,239.041,240.197,239.395z"/>
					<linearGradient id="SVGID_12_" gradientUnits="userSpaceOnUse" x1="20.4306" y1="343.356" x2="72.2693" y2="343.356">
						<stop  offset="0.0025" style="stop-color:#486BED"/>
						<stop  offset="0.1475" style="stop-color:#4359D1"/>
						<stop  offset="0.4233" style="stop-color:#3B3AA2"/>
						<stop  offset="0.6674" style="stop-color:#362480"/>
						<stop  offset="0.8679" style="stop-color:#32166B"/>
						<stop  offset="1" style="stop-color:#311163"/>
					</linearGradient>
					<path style="fill:url(#SVGID_12_);" d="M20.431,301.158c0,0,42.564,57.759,51.762,105.42c0,0,2.687-88.212-23.741-125.63
						C48.452,280.948,23.855,273.918,20.431,301.158z"/>
					<linearGradient id="SVGID_13_" gradientUnits="userSpaceOnUse" x1="298.6793" y1="343.356" x2="350.5182" y2="343.356">
						<stop  offset="0.0025" style="stop-color:#486BED"/>
						<stop  offset="0.1475" style="stop-color:#4359D1"/>
						<stop  offset="0.4233" style="stop-color:#3B3AA2"/>
						<stop  offset="0.6674" style="stop-color:#362480"/>
						<stop  offset="0.8679" style="stop-color:#32166B"/>
						<stop  offset="1" style="stop-color:#311163"/>
					</linearGradient>
					<path style="fill:url(#SVGID_13_);" d="M350.518,301.158c0,0-42.564,57.759-51.762,105.42c0,0-2.687-88.212,23.741-125.63
						C322.497,280.948,347.094,273.918,350.518,301.158z"/>
				</g>
				<linearGradient id="SVGID_14_" gradientUnits="userSpaceOnUse" x1="86.6802" y1="154.3634" x2="284.2686" y2="154.3634">
					<stop  offset="0" style="stop-color:#FFFFFF"/>
					<stop  offset="0.1059" style="stop-color:#F7F9FC"/>
					<stop  offset="0.273" style="stop-color:#E0E7F3"/>
					<stop  offset="0.4806" style="stop-color:#BBCBE5"/>
					<stop  offset="0.7206" style="stop-color:#87A4D1"/>
					<stop  offset="0.9848" style="stop-color:#4673B8"/>
					<stop  offset="0.9975" style="stop-color:#4370B7"/>
				</linearGradient>
				<path style="fill:url(#SVGID_14_);" d="M284.269,154.364c0,55.275-41.993,100.085-98.794,100.085S86.68,209.639,86.68,154.364
					c0-55.276,41.993-100.085,98.794-100.085S284.269,99.088,284.269,154.364z"/>
				<g>
					<circle style="opacity:0.8;fill:#FFFFFF;" cx="150.879" cy="146.123" r="15.759"/>
					<circle style="opacity:0.8;fill:#FFFFFF;" cx="135.433" cy="166.801" r="5.927"/>
				</g>
				<linearGradient id="SVGID_15_" gradientUnits="userSpaceOnUse" x1="74.6806" y1="155.6187" x2="296.2682" y2="155.6187">
					<stop  offset="0" style="stop-color:#00BFA7"/>
					<stop  offset="0.2168" style="stop-color:#00AAA1"/>
					<stop  offset="0.6614" style="stop-color:#007593"/>
					<stop  offset="1" style="stop-color:#004887"/>
				</linearGradient>
				<path style="fill:url(#SVGID_15_);" d="M98.68,168.797c0,5.278-4.279,9.557-9.558,9.557h-4.884
					c-5.278,0-9.557-4.279-9.557-9.557V142.44c0-5.278,4.279-9.557,9.557-9.557h4.884c5.279,0,9.558,4.279,9.558,9.557V168.797z
					 M296.268,142.44c0-5.278-4.279-9.557-9.558-9.557h-4.884c-5.278,0-9.557,4.279-9.557,9.557v26.357
					c0,5.278,4.279,9.557,9.557,9.557h4.884c5.279,0,9.558-4.279,9.558-9.557V142.44z"/>
			</g>
		</g>
		<path style="fill:none;" d="M261.236,135.219c0,42.388-32.203,76.751-75.761,76.751s-75.761-34.363-75.761-76.751
			c0-42.389,32.203-76.751,75.761-76.751S261.236,92.83,261.236,135.219z"/>
		<linearGradient id="SVGID_16_" gradientUnits="userSpaceOnUse" x1="77.6328" y1="155.6187" x2="293.316" y2="155.6187">
			<stop  offset="0" style="stop-color:#FFFFFF"/>
			<stop  offset="0.1059" style="stop-color:#F7F9FC"/>
			<stop  offset="0.273" style="stop-color:#E0E7F3"/>
			<stop  offset="0.4806" style="stop-color:#BBCBE5"/>
			<stop  offset="0.7206" style="stop-color:#87A4D1"/>
			<stop  offset="0.9848" style="stop-color:#4673B8"/>
			<stop  offset="0.9975" style="stop-color:#4370B7"/>
		</linearGradient>
		<path style="fill:url(#SVGID_16_);" d="M95.728,143.596v9.51H77.633v-9.51H95.728z M95.728,167.641v-9.51H77.633v9.51H95.728z
			 M275.221,143.596v9.51h18.095v-9.51H275.221z M293.316,167.641v-9.51h-18.095v9.51H293.316z"/>
		<g>
			<defs>
				<path id="SVGID_17_" d="M284.269,154.364c0,55.275-41.993,100.085-98.794,100.085S86.68,209.639,86.68,154.364
					c0-55.276,41.993-100.085,98.794-100.085S284.269,99.088,284.269,154.364z"/>
			</defs>
			<clipPath id="SVGID_18_">
				<use xlink:href="#SVGID_17_"  style="overflow:visible;"/>
			</clipPath>
			<g style="clip-path:url(#SVGID_18_);">
				<linearGradient id="SVGID_19_" gradientUnits="userSpaceOnUse" x1="145.2126" y1="223.7496" x2="226.5342" y2="223.7496">
					<stop  offset="0" style="stop-color:#FFDBC3"/>
					<stop  offset="0.1651" style="stop-color:#FED8C1"/>
					<stop  offset="0.2943" style="stop-color:#FDCEB9"/>
					<stop  offset="0.4114" style="stop-color:#FABDAD"/>
					<stop  offset="0.5207" style="stop-color:#F6A69C"/>
					<stop  offset="0.5805" style="stop-color:#F39690"/>
				</linearGradient>
				<path style="fill:url(#SVGID_19_);" d="M214.459,267.748h-57.17c-6.642,0-12.076-5.434-12.076-12.076v-63.846
					c0-6.642,5.434-12.076,12.076-12.076h57.17c6.642,0,12.076,5.434,12.076,12.076v63.846
					C226.534,262.314,221.1,267.748,214.459,267.748z"/>
				<linearGradient id="SVGID_20_" gradientUnits="userSpaceOnUse" x1="145.2126" y1="223.7496" x2="226.5342" y2="223.7496">
					<stop  offset="0" style="stop-color:#FFDBC3"/>
					<stop  offset="0.1651" style="stop-color:#FED8C1"/>
					<stop  offset="0.2943" style="stop-color:#FDCEB9"/>
					<stop  offset="0.4114" style="stop-color:#FABDAD"/>
					<stop  offset="0.5207" style="stop-color:#F6A69C"/>
					<stop  offset="0.5805" style="stop-color:#F39690"/>
				</linearGradient>
				<path style="opacity:0.7;fill:url(#SVGID_20_);" d="M214.459,267.748h-57.17c-6.642,0-12.076-5.434-12.076-12.076v-63.846
					c0-6.642,5.434-12.076,12.076-12.076h57.17c6.642,0,12.076,5.434,12.076,12.076v63.846
					C226.534,262.314,221.1,267.748,214.459,267.748z"/>
				<path style="fill:#F99586;" d="M131.65,182.646h-2.675c-3.924,0-7.134-3.211-7.134-7.134v-29.876
					c0-3.924,3.211-7.134,7.134-7.134h2.675c3.924,0,7.134,3.211,7.134,7.134v29.876
					C138.785,179.435,135.574,182.646,131.65,182.646z"/>
				<path style="fill:#B45258;" d="M239.04,181.977h-2.675c-3.924,0-7.134-3.211-7.134-7.134v-29.876
					c0-3.924,3.211-7.134,7.134-7.134h2.675c3.924,0,7.134,3.211,7.134,7.134v29.876
					C246.175,178.766,242.964,181.977,239.04,181.977z"/>
				<linearGradient id="SVGID_21_" gradientUnits="userSpaceOnUse" x1="131.8575" y1="160.013" x2="236.9849" y2="160.013">
					<stop  offset="0" style="stop-color:#FFDBC3"/>
					<stop  offset="0.1651" style="stop-color:#FED8C1"/>
					<stop  offset="0.2943" style="stop-color:#FDCEB9"/>
					<stop  offset="0.4114" style="stop-color:#FABDAD"/>
					<stop  offset="0.5207" style="stop-color:#F6A69C"/>
					<stop  offset="0.5805" style="stop-color:#F39690"/>
				</linearGradient>
				<path style="fill:url(#SVGID_21_);" d="M184.421,84.065L184.421,84.065c-29.03,0-52.564,21.859-52.564,48.823v50.855
					c0,18.876,11.541,35.238,28.419,43.363c3.247,5.275,9.355,8.857,16.331,8.857h17.634c7.594,0,14.159-4.244,17.122-10.297
					c15.344-8.526,25.622-24.107,25.622-41.922v-50.855C236.985,105.923,213.451,84.065,184.421,84.065z"/>
				<g>
					<g>
						<linearGradient id="SVGID_22_" gradientUnits="userSpaceOnUse" x1="160.6037" y1="212.8442" x2="209.6683" y2="212.8442">
							<stop  offset="0" style="stop-color:#AA7059"/>
							<stop  offset="0.0981" style="stop-color:#A46C56"/>
							<stop  offset="0.2257" style="stop-color:#94604D"/>
							<stop  offset="0.3695" style="stop-color:#794E3E"/>
							<stop  offset="0.5243" style="stop-color:#54332A"/>
							<stop  offset="0.5578" style="stop-color:#4B2D25"/>
						</linearGradient>
						<path style="fill:url(#SVGID_22_);" d="M196.756,233.084h-23.24c-7.12,0-12.912-5.792-12.912-12.912v-14.656
							c0-7.12,5.792-12.912,12.912-12.912h23.24c7.12,0,12.912,5.792,12.912,12.912v14.656
							C209.668,227.292,203.876,233.084,196.756,233.084z M173.516,197.492c-4.425,0-8.025,3.6-8.025,8.025v14.656
							c0,4.425,3.6,8.025,8.025,8.025h23.24c4.425,0,8.025-3.6,8.025-8.025v-14.656c0-4.425-3.6-8.025-8.025-8.025H173.516z"/>
					</g>
				</g>
				<linearGradient id="SVGID_23_" gradientUnits="userSpaceOnUse" x1="130.4581" y1="193.8203" x2="238.9323" y2="193.8203">
					<stop  offset="0.1859" style="stop-color:#DF7464"/>
					<stop  offset="0.5109" style="stop-color:#C03E3C"/>
				</linearGradient>
				<path style="opacity:0.5;fill:url(#SVGID_23_);" d="M151.615,184.715v39.764c-12.813-9.333-21.157-24.427-21.157-41.491v-19.828
					C142.132,163.388,151.615,172.99,151.615,184.715z M218.362,224.251c12.48-9.365,20.571-24.26,20.571-41.063V163.39
					c-11.402,0.533-20.571,9.997-20.571,21.525V224.251z"/>
				<linearGradient id="SVGID_24_" gradientUnits="userSpaceOnUse" x1="127.6987" y1="128.9021" x2="240.5029" y2="128.9021">
					<stop  offset="0" style="stop-color:#AA7059"/>
					<stop  offset="0.0981" style="stop-color:#A46C56"/>
					<stop  offset="0.2257" style="stop-color:#94604D"/>
					<stop  offset="0.3695" style="stop-color:#794E3E"/>
					<stop  offset="0.5243" style="stop-color:#54332A"/>
					<stop  offset="0.5578" style="stop-color:#4B2D25"/>
				</linearGradient>
				<path style="fill:url(#SVGID_24_);" d="M240.424,178.267l-3.351,16.372c0,0-0.19-58.128-0.609-58.653
					c-3.115-3.898-4.176-13.481-4.524-18.416c-0.144-2.042-0.889-3.984-2.144-5.599l-5.214-6.707l-40.215,2.871l-41.129-1.663
					c0,0-7.293,3.502-7.903,15.299c-0.609,11.796-3.675,15.2-3.675,15.2l0.305,56.031l-4.265-21.175V119.93
					c0,0,5.484-22.937,12.796-22.937c0,0-0.305-35.716,67.94-33.75c0,0,6.093,1.311,14.319,8.847
					c8.226,7.536,5.789,25.558,5.789,25.558s10.663,17.694,10.663,28.507S240.881,177.775,240.424,178.267z"/>
				<linearGradient id="SVGID_25_" gradientUnits="userSpaceOnUse" x1="131.1068" y1="214.5156" x2="238.6975" y2="214.5156">
					<stop  offset="0" style="stop-color:#AA7059"/>
					<stop  offset="0.0981" style="stop-color:#A46C56"/>
					<stop  offset="0.2257" style="stop-color:#94604D"/>
					<stop  offset="0.3695" style="stop-color:#794E3E"/>
					<stop  offset="0.5243" style="stop-color:#54332A"/>
					<stop  offset="0.5578" style="stop-color:#4B2D25"/>
				</linearGradient>
				<path style="fill:url(#SVGID_25_);" d="M238.698,180.764c-4.395,12.159-11.624,25.602-14.885,31.43
					c-0.245,0.655-1.19,1.588-2.563,2.675c-0.077,0.075-0.135,0.131-0.135,0.131c-0.002-0.005-0.005-0.01-0.008-0.016
					c-6.282,4.912-21.076,12.842-21.076,12.842l-1.214,0.39c-1.475,0.792-2.933,1.422-4.261,1.733
					c-0.38,0.076-0.754,0.137-1.109,0.16c-6.43,0.415-5.226-9.337-5.226-9.337h-0.072c0.005-0.044,0.009-0.086,0.009-0.086h-2.735
					h-2.735c0,0,0.004,0.042,0.009,0.086h-0.102c0,0,1.205,9.752-5.226,9.337c-0.337-0.022-0.691-0.082-1.05-0.151
					c-0.181-0.042-0.371-0.108-0.556-0.161c-0.514,0.01-1.065-0.075-1.666-0.297c-8.288-3.067-24.366-14.499-24.366-14.499
					s-0.908-0.747-2.317-2.075c-3.261-5.783-11.932-21.723-16.308-35.114v15.873c0,20.799,11.811,38.827,29.085,47.78
					c3.323,5.812,9.574,9.759,16.714,9.759h18.047c7.772,0,14.491-4.676,17.523-11.346c15.704-9.394,26.222-26.562,26.222-46.192
					V180.764z"/>
				<path style="fill:#774036;" d="M222.643,104.645c-2.531-18.342-21.232-35.43-28.216-41.239
					c-1.587,0.088-3.124,0.201-4.619,0.335c0.04,0.037,0.075,0.077,0.119,0.11c0.267,0.202,26.706,20.378,29.584,41.227
					c0.027,0.198,0.09,0.382,0.181,0.547l2.857-0.204C222.64,105.18,222.681,104.917,222.643,104.645z"/>
				<path style="fill:#8E5D50;" d="M168.728,67.813c-1.385,0.453-2.7,0.931-3.952,1.431c0.181,0.331,0.476,0.601,0.86,0.735
					c0.25,0.087,24.671,8.914,37.548,36.821l3.369-0.24C195.258,81.073,175.209,70.623,168.728,67.813z"/>
				<path style="fill:#9E7972;" d="M185.949,108.029c-11.043-21.103-31.424-27.327-37.017-28.668
					c-0.874,0.895-1.654,1.792-2.356,2.682c0.118,0.054,0.242,0.1,0.376,0.124c0.24,0.043,23.288,4.448,35.416,25.883l2.101,0.085
					L185.949,108.029z"/>
				<linearGradient id="SVGID_26_" gradientUnits="userSpaceOnUse" x1="172.7657" y1="164.8864" x2="197.2517" y2="164.8864">
					<stop  offset="0.2616" style="stop-color:#FC9C8A"/>
					<stop  offset="0.5805" style="stop-color:#EF6B6B"/>
				</linearGradient>
				<path style="fill:url(#SVGID_26_);" d="M180.249,147.151c2.115-7.571,7.404-7.571,9.519,0l3.369,12.058l3.369,12.058
					c2.115,7.571-0.529,17.034-4.76,17.034h-6.739h-6.739c-4.231,0-6.875-9.463-4.76-17.034l3.369-12.058L180.249,147.151z"/>
				<linearGradient id="SVGID_27_" gradientUnits="userSpaceOnUse" x1="140.4455" y1="143.696" x2="230.1106" y2="143.696">
					<stop  offset="0" style="stop-color:#AA7059"/>
					<stop  offset="0.0981" style="stop-color:#A46C56"/>
					<stop  offset="0.2257" style="stop-color:#94604D"/>
					<stop  offset="0.3695" style="stop-color:#794E3E"/>
					<stop  offset="0.5243" style="stop-color:#54332A"/>
					<stop  offset="0.5578" style="stop-color:#4B2D25"/>
				</linearGradient>
				<path style="fill:url(#SVGID_27_);" d="M167.467,148.631h-22.323c-2.584,0-4.699-2.114-4.699-4.699v-0.473
					c0-2.584,2.114-4.699,4.699-4.699h22.323c2.584,0,4.699,2.114,4.699,4.699v0.473
					C172.166,146.517,170.052,148.631,167.467,148.631z M230.111,143.932v-0.473c0-2.584-2.114-4.699-4.699-4.699h-22.323
					c-2.584,0-4.699,2.114-4.699,4.699v0.473c0,2.584,2.114,4.699,4.699,4.699h22.323
					C227.996,148.631,230.111,146.517,230.111,143.932z"/>
				<linearGradient id="SVGID_28_" gradientUnits="userSpaceOnUse" x1="150.054" y1="161.6698" x2="160.0164" y2="161.6698">
					<stop  offset="0.2027" style="stop-color:#437574"/>
					<stop  offset="0.6348" style="stop-color:#005545"/>
				</linearGradient>
				<path style="fill:url(#SVGID_28_);" d="M156.696,168.035h-3.321c-1.826,0-3.321-1.494-3.321-3.321v-6.088
					c0-1.826,1.494-3.321,3.321-3.321h3.321c1.826,0,3.321,1.494,3.321,3.321v6.088C160.016,166.54,158.522,168.035,156.696,168.035
					z"/>
				<linearGradient id="SVGID_29_" gradientUnits="userSpaceOnUse" x1="210.0838" y1="161.6928" x2="220.0462" y2="161.6928">
					<stop  offset="0.2027" style="stop-color:#437574"/>
					<stop  offset="0.6348" style="stop-color:#005545"/>
				</linearGradient>
				<path style="fill:url(#SVGID_29_);" d="M216.725,168.058h-3.321c-1.826,0-3.321-1.494-3.321-3.321v-6.088
					c0-1.826,1.494-3.321,3.321-3.321h3.321c1.826,0,3.321,1.494,3.321,3.321v6.088
					C220.046,166.563,218.552,168.058,216.725,168.058z"/>
				<linearGradient id="SVGID_30_" gradientUnits="userSpaceOnUse" x1="170.6541" y1="211.7489" x2="199.8438" y2="211.7489">
					<stop  offset="0.1859" style="stop-color:#DF7464"/>
					<stop  offset="0.5109" style="stop-color:#C03E3C"/>
				</linearGradient>
				<path style="fill:url(#SVGID_30_);" d="M170.654,202.85c0.714,9.987,6.975,17.797,14.595,17.797s13.881-7.81,14.595-17.797
					H170.654z"/>
				<path style="opacity:0.3;fill:#FFFFFF;" d="M155.415,162.33h-0.97c-0.533,0-0.97-0.436-0.97-0.97v-1.777
					c0-0.533,0.436-0.97,0.97-0.97h0.97c0.533,0,0.97,0.436,0.97,0.97v1.777C156.384,161.894,155.948,162.33,155.415,162.33z"/>
				<path style="opacity:0.3;fill:#FFFFFF;" d="M215.879,162.285h-0.97c-0.533,0-0.97-0.436-0.97-0.969v-1.777
					c0-0.533,0.436-0.97,0.97-0.97h0.97c0.533,0,0.969,0.436,0.969,0.97v1.777C216.848,161.849,216.412,162.285,215.879,162.285z"/>
			</g>
		</g>
		<linearGradient id="SVGID_31_" gradientUnits="userSpaceOnUse" x1="86.6802" y1="154.3634" x2="284.2686" y2="154.3634">
			<stop  offset="0" style="stop-color:#FFFFFF"/>
			<stop  offset="0.1059" style="stop-color:#F7F9FC"/>
			<stop  offset="0.273" style="stop-color:#E0E7F3"/>
			<stop  offset="0.4806" style="stop-color:#BBCBE5"/>
			<stop  offset="0.7206" style="stop-color:#87A4D1"/>
			<stop  offset="0.9848" style="stop-color:#4673B8"/>
			<stop  offset="0.9975" style="stop-color:#4370B7"/>
		</linearGradient>
		<path style="opacity:0.15;fill:url(#SVGID_31_);" d="M284.269,154.364c0,55.275-41.993,100.085-98.794,100.085
			S86.68,209.639,86.68,154.364c0-55.276,41.993-100.085,98.794-100.085S284.269,99.088,284.269,154.364z"/>
	</g>
</g>
<g id="Layer_1">
</g>
</svg>
