<?xml version="1.0" encoding="iso-8859-1"?>
<!-- Generator: Adobe Illustrator 19.0.0, SVG Export Plug-In . SVG Version: 6.00 Build 0)  -->
<svg version="1.1" xmlns="http://www.w3.org/2000/svg" xmlns:xlink="http://www.w3.org/1999/xlink" x="0px" y="0px"
	 viewBox="0 0 438.055 666.94" style="enable-background:new 0 0 438.055 666.94;" xml:space="preserve">
<g id="astronaut">
	<g>
		<g>
			<g>
				<linearGradient id="SVGID_1_" gradientUnits="userSpaceOnUse" x1="108.1797" y1="572.7589" x2="223.8697" y2="572.7589">
					<stop  offset="0" style="stop-color:#FEE662"/>
					<stop  offset="0.1846" style="stop-color:#FED15D"/>
					<stop  offset="0.5658" style="stop-color:#FF9B50"/>
					<stop  offset="1" style="stop-color:#FF5740"/>
				</linearGradient>
				<path style="fill:url(#SVGID_1_);" d="M210.418,493.77c-10.594-8.332-36.407-20.463-52.453-12.708
					c-8.145,11.306-13.469,24.403-18.682,37.666c-3.015,7.672-5.399,15.876-7.399,23.655c-1.689,6.567-5.224,13.828-5.342,20.702
					c-8.182,10.193-4.748,27.837-8.274,39.955c-4.034,13.865-12.618,27.479-9.371,42.33c2.461,11.254,17.573,23.867,29.105,21.213
					c24.726-5.691,22.853-44.763,28.73-63.987c1.705-5.577,4.147-11.158,5.3-16.72c6.117-1.035,11.115-3.46,15.291-9.76
					c10.02-15.119,19.405-30.735,28.794-46.31c2.96-4.911,8.029-10.418,7.74-16.545C223.482,505.29,216.004,498.163,210.418,493.77z
					"/>
				<g>
					<g>
						<linearGradient id="SVGID_2_" gradientUnits="userSpaceOnUse" x1="-1.434399e-005" y1="528.788" x2="110.6543" y2="528.788">
							<stop  offset="0" style="stop-color:#FEE662"/>
							<stop  offset="0.1846" style="stop-color:#FED15D"/>
							<stop  offset="0.5658" style="stop-color:#FF9B50"/>
							<stop  offset="1" style="stop-color:#FF5740"/>
						</linearGradient>
						<path style="fill:url(#SVGID_2_);" d="M82.197,545.546c2.097-1.254,4.061-2.944,5.835-5.159
							c7.872-9.831,12.241-25.707,14.848-37.8c2.056-9.536,7.458-20.603,7.765-30.229c0.501-15.757-21.203-19.78-33.235-22.334
							c-9.026-1.916-31.379,0.652-36.393,10.167c-1.694,14.884-4.133,29.642-6.463,44.026c-1.279,7.894-1.887,14.904-0.311,21.006
							c-8.288,10.301-16.485,22.138-23.901,32.744c-8.265,11.821-15.824,26.937-4.904,39.597
							c12.899,14.956,32.082,13.934,42.794-2.264c5.178-7.83,6.689-18.007,12.824-24.647c6.614-7.16,15.031-11.755,19.468-21.007
							C81.183,548.268,81.738,546.9,82.197,545.546z"/>
					</g>
				</g>
				<linearGradient id="SVGID_3_" gradientUnits="userSpaceOnUse" x1="109.6949" y1="221.609" x2="412.3969" y2="221.609">
					<stop  offset="0.0025" style="stop-color:#486BED"/>
					<stop  offset="0.1475" style="stop-color:#4359D1"/>
					<stop  offset="0.4233" style="stop-color:#3B3AA2"/>
					<stop  offset="0.6674" style="stop-color:#362480"/>
					<stop  offset="0.8679" style="stop-color:#32166B"/>
					<stop  offset="1" style="stop-color:#311163"/>
				</linearGradient>
				<path style="fill:url(#SVGID_3_);" d="M121.657,315.467c9.714,18.386,37.357,24.668,55.065,32.461
					c19.849,8.735,39.035,20.585,59.956,28.312c14.617,5.398,47.404,18.133,62.573,10.626c11.747-5.813,17.191-26.036,23.554-36.473
					c10.704-17.558,21.369-35.266,31.356-53.344c18.161-32.875,35.157-64.507,47.712-99.807
					c7.336-20.627,17.903-49.552,2.956-68.638c-13.462-17.191-45.839-33.89-65.19-44.07c-25.428-13.376-63.235-27.994-91.976-30.283
					c-26.637-2.121-33.763,12.22-44.585,34.158c-17.661,35.806-38.242,70.389-56.133,106.358
					C142.039,204.628,85.616,321.296,121.657,315.467z"/>
				<linearGradient id="SVGID_4_" gradientUnits="userSpaceOnUse" x1="152.0837" y1="222.0061" x2="366.0522" y2="222.0061">
					<stop  offset="0" style="stop-color:#FFFFFF"/>
					<stop  offset="0.1059" style="stop-color:#F7F9FC"/>
					<stop  offset="0.273" style="stop-color:#E0E7F3"/>
					<stop  offset="0.4806" style="stop-color:#BBCBE5"/>
					<stop  offset="0.7206" style="stop-color:#87A4D1"/>
					<stop  offset="0.9848" style="stop-color:#4673B8"/>
					<stop  offset="0.9975" style="stop-color:#4370B7"/>
				</linearGradient>
				<path style="fill:url(#SVGID_4_);" d="M248.08,108.948c-10.142-0.981-19.802-6.079-25.12,0.736
					c-6.586,8.438-8.865,27.136-15.86,35.324c-13.941,16.318-33.192,33.374-41.031,53.538c-7.05,18.136-6.853,38.197-10.344,56.913
					c-0.957,5.132-6.051,17.586-2.251,22.419c2.871,3.651,10.457,1.111,15.365,1.099c6.065-0.014,11.983,1.473,17.847,3.31
					c16.224,5.081,35.378,9.549,50.02,18.465c8.881,5.408,17.129,13.047,25.391,19.4c6.08,4.675,15.528,10.725,18.604,17.664
					c14.401-8.668,26.936-22.97,40.05-33.822c12.004-9.934,23.133-18.978,31.236-32.317c7.268-11.965,8.662-27.619,11.188-41.331
					c2.66-14.438,3.97-52.139,1.754-54.347c-4.08-4.065-3.936-14.822-9.573-23.618c-6.528,2.809-10.79,8.74-17.28,11.806
					c-8.222,3.884-17.304,5.034-26.267,5.114c-13.068,0.118-27.868-3.078-38.633-11.032c-16.367-12.093-27.292-31.535-26.352-51.452
					C245.882,107.894,244.823,108.85,248.08,108.948z"/>
				<linearGradient id="SVGID_5_" gradientUnits="userSpaceOnUse" x1="317.5489" y1="251.1288" x2="438.0549" y2="251.1288">
					<stop  offset="0" style="stop-color:#FFFFFF"/>
					<stop  offset="0.1059" style="stop-color:#F7F9FC"/>
					<stop  offset="0.273" style="stop-color:#E0E7F3"/>
					<stop  offset="0.4806" style="stop-color:#BBCBE5"/>
					<stop  offset="0.7206" style="stop-color:#87A4D1"/>
					<stop  offset="0.9848" style="stop-color:#4673B8"/>
					<stop  offset="0.9975" style="stop-color:#4370B7"/>
				</linearGradient>
				<path style="fill:url(#SVGID_5_);" d="M372.71,170.655c10.208,4.139,20.716,32.092,33.54,47.116
					c9.617,11.266,10.234,19.081,15.311,31.768c6.003,15.002,16.433,23.152,16.403,40.78c-0.028,15.989,1.446,30.938-6.537,44.914
					c-5.568-22.713-40.697-41.784-59.135-19.806c0.131-7.188,0.47-27.705-2.304-33.606c-1.996-4.245-7.76-5.557-10.82-8.681
					c-3.667-3.744-4.839-8.516-8.996-12.155c-7.058-6.177-13.984-6.592-19.117-14.89c-5.357-8.661-12.936-20.162-13.414-30.46
					c-2.143-46.155,33.194-46.954,47.816-48.609C365.459,167.026,371.093,169.999,372.71,170.655z"/>
				<linearGradient id="SVGID_6_" gradientUnits="userSpaceOnUse" x1="72.8412" y1="141.4445" x2="222.8507" y2="141.4445">
					<stop  offset="0" style="stop-color:#FFFFFF"/>
					<stop  offset="0.1059" style="stop-color:#F7F9FC"/>
					<stop  offset="0.273" style="stop-color:#E0E7F3"/>
					<stop  offset="0.4806" style="stop-color:#BBCBE5"/>
					<stop  offset="0.7206" style="stop-color:#87A4D1"/>
					<stop  offset="0.9848" style="stop-color:#4673B8"/>
					<stop  offset="0.9975" style="stop-color:#4370B7"/>
				</linearGradient>
				<path style="fill:url(#SVGID_6_);" d="M188.238,176.422c3.113-1.415,6.283-2.596,10.737-7.487
					c4.529-4.974,8.946-10.504,12.587-16.309c6.663-10.62,13.863-25.98,10.379-39.173c-1.655-6.268-7.633-11.997-12.766-15.668
					c-7.401-5.293-12.607-4.037-21.145-2.117c-18.212,4.096-42.845,9.61-57.963,20.592c-8.827,6.412-15.467,7.75-26.2,9.941
					c-12.456,2.543-21.768,9.953-31.026,18.532c11.58-6.052,24.284,2.823,30.066,12.695c4.949,8.45,14.578,21.43,14.451,31.45
					c6.3-2.169,14.088-11.656,20.205-11.514c1.09,0.025,5.295,3.721,7.453,4.102c2.017,0.356,4.715-0.894,6.169-0.59
					c10.162,2.121,14.844,4.17,27.37,0.026C179.761,180.502,186.574,177.179,188.238,176.422z"/>
				<linearGradient id="SVGID_7_" gradientUnits="userSpaceOnUse" x1="23.225" y1="211.5702" x2="118.571" y2="211.5702">
					<stop  offset="0" style="stop-color:#FEE662"/>
					<stop  offset="0.1846" style="stop-color:#FED15D"/>
					<stop  offset="0.5658" style="stop-color:#FF9B50"/>
					<stop  offset="1" style="stop-color:#FF5740"/>
				</linearGradient>
				<path style="fill:url(#SVGID_7_);" d="M78.375,139.781c-7.215,7.005-13.093,9.485-16.769,20.415
					c-3.128,9.301-8.462,18.194-10.936,27.847c-2.607,10.172-3.586,19.295-8.769,28.274c-4.95,8.576-11.082,17.079-15.456,26.074
					c-4.208,8.654-5.68,22.65,4.356,27.829c0.264-0.54,0.582-1.393,0.93-1.883c1.166,5.264,3.916,7.812,9.388,6.696
					c0.695-1.854-4.171-18.771,1.474-28.862c-2.158,7.731-4.14,33.774,8.041,36.822c7.429,1.859,6.65-8.998,6.598-14.029
					c-0.123-11.774,1.746-14.127,3.817-19.654c-1.281,3.98,1.622,31.285,7.211,34.502c11.036,6.352,5.998-22.915,5.029-33.129
					c8.458-0.08,7.375,16.896,13.707,14.392c12.478-7.665,9.614-16.605,4.499-28.159c-5.501-12.427-0.948-20.667,8.653-30.723
					c3.987-4.176,15.346-9.923,17.744-15.018c3.272-6.953-6.223-18.312-8.859-24.576c-3.444-8.186-7.943-16.782-15.316-21.709
					C88.551,141.435,76.93,135.854,78.375,139.781z"/>
				<linearGradient id="SVGID_8_" gradientUnits="userSpaceOnUse" x1="137.2042" y1="332.2907" x2="291.2747" y2="332.2907">
					<stop  offset="0" style="stop-color:#FFFFFF"/>
					<stop  offset="0.4988" style="stop-color:#A3B9DC"/>
					<stop  offset="0.9975" style="stop-color:#4370B7"/>
				</linearGradient>
				<path style="fill:url(#SVGID_8_);" d="M157.919,272.24c-6.243,2.302-11.709,12.019-15.535,17.134
					c-5.141,6.872-7.208,11.822-2.689,19.307c6.142,10.171,14.974,18.896,20.495,29.543c4.505,8.688,6.307,18.048,8.315,27.324
					c2.644,12.214,1.083,21.239,13.605,26.938c12.163-13.798,34.134-16.774,50.828-18.901c9.882-1.259,21.165-3.869,31.069-2.187
					c12.882,2.187,18.945,2.916,23.317,6.393c1.989-7.018-1.407-18.978,0.174-26.079c0.906-4.069,3.636-9.627,3.766-13.707
					c0.359-11.27-11.207-17.567-19.287-25.382c-30.076-29.087-71.784-42.582-114.059-40.272
					C158.046,273.09,158.551,273.539,157.919,272.24z"/>
				<linearGradient id="SVGID_9_" gradientUnits="userSpaceOnUse" x1="74.8843" y1="373.7926" x2="157.799" y2="421.6634">
					<stop  offset="0" style="stop-color:#FFFFFF"/>
					<stop  offset="0.246" style="stop-color:#D5DFEF"/>
					<stop  offset="0.7975" style="stop-color:#6B8EC6"/>
					<stop  offset="0.9975" style="stop-color:#4370B7"/>
				</linearGradient>
				<path style="fill:url(#SVGID_9_);" d="M153.951,299.866c-26.11-3.904-48.323,27.521-62.753,47.158
					c-14.589,19.854-20.844,41.761-32.997,63.02c-7.883,13.79-24.457,43.493-14.869,60.861c6.853,12.414,23.768,18.243,36.32,20.261
					c13.598,2.186,17.906-0.682,27.784-11.089c8.816-9.289,14.421-21.4,22.139-31.39c9.078-11.749,19.972-22.081,28.343-34.583
					c6.361-9.499,14.879-18.753,20.704-28.513c8.788-14.726,6.3-42.802,1.158-58.552c-4.338-13.287-14.555-22.544-27.055-28.191
					C152.338,300.311,152.138,301.804,153.951,299.866z"/>
				<linearGradient id="SVGID_10_" gradientUnits="userSpaceOnUse" x1="175.2813" y1="401.1781" x2="264.5642" y2="452.7256">
					<stop  offset="0.0025" style="stop-color:#4370B7"/>
					<stop  offset="0.1246" style="stop-color:#527CBD"/>
					<stop  offset="0.3603" style="stop-color:#7A9ACC"/>
					<stop  offset="0.6826" style="stop-color:#BACAE5"/>
					<stop  offset="1" style="stop-color:#FFFFFF"/>
				</linearGradient>
				<path style="fill:url(#SVGID_10_);" d="M191.949,372.308c-4.737,9.711-8.863,19.019-11.458,29.688
					c-2.384,9.804-8.121,20.299-9.246,29.958c-0.686,5.884,0.931,11.412-0.46,17.189c-1.302,5.412-3.593,11.067-5.242,16.409
					c-3.665,11.874-10.915,22.318-2.571,34.249c7.428,10.621,23.847,17.906,35.902,19.658c15.072,2.191,28.828,1.128,35.286-14.67
					c3.287-8.04,4.061-15.298,9.295-22.317c3.007-4.032,2.721-2.391,4.649-7.243c1.813-4.561-0.145-4.77,3.739-9.202
					c3.039-3.468,5.416-5.266,7.385-9.031c0.742-1.419-0.324-3.531,0.519-5.152c0.901-1.732,4.646-3.156,6.024-4.744
					c7.507-8.653,4.569-21.841,9.109-32.368c3.009-6.977,7.074-13.467,9.482-20.552c2.267-6.669,0.791-18.671,1.64-25.701
					c1.676-13.872-8.009-18.836-19.139-22.42c-16.23-5.225-30.383-0.594-46.48,3.828
					C211.653,352.287,196.705,365.84,191.949,372.308z"/>
				<path style="fill:#FFFFFF;" d="M185.934,253.283c23.331,9.478,39.371,15.311,63.2,25.611
					c11.095-27.107,25.431-53.036,36.363-80.003c-18.776-11.565-42.354-22.211-63.304-28.17
					C223.022,172.388,191.687,232.967,185.934,253.283z"/>
				<g>
					
						<rect x="208.671" y="193.088" transform="matrix(0.9067 0.4218 -0.4218 0.9067 117.3248 -78.2365)" style="fill:#E5E5E5;" width="53.683" height="66.004"/>
					
						<rect x="220.633" y="198.086" transform="matrix(0.9067 0.4218 -0.4218 0.9067 111.8904 -82.3941)" style="fill:#D9D9D9;" width="43.122" height="27.281"/>
					
						<rect x="208.565" y="221.403" transform="matrix(0.9067 0.4218 -0.4218 0.9067 119.49 -70.1185)" style="fill:#D9D9D9;" width="19.361" height="27.281"/>
					
						<rect x="229.311" y="231.053" transform="matrix(0.9067 0.4218 -0.4218 0.9067 125.4954 -77.9682)" style="fill:#D9D9D9;" width="19.361" height="27.281"/>
					<circle style="fill:#FF2013;" cx="230.784" cy="197.476" r="2.167"/>
					<circle style="fill:#C4DC90;" cx="223.712" cy="212.681" r="1.68"/>
					<circle style="fill:#B4D26F;" cx="223.712" cy="212.681" r="1.193"/>
					<circle style="fill:#C4DC90;" cx="228.572" cy="214.942" r="1.68"/>
					<circle style="fill:#B4D26F;" cx="228.572" cy="214.942" r="1.193"/>
					<circle style="fill:#C4DC90;" cx="233.52" cy="217.244" r="1.68"/>
					<circle style="fill:#B4D26F;" cx="233.52" cy="217.244" r="1.193"/>
					<g>
						
							<rect x="236.104" y="199.609" transform="matrix(0.9067 0.4218 -0.4218 0.9067 106.8285 -81.3496)" style="fill:#808080;" width="2.395" height="2.395"/>
						
							<rect x="239.197" y="201.048" transform="matrix(0.9067 0.4218 -0.4218 0.9067 107.7238 -82.5198)" style="fill:#808080;" width="2.395" height="2.395"/>
						
							<rect x="242.27" y="202.477" transform="matrix(0.9067 0.4218 -0.4218 0.9067 108.6133 -83.6825)" style="fill:#808080;" width="2.395" height="2.395"/>
						
							<rect x="234.748" y="202.525" transform="matrix(0.9067 0.4218 -0.4218 0.9067 107.9318 -80.5055)" style="fill:#808080;" width="2.395" height="2.395"/>
						
							<rect x="237.841" y="203.964" transform="matrix(0.9067 0.4218 -0.4218 0.9067 108.8271 -81.6757)" style="fill:#808080;" width="2.395" height="2.395"/>
						
							<rect x="240.914" y="205.393" transform="matrix(0.9067 0.4218 -0.4218 0.9067 109.7166 -82.8384)" style="fill:#808080;" width="2.395" height="2.395"/>
						
							<rect x="233.35" y="205.53" transform="matrix(0.9067 0.4218 -0.4218 0.9067 109.0686 -79.6359)" style="fill:#808080;" width="2.395" height="2.395"/>
						
							<rect x="236.443" y="206.968" transform="matrix(0.9067 0.4218 -0.4218 0.9067 109.9638 -80.806)" style="fill:#808080;" width="2.395" height="2.395"/>
						
							<rect x="239.516" y="208.398" transform="matrix(0.9067 0.4218 -0.4218 0.9067 110.8533 -81.9687)" style="fill:#808080;" width="2.395" height="2.395"/>
						
							<rect x="231.994" y="208.446" transform="matrix(0.9067 0.4218 -0.4218 0.9067 110.1719 -78.7918)" style="fill:#808080;" width="2.395" height="2.395"/>
						
							<rect x="235.087" y="209.884" transform="matrix(0.9067 0.4218 -0.4218 0.9067 111.0671 -79.962)" style="fill:#808080;" width="2.395" height="2.395"/>
						
							<rect x="238.16" y="211.314" transform="matrix(0.9067 0.4218 -0.4218 0.9067 111.9566 -81.1246)" style="fill:#808080;" width="2.395" height="2.395"/>
					</g>
					<path d="M253.573,228.399l-11.755-5.468c-0.536-0.249-0.768-0.886-0.519-1.422l7.811-16.792
						c0.249-0.536,0.886-0.768,1.422-0.519l11.755,5.468c0.536,0.249,0.768,0.886,0.519,1.422l-7.811,16.792
						C254.746,228.416,254.109,228.648,253.573,228.399z"/>
					<g>
						<g>
							
								<rect x="213.593" y="228.905" transform="matrix(0.4218 -0.9067 0.9067 0.4218 -84.434 327.8091)" style="fill:#FFDE80;" width="2.395" height="2.395"/>
							
								<rect x="215.032" y="225.812" transform="matrix(0.4218 -0.9067 0.9067 0.4218 -80.7979 327.3251)" style="fill:#FFDE80;" width="2.395" height="2.395"/>
							
								<rect x="216.461" y="222.739" transform="matrix(0.4218 -0.9067 0.9067 0.4218 -77.1852 326.8442)" style="fill:#FFDE80;" width="2.395" height="2.395"/>
							
								<rect x="216.509" y="230.261" transform="matrix(0.4218 -0.9067 0.9067 0.4218 -83.9777 331.2375)" style="fill:#FFDE80;" width="2.395" height="2.395"/>
							
								<rect x="217.948" y="227.168" transform="matrix(0.4218 -0.9067 0.9067 0.4218 -80.3416 330.7535)" style="fill:#FFDE80;" width="2.395" height="2.395"/>
							
								<rect x="219.377" y="224.095" transform="matrix(0.4218 -0.9067 0.9067 0.4218 -76.7289 330.2726)" style="fill:#FFDE80;" width="2.395" height="2.395"/>
							
								<rect x="219.514" y="231.658" transform="matrix(0.4218 -0.9067 0.9067 0.4218 -83.5075 334.7697)" style="fill:#FFDE80;" width="2.395" height="2.395"/>
							
								<rect x="220.952" y="228.566" transform="matrix(0.4218 -0.9067 0.9067 0.4218 -79.8714 334.2857)" style="fill:#FFDE80;" width="2.395" height="2.395"/>
							
								<rect x="222.381" y="225.493" transform="matrix(0.4218 -0.9067 0.9067 0.4218 -76.2587 333.8048)" style="fill:#FFDE80;" width="2.395" height="2.395"/>
							
								<rect x="222.43" y="233.015" transform="matrix(0.4218 -0.9067 0.9067 0.4218 -83.0512 338.198)" style="fill:#FFDE80;" width="2.395" height="2.395"/>
							
								<rect x="223.868" y="229.922" transform="matrix(0.4218 -0.9067 0.9067 0.4218 -79.415 337.7141)" style="fill:#FFDE80;" width="2.395" height="2.395"/>
							
								<rect x="225.297" y="226.849" transform="matrix(0.4218 -0.9067 0.9067 0.4218 -75.8023 337.2332)" style="fill:#FFDE80;" width="2.395" height="2.395"/>
						</g>
						<g>
							
								<rect x="209.318" y="238.095" transform="matrix(0.4218 -0.9067 0.9067 0.4218 -95.2385 329.2473)" style="fill:#FFDE80;" width="2.395" height="2.395"/>
							
								<rect x="210.757" y="235.002" transform="matrix(0.4218 -0.9067 0.9067 0.4218 -91.6024 328.7633)" style="fill:#FFDE80;" width="2.395" height="2.395"/>
							
								<rect x="212.186" y="231.929" transform="matrix(0.4218 -0.9067 0.9067 0.4218 -87.9897 328.2824)" style="fill:#FFDE80;" width="2.395" height="2.395"/>
							
								<rect x="212.234" y="239.451" transform="matrix(0.4218 -0.9067 0.9067 0.4218 -94.7821 332.6757)" style="fill:#FFDE80;" width="2.395" height="2.395"/>
							
								<rect x="213.673" y="236.358" transform="matrix(0.4218 -0.9067 0.9067 0.4218 -91.146 332.1917)" style="fill:#FFDE80;" width="2.395" height="2.395"/>
							
								<rect x="215.102" y="233.285" transform="matrix(0.4218 -0.9067 0.9067 0.4218 -87.5333 331.7108)" style="fill:#FFDE80;" width="2.395" height="2.395"/>
							
								<rect x="215.239" y="240.848" transform="matrix(0.4218 -0.9067 0.9067 0.4218 -94.312 336.2079)" style="fill:#FFDE80;" width="2.395" height="2.395"/>
							
								<rect x="216.677" y="237.756" transform="matrix(0.4218 -0.9067 0.9067 0.4218 -90.6758 335.7239)" style="fill:#FFDE80;" width="2.395" height="2.395"/>
							
								<rect x="218.107" y="234.683" transform="matrix(0.4218 -0.9067 0.9067 0.4218 -87.0631 335.243)" style="fill:#FFDE80;" width="2.395" height="2.395"/>
							
								<rect x="218.155" y="242.205" transform="matrix(0.4218 -0.9067 0.9067 0.4218 -93.8556 339.6362)" style="fill:#FFDE80;" width="2.395" height="2.395"/>
							
								<rect x="219.593" y="239.112" transform="matrix(0.4218 -0.9067 0.9067 0.4218 -90.2195 339.1522)" style="fill:#FFDE80;" width="2.395" height="2.395"/>
							
								<rect x="221.023" y="236.039" transform="matrix(0.4218 -0.9067 0.9067 0.4218 -86.6068 338.6713)" style="fill:#FFDE80;" width="2.395" height="2.395"/>
						</g>
					</g>
				</g>
				<g>
					<linearGradient id="SVGID_11_" gradientUnits="userSpaceOnUse" x1="220.0241" y1="130.8886" x2="371.5966" y2="130.8886">
						<stop  offset="0" style="stop-color:#FFFFFF"/>
						<stop  offset="0.1059" style="stop-color:#F7F9FC"/>
						<stop  offset="0.273" style="stop-color:#E0E7F3"/>
						<stop  offset="0.4806" style="stop-color:#BBCBE5"/>
						<stop  offset="0.7206" style="stop-color:#87A4D1"/>
						<stop  offset="0.9848" style="stop-color:#4673B8"/>
						<stop  offset="0.9975" style="stop-color:#4370B7"/>
					</linearGradient>
					<path style="fill:url(#SVGID_11_);" d="M231.997,76.014c-2.513-0.528-7.948,11.823-9.687,18.402
						c-2.603,9.848-2.554,19.71-1.932,29.531c0.487,7.679,2.827,17.415,6.886,24.099c4.193,6.903,10.254,13.098,17.29,15.964
						c-2.695,3.086-5.484,12.322-5.484,12.322l21.899,9.49l7.05-13.678c0,0,22.717,7.351,35.694,4.756
						c26.324-5.265,32.356-10.108,55.479-13.626c2.519-4.286,4.421-7.012,8.62-12.94c4.884-6.895,5.918-14.339-2.223-20.008
						c-12.204,5.442-16.414,3.29-29.748,5.58c-18.656,3.204-37.527-3.152-53.351-12.47c-13.348-7.86-17.002-15.892-25.268-27.804
						c-5.775-8.322-13.109-14.927-23.266-16.863C233.742,76.987,234.612,75.66,231.997,76.014z"/>
					<circle style="fill:#68B6C1;" cx="307.527" cy="79.887" r="79.887"/>
					<g>
						<linearGradient id="SVGID_12_" gradientUnits="userSpaceOnUse" x1="227.7838" y1="85.9683" x2="378.9874" y2="85.9683">
							<stop  offset="0" style="stop-color:#00BFA7"/>
							<stop  offset="0.2168" style="stop-color:#00AAA1"/>
							<stop  offset="0.6614" style="stop-color:#007593"/>
							<stop  offset="1" style="stop-color:#004887"/>
						</linearGradient>
						<path style="fill:url(#SVGID_12_);" d="M375.31,90.054c4.357-11.62,7.262-29.05-5.81-36.312
							c-21.787-11.62-56.384-37.771-66.815-40.67c-13.072-2.905-27.597,1.452-36.312,8.715
							c-19.774,18.055-33.438,42.217-38.589,67.967c4.865,39.461,38.482,70.019,79.259,70.019c15.716,0,30.359-4.556,42.716-12.394
							C360.429,128.786,368.37,108.097,375.31,90.054z"/>
						<path style="fill:#68B6C1;" d="M227.311,84.673c-0.03-0.471-0.049-0.944-0.07-1.417
							C227.26,83.73,227.283,84.202,227.311,84.673z"/>
						<path style="fill:#68B6C1;" d="M227.783,89.751c-0.152-1.231-0.27-2.472-0.369-3.719
							C227.509,87.28,227.631,88.52,227.783,89.751z"/>
					</g>
					<linearGradient id="SVGID_13_" gradientUnits="userSpaceOnUse" x1="227.6394" y1="73.6903" x2="387.4136" y2="73.6903">
						<stop  offset="0.0025" style="stop-color:#486BED"/>
						<stop  offset="0.1475" style="stop-color:#4359D1"/>
						<stop  offset="0.4233" style="stop-color:#3B3AA2"/>
						<stop  offset="0.6674" style="stop-color:#362480"/>
						<stop  offset="0.8679" style="stop-color:#32166B"/>
						<stop  offset="1" style="stop-color:#311163"/>
					</linearGradient>
					<path style="fill:url(#SVGID_13_);" d="M387.414,79.887C387.414,35.767,351.647,0,307.527,0s-79.887,35.767-79.887,79.887
						c0,3.344,0.229,6.632,0.628,9.868c5.151-25.75,18.814-49.913,38.589-67.968c8.715-7.262,23.24-11.62,36.312-8.715
						c10.431,2.899,45.027,29.05,66.815,40.67c13.072,7.262,10.167,24.692,5.81,36.312c-6.939,18.042-14.88,38.731-25.551,57.326
						C372.576,133.216,387.414,108.292,387.414,79.887z"/>
				</g>
			</g>
			<path style="opacity:0.3;fill:#FFFFFF;" d="M375.394,89.885c4.357-11.62,7.262-29.05-5.81-36.312
				c-21.787-11.62-56.384-37.771-66.815-40.67c-13.072-2.905-27.597,1.452-36.312,8.715c-19.774,18.055-33.438,42.217-38.589,67.967
				c3.983,41.568,38.482,70.019,79.259,70.019c15.716,0,30.359-4.556,42.716-12.394C360.514,128.616,368.455,107.927,375.394,89.885
				z"/>
		</g>
		<g id="XMLID_2_">
			<linearGradient id="XMLID_3_" gradientUnits="userSpaceOnUse" x1="189.5282" y1="132.3682" x2="372.9297" y2="132.3682">
				<stop  offset="0" style="stop-color:#FFFFFF"/>
				<stop  offset="0.1059" style="stop-color:#F7F9FC"/>
				<stop  offset="0.273" style="stop-color:#E0E7F3"/>
				<stop  offset="0.4806" style="stop-color:#BBCBE5"/>
				<stop  offset="0.7206" style="stop-color:#87A4D1"/>
				<stop  offset="0.9848" style="stop-color:#4673B8"/>
				<stop  offset="0.9975" style="stop-color:#4370B7"/>
			</linearGradient>
			<path id="XMLID_832_" style="fill-rule:evenodd;clip-rule:evenodd;fill:url(#XMLID_3_);" d="M189.591,101.585
				c-0.534-2.162,2.491-20.677,2.491-20.677l12.821,3.333c0,0,35.182,20.152,47.986,34.618c12.803,14.466,11.013,23.29,11.013,23.29
				c20.924-2.114,69.831-2.561,95.428,14.258l13.6,8.937l-24.524,18.486l-94.196-18.169L189.591,101.585z"/>
			<linearGradient id="XMLID_4_" gradientUnits="userSpaceOnUse" x1="189.4791" y1="130.6534" x2="374.189" y2="130.6534">
				<stop  offset="0" style="stop-color:#FF543C"/>
				<stop  offset="0.1039" style="stop-color:#FF4B40"/>
				<stop  offset="0.2718" style="stop-color:#FF3349"/>
				<stop  offset="0.4817" style="stop-color:#FF0D59"/>
				<stop  offset="0.5433" style="stop-color:#FF005E"/>
				<stop  offset="0.6695" style="stop-color:#C7045F"/>
				<stop  offset="0.895" style="stop-color:#680A60"/>
				<stop  offset="0.9967" style="stop-color:#420C60"/>
			</linearGradient>
			<path id="XMLID_815_" style="fill-rule:evenodd;clip-rule:evenodd;fill:url(#XMLID_4_);" d="M193.119,96.95
				c-0.713-2.242-3.64-15.8-3.64-15.8l2.603-0.243l66.983,67.047l113.865,17.389l1.259,2.309l-15.71,12.747l-103.022-21.206
				L193.119,96.95z"/>
			<linearGradient id="XMLID_5_" gradientUnits="userSpaceOnUse" x1="154.5253" y1="191.37" x2="279.2425" y2="191.37">
				<stop  offset="0" style="stop-color:#FF543C"/>
				<stop  offset="0.1039" style="stop-color:#FF4B40"/>
				<stop  offset="0.2718" style="stop-color:#FF3349"/>
				<stop  offset="0.4817" style="stop-color:#FF0D59"/>
				<stop  offset="0.5433" style="stop-color:#FF005E"/>
				<stop  offset="0.6695" style="stop-color:#C7045F"/>
				<stop  offset="0.895" style="stop-color:#680A60"/>
				<stop  offset="0.9967" style="stop-color:#420C60"/>
			</linearGradient>
			<polygon id="XMLID_814_" style="fill-rule:evenodd;clip-rule:evenodd;fill:url(#XMLID_5_);" points="261.656,150.919 
				193.816,82.158 154.525,224.263 217.525,292.263 255.113,300.582 279.243,153.511 			"/>
			<linearGradient id="XMLID_6_" gradientUnits="userSpaceOnUse" x1="217.188" y1="234.5337" x2="374.189" y2="234.5337">
				<stop  offset="0" style="stop-color:#FF543C"/>
				<stop  offset="0.1039" style="stop-color:#FF4B40"/>
				<stop  offset="0.2718" style="stop-color:#FF3349"/>
				<stop  offset="0.4817" style="stop-color:#FF0D59"/>
				<stop  offset="0.5433" style="stop-color:#FF005E"/>
				<stop  offset="0.6695" style="stop-color:#C7045F"/>
				<stop  offset="0.895" style="stop-color:#680A60"/>
				<stop  offset="0.9967" style="stop-color:#420C60"/>
			</linearGradient>
			<path id="XMLID_813_" style="fill-rule:evenodd;clip-rule:evenodd;fill:url(#XMLID_6_);" d="M335.188,319.256
				c-4.283-1.907-118-27-118-27l40.078-142.444l116.923,17.84L335.188,319.256z"/>
			<polygon id="XMLID_743_" style="fill-rule:evenodd;clip-rule:evenodd;fill:#E5E6E7;" points="265.566,285.113 320.586,295.201 
				318.888,304.985 262.775,294.763 			"/>
			<polygon id="XMLID_742_" style="fill-rule:evenodd;clip-rule:evenodd;fill:#E5E6E7;" points="274.609,180.096 339.609,191.251 
				333.275,216.763 268.275,204.934 			"/>
		</g>
		<linearGradient id="SVGID_14_" gradientUnits="userSpaceOnUse" x1="309.6571" y1="310.4288" x2="437.5204" y2="310.4288">
			<stop  offset="0" style="stop-color:#FEE662"/>
			<stop  offset="0.1846" style="stop-color:#FED15D"/>
			<stop  offset="0.5658" style="stop-color:#FF9B50"/>
			<stop  offset="1" style="stop-color:#FF5740"/>
		</linearGradient>
		<path style="fill:url(#SVGID_14_);" d="M430.818,337.484c6.708-10.468,8.411-23.176,4.973-34.942
			c-3.143-10.754-10.675-24.005-23.574-21.401c-6.975,0.235-16.933,3.808-23.184,5.681c-7.177,2.151-12.135,7.941-18.928,2.947
			c-4.997-3.673-25.071-22.505-29.889-14.514c-2.433,4.037,17.404,14.61,15.571,20.419c-10.968-0.287-25.684-26.59-36.663-19.411
			c-7.229,4.727,20.27,25.255,23.171,28.665c-7.383-4.082-13.386-9.809-19.306-15.395c-3.268-3.084-10.322-6.203-12.156,0.953
			c-1.504,5.866,16.369,14.972,19.262,22.828c-4.224-1.333-4.705-2.988-7.638-5.861c-2.552-2.5-6.456-11.784-11.469-9.845
			c-3.003,1.161-0.546,7.21,3.589,12.779c3.109,7.925,10.961,16.304,20.807,16.331c0.493,0.001,1.038-0.029,1.579-0.106
			c2.534,0.673,6.193,1.21,12.359,1.782c6.575,0.61,15.169,1.445,19.897,4.874c3.659,2.654,4.237,7.036,9.708,7.804
			c4.158,0.584,5.982-0.078,10.123,1.139c8.294,2.438,18.381,4.606,26.973,5.303C423.114,348.088,427.151,343.206,430.818,337.484z"
			/>
	</g>
</g>
<g id="Layer_1">
</g>
</svg>
