<?xml version="1.0" encoding="utf-8"?>
<!-- Generator: Adobe Illustrator 19.0.0, SVG Export Plug-In . SVG Version: 6.00 Build 0)  -->
<svg version="1.1" id="Layer_1" xmlns="http://www.w3.org/2000/svg" xmlns:xlink="http://www.w3.org/1999/xlink" x="0px" y="0px"
	 viewBox="-217 160 588.8 706" style="enable-background:new -217 160 588.8 706;" xml:space="preserve">
<style type="text/css">
	.st0{fill:url(#SVGID_1_);}
	.st1{fill:url(#SVGID_2_);}
	.st2{fill:url(#SVGID_3_);}
	.st3{fill:url(#SVGID_4_);}
	.st4{fill:url(#SVGID_5_);}
	.st5{fill:url(#SVGID_6_);}
	.st6{fill:url(#SVGID_7_);}
	.st7{fill:url(#SVGID_8_);}
	.st8{fill:url(#SVGID_9_);}
	.st9{fill:#161743;}
	.st10{fill:#B9BBBC;}
	.st11{fill:url(#SVGID_10_);}
	.st12{fill:url(#SVGID_11_);}
	.st13{fill:url(#SVGID_12_);}
	.st14{fill:url(#SVGID_13_);}
	.st15{fill:url(#SVGID_14_);}
	.st16{fill:url(#SVGID_15_);}
	.st17{fill:url(#SVGID_16_);}
	.st18{fill:#FFFFFF;}
	.st19{fill:url(#SVGID_17_);}
	.st20{fill:url(#SVGID_18_);}
	.st21{fill:url(#SVGID_19_);}
	.st22{fill:url(#SVGID_20_);}
	.st23{fill:#F2C977;}
	.st24{fill:url(#SVGID_21_);}
	.st25{fill:url(#SVGID_22_);}
	.st26{fill:url(#SVGID_23_);}
	.st27{fill:url(#SVGID_24_);}
	.st28{fill:url(#SVGID_25_);}
	.st29{fill:url(#SVGID_26_);}
	.st30{fill:url(#SVGID_27_);}
	.st31{fill:url(#SVGID_28_);}
	.st32{fill:url(#SVGID_29_);}
	.st33{fill:url(#SVGID_30_);}
	.st34{fill:#EBEBEB;}
</style>
<g id="rocket_x5F_build">
	<g>
		
			<linearGradient id="SVGID_1_" gradientUnits="userSpaceOnUse" x1="374.8342" y1="576.8969" x2="280.1942" y2="603.4091" gradientTransform="matrix(0.9994 -3.450000e-002 -3.450000e-002 -0.9994 -85.6609 1320.9641)">
			<stop  offset="2.500000e-003" style="stop-color:#486BED"/>
			<stop  offset="0.1346" style="stop-color:#4766E5"/>
			<stop  offset="0.3434" style="stop-color:#4357CE"/>
			<stop  offset="0.6026" style="stop-color:#3D3FA9"/>
			<stop  offset="0.8996" style="stop-color:#341D76"/>
			<stop  offset="1" style="stop-color:#311163"/>
		</linearGradient>
		<path class="st0" d="M241.6,634c-0.6-0.7-1.4-1.3-2.2-2c-8.4-6.9-20.1-8.8-30.3-5.1c-1,0.4-1.9,0.7-2.7,1.2
			c-6.6,3.4-49.8,143.7-45,158.3c6.5,19.8,32.9,21.6,32.9,21.6s25.6,7,38.2-9.7C241.8,786.1,246.7,639.4,241.6,634z"/>
		
			<linearGradient id="SVGID_2_" gradientUnits="userSpaceOnUse" x1="712.1071" y1="577.3181" x2="617.4655" y2="603.8309" gradientTransform="matrix(-0.9994 3.450000e-002 -3.450000e-002 -0.9994 665.8079 1295.437)">
			<stop  offset="2.500000e-003" style="stop-color:#486BED"/>
			<stop  offset="0.1559" style="stop-color:#4662DF"/>
			<stop  offset="0.4478" style="stop-color:#3F49B9"/>
			<stop  offset="0.8444" style="stop-color:#35227D"/>
			<stop  offset="1" style="stop-color:#311163"/>
		</linearGradient>
		<path class="st1" d="M-45.1,643.9c0.6-0.7,1.3-1.4,2-2.1c7.9-7.4,19.4-10.2,29.9-7.1c1,0.3,1.9,0.6,2.8,1
			c6.8,3,59.6,139.9,55.8,154.9C40.3,810.7,14,814.3,14,814.3s-25.1,8.7-38.8-7C-34.9,795.6-49.8,649.7-45.1,643.9z"/>
		
			<linearGradient id="SVGID_3_" gradientUnits="userSpaceOnUse" x1="-25.0446" y1="672.5797" x2="215.1321" y2="378.9561" gradientTransform="matrix(1 0 0 -1 0 1028.072)">
			<stop  offset="0" style="stop-color:#FF543C"/>
			<stop  offset="0.1039" style="stop-color:#FF4B40"/>
			<stop  offset="0.2718" style="stop-color:#FF3349"/>
			<stop  offset="0.4817" style="stop-color:#FF0D59"/>
			<stop  offset="0.5433" style="stop-color:#FF005E"/>
			<stop  offset="0.6695" style="stop-color:#C7045F"/>
			<stop  offset="0.895" style="stop-color:#680A60"/>
			<stop  offset="0.9967" style="stop-color:#420C60"/>
		</linearGradient>
		<path class="st2" d="M83.8,304.6c-30.6,0-59.8-3.3-86.5-9.4C-50.9,402.4-85.6,557.2,10,703c19.9,30.3,54.2,48.1,90.5,46.8l0,0l0,0
			c36.3-1.3,69.3-21.3,87.1-52.9c83.9-149.6,41.5-299.2-12.8-402.7C146.9,300.9,116.1,304.6,83.8,304.6z"/>
		
			<linearGradient id="SVGID_4_" gradientUnits="userSpaceOnUse" x1="270.3413" y1="708.7714" x2="145.4684" y2="833.6443" gradientTransform="matrix(0.9994 -3.450000e-002 3.450000e-002 0.9994 -143.4866 -342.883)">
			<stop  offset="0" style="stop-color:#FEE662"/>
			<stop  offset="0.1846" style="stop-color:#FED15D"/>
			<stop  offset="0.5658" style="stop-color:#FF9B50"/>
			<stop  offset="1" style="stop-color:#FF5740"/>
		</linearGradient>
		<path class="st3" d="M178.7,422.7c-1.8-52.7-44.8-94.1-96-92.3s-91.2,46-89.4,98.7c1.8,52.7,44.8,94.1,96,92.3
			C140.5,519.7,180.5,475.5,178.7,422.7z"/>
		
			<linearGradient id="SVGID_5_" gradientUnits="userSpaceOnUse" x1="430.0968" y1="831.175" x2="312.74" y2="950.5127" gradientTransform="matrix(-0.9994 3.450000e-002 -3.450000e-002 -0.9994 489.6948 1301.5133)">
			<stop  offset="0" style="stop-color:#FEE662"/>
			<stop  offset="0.1846" style="stop-color:#FED15D"/>
			<stop  offset="0.5658" style="stop-color:#FF9B50"/>
			<stop  offset="1" style="stop-color:#FF5740"/>
		</linearGradient>
		<path class="st4" d="M148.4,484.2c32.8-35.2,31.5-89.8-3-122c-34.5-32.2-89-29.7-121.9,5.5c-32.8,35.2-31.5,89.8,3,122
			C61,521.8,115.6,519.4,148.4,484.2z"/>
		
			<linearGradient id="SVGID_6_" gradientUnits="userSpaceOnUse" x1="318.8127" y1="813.6569" x2="466.4088" y2="813.6569" gradientTransform="matrix(-0.7311 -0.6823 0.6823 -0.7311 -182.1727 1286.6107)">
			<stop  offset="0" style="stop-color:#300D5D"/>
			<stop  offset="0.9975" style="stop-color:#CB1B5E"/>
		</linearGradient>
		<path class="st5" d="M88.5,496.9c41.1-1.4,73.4-35.3,72-75.6c-1.4-40.3-35.9-71.8-77-70.4c-41.1,1.4-73.4,35.3-72,75.6
			C12.8,466.8,47.3,498.3,88.5,496.9z"/>
		
			<linearGradient id="SVGID_7_" gradientUnits="userSpaceOnUse" x1="223.1434" y1="747.8011" x2="10.883" y2="807.2635" gradientTransform="matrix(1 0 0 -1 0 1028.072)">
			<stop  offset="0" style="stop-color:#311163"/>
			<stop  offset="0.1556" style="stop-color:#35227D"/>
			<stop  offset="0.5522" style="stop-color:#3F49B9"/>
			<stop  offset="0.8441" style="stop-color:#4662DF"/>
			<stop  offset="0.9975" style="stop-color:#486BED"/>
		</linearGradient>
		<path class="st6" d="M83.8,306.5c32.3,0,63.1-3.7,90.9-10.4C131.2,213.3,80.1,160,80.1,160S34.6,214.4-2.7,297.2
			C24,303.2,53.2,306.5,83.8,306.5z"/>
		
			<linearGradient id="SVGID_8_" gradientUnits="userSpaceOnUse" x1="169.6941" y1="591.8959" x2="244.9218" y2="591.8959" gradientTransform="matrix(0.9994 -3.450000e-002 -3.450000e-002 -0.9994 -85.6609 1320.9641)">
			<stop  offset="2.500000e-003" style="stop-color:#486BED"/>
			<stop  offset="0.1475" style="stop-color:#4359D1"/>
			<stop  offset="0.4233" style="stop-color:#3B3AA2"/>
			<stop  offset="0.6674" style="stop-color:#362480"/>
			<stop  offset="0.8679" style="stop-color:#32166B"/>
			<stop  offset="1" style="stop-color:#311163"/>
		</linearGradient>
		<path class="st7" d="M115.9,634.7c-0.8-0.5-1.6-1-2.5-1.5c-9.6-5.1-21.4-4.6-30.7,1.1c-0.9,0.5-1.7,1.1-2.4,1.7
			c-5.8,4.7-20.2,150.7-12.6,164.1c10.3,18.1,36.6,14.6,36.6,14.6s26.5,1.7,35.5-17.1C146.4,783.7,122,639,115.9,634.7z"/>
		<g>
			
				<linearGradient id="SVGID_9_" gradientUnits="userSpaceOnUse" x1="-164.9888" y1="442.2327" x2="-105.266" y2="382.51" gradientTransform="matrix(1 0 0 -1 0 1028.072)">
				<stop  offset="0" style="stop-color:#FFFFFF"/>
				<stop  offset="0.1254" style="stop-color:#FAFBFD"/>
				<stop  offset="0.272" style="stop-color:#ECF1F8"/>
				<stop  offset="0.4293" style="stop-color:#D4DFEF"/>
				<stop  offset="0.594" style="stop-color:#B4C6E2"/>
				<stop  offset="0.7647" style="stop-color:#89A5D2"/>
				<stop  offset="0.9377" style="stop-color:#567FBE"/>
				<stop  offset="0.9975" style="stop-color:#4370B7"/>
			</linearGradient>
			<path class="st8" d="M-96.5,542.2c0,0-10,29.2-16.2,37.3c-6.1,8-23.9,19.3-30.8,25.8c-0.1,0.1-0.1,0.1-0.2,0.2l-3.1-6.1
				c0,0-0.3,3.4-2.9,3.3c-4.3-0.3-11.7-4.2-18-5.4c-2.5-0.5-8.7,1.3-11,2.4c-3.8,1.7-3,17.5-3,17.5c-12.5,40.1,3.7,70.7,3.7,70.7
				l39.4-9.1c-4.3-25-1.3-45.2,3.5-55.1c10.4-6.2,28.5-22.1,34.1-32.4c5.5-10.1,12.1-44.3,12.1-44.3L-96.5,542.2z"/>
			<path class="st9" d="M-177.9,687.8l33.4,70.4l-33.7,65.7c0,0,18.5,15.2,35.8,9.2c0,0-2.4-9-20.1-16c0,0,40.4-47.3,42.4-58.3
				c2-10.6-21.4-47.8-21.4-47.8l44,30.6l9.2,82.5c0,0,25,9,37.8,0c0,0-10.9-6.1-27.8-10.2c0,0,2.5-47.3,0.1-77.1
				c-1.1-14.1-49.8-40.8-60.2-58C-138.5,678.8-153.2,676-177.9,687.8z"/>
			<path class="st10" d="M-141.1,683.7c0,0-4.1-0.9-9.6,1.6l-1.6-4.5c0,0,5.6-2.2,9.8-1.1L-141.1,683.7z"/>
			<g>
				
					<linearGradient id="SVGID_10_" gradientUnits="userSpaceOnUse" x1="-178.6188" y1="446.5176" x2="-143.2128" y2="446.5176" gradientTransform="matrix(1 0 0 -1 0 1028.072)">
					<stop  offset="0" style="stop-color:#FEE662"/>
					<stop  offset="1" style="stop-color:#FFBF3F"/>
				</linearGradient>
				<path class="st11" d="M-147.4,571.3c-5.7-10.8-9.6-18.1-21.5-14.1c-8.9,3-12,10.8-8.3,20.7c2.7,7.3,5.8,9.8,8.3,11.5
					c2.4,1.6,3.9,2.9,4.4,5.8c0,1.6-0.3,3.6-1,6.6l4.4,0.8l9,4.4l5.2-4.1c0,0-3.4-7.9-2.1-12.9c0.7-0.6,2.2,0,4.3-2.2
					C-144.6,587.9-140,585.2-147.4,571.3z"/>
				
					<linearGradient id="SVGID_11_" gradientUnits="userSpaceOnUse" x1="-182.1454" y1="456.9542" x2="-148.6326" y2="456.9542" gradientTransform="matrix(1 0 0 -1 0 1028.072)">
					<stop  offset="2.500000e-003" style="stop-color:#212121"/>
					<stop  offset="0.5937" style="stop-color:#0F0F0F"/>
					<stop  offset="1" style="stop-color:#000000"/>
				</linearGradient>
				<path class="st12" d="M-165.2,563.9c-0.4-0.4,0.9,5.6-2,7.8c-2.9,2.2-1.9,7.2-1.9,7.2s-2.2-3.7-4.2-0.6c-2,3.2,4.2,10.7,5.9,7.1
					l0.1,4.8c0,0-1.6-0.1-2.9-1.4c-1.3-1.3-14.6-15-11.5-22.3c2-4.7,5.5-4.9,5.5-4.9s3.9-6.1,10-9c6.2-2.9,14,2.9,16,5.9
					c2,3,1.5,9.7,1.5,9.7s-1.1-3-4.4-3.2C-156.4,565-162.3,566.2-165.2,563.9z"/>
			</g>
			<path class="st9" d="M-153.6,605.7l3.2,6.9c0,0-5.7,36.8-1.5,49.8l5.2,5.1l2.5-7.1c-4.5-8.4-3.7-48.3-3.7-48.3l2.2-6l-3.4-2.7
				L-153.6,605.7z"/>
			
				<linearGradient id="SVGID_12_" gradientUnits="userSpaceOnUse" x1="-167.595" y1="425.407" x2="-141.443" y2="425.407" gradientTransform="matrix(1 0 0 -1 0 1028.072)">
				<stop  offset="0" style="stop-color:#FFFFFF"/>
				<stop  offset="0.1059" style="stop-color:#F7F9FC"/>
				<stop  offset="0.273" style="stop-color:#E0E7F3"/>
				<stop  offset="0.4806" style="stop-color:#BBCBE5"/>
				<stop  offset="0.7206" style="stop-color:#87A4D1"/>
				<stop  offset="0.9848" style="stop-color:#4673B8"/>
				<stop  offset="0.9975" style="stop-color:#4370B7"/>
			</linearGradient>
			<polygon class="st13" points="-146.7,599.4 -149.6,601.7 -164.6,593.6 -167.6,597.3 -158.4,611.8 -149.1,604.7 -144.2,610.4 
				-141.4,604.3 			"/>
			
				<linearGradient id="SVGID_13_" gradientUnits="userSpaceOnUse" x1="-201.9776" y1="414.578" x2="-162.9843" y2="375.5847" gradientTransform="matrix(1 0 0 -1 0 1028.072)">
				<stop  offset="0" style="stop-color:#FFFFFF"/>
				<stop  offset="0.1165" style="stop-color:#F1F5FA"/>
				<stop  offset="0.3351" style="stop-color:#CDD9EC"/>
				<stop  offset="0.6324" style="stop-color:#93ADD6"/>
				<stop  offset="0.9937" style="stop-color:#4471B7"/>
				<stop  offset="0.9975" style="stop-color:#4370B7"/>
			</linearGradient>
			<path class="st14" d="M-163.1,645.2l-1.2,8.7c0,0-48.7,0.1-52.3-12.8c-3.9-14.2,27.1-43.2,41.7-41.5c3.2,0.4,9.2,5.9,9.3,9.2
				c0.1,9.4-31.5,27.7-31.5,27.7L-163.1,645.2z"/>
			
				<linearGradient id="SVGID_14_" gradientUnits="userSpaceOnUse" x1="-164.3259" y1="374.9517" x2="-151.6835" y2="374.9517" gradientTransform="matrix(1 0 0 -1 0 1028.072)">
				<stop  offset="0" style="stop-color:#FEE662"/>
				<stop  offset="1" style="stop-color:#FFBF3F"/>
			</linearGradient>
			<path class="st15" d="M-163.2,646.3c0,0,10.8,1.1,11.5,3.2s-3.2,10.1-6.2,10.5c-1.5,0.2-1.7-1.3-4.3-4.2c-2.5-3-2-2.2-2-2.2
				L-163.2,646.3z"/>
			
				<linearGradient id="SVGID_15_" gradientUnits="userSpaceOnUse" x1="-96.613" y1="491.5652" x2="-79.0588" y2="491.5652" gradientTransform="matrix(1 0 0 -1 0 1028.072)">
				<stop  offset="0" style="stop-color:#FEE662"/>
				<stop  offset="1" style="stop-color:#FFBF3F"/>
			</linearGradient>
			<path class="st16" d="M-84.8,525c-1-0.5-3.2,2.9-4.9,6.3c-1,0.5-2,1.2-2.7,1.8c-2.5,2-2.3,8.3-2.3,8.3l0,0
				c-1,2.2-1.8,3.9-1.8,3.9l5.4,2.8c0,0,10.4-8.6,10.3-10.6c0-0.1,0-0.2-0.1-0.3c0.4-0.5,0.7-1,1.1-1.5
				C-76.8,530.9-83.3,525.8-84.8,525z"/>
		</g>
		<g>
			<linearGradient id="SVGID_16_" gradientUnits="userSpaceOnUse" x1="-150.9418" y1="484.8452" x2="-54.7018" y2="484.8452">
				<stop  offset="0" style="stop-color:#00BFA7"/>
				<stop  offset="0.2168" style="stop-color:#00AAA1"/>
				<stop  offset="0.6614" style="stop-color:#007593"/>
				<stop  offset="1" style="stop-color:#004887"/>
			</linearGradient>
			<path class="st17" d="M-54.7,480.9c0,2.2,0,4.3,0,6.5c-0.1,0.3-0.2,0.7-0.2,1c-0.1,3.5-2.3,6-5.8,6.5c-1.1,0.1-2.3,0.3-3.5,0.4
				c-0.6,0-0.9,0.2-1.1,0.8c-1,2.5-2.1,5.1-3.3,7.6c-0.3,0.7-0.3,1.1,0.2,1.6c0.8,1,1.5,1.9,2.3,2.9c2,2.7,1.7,6.1-0.7,8.5
				c-1.5,1.6-3.1,3.1-4.7,4.6c-2.6,2.4-6,2.6-8.8,0.4c-1.2-0.9-2.4-1.9-3.3-2.6c-3.1,1.1-6,2.1-8.8,3.2c-0.4,0.1-0.8,0.6-0.8,1
				c-0.2,1.2-0.4,2.5-0.5,3.8c-0.2,1.5-0.7,3-1.9,3.9c-1.2,0.8-2.5,1.4-3.8,2c-1.4,0-2.9,0-4.3,0c-0.9-0.1-1.8-0.2-2.7-0.2
				c-3.9,0-6.5-2.5-6.9-6.4c-0.1-1.2-0.2-2.5-0.4-3.7c-0.1-0.4-0.4-0.8-0.8-1c-2.4-1.1-4.8-2.1-7.2-3.1c-0.3-0.1-0.9-0.1-1.2,0.1
				c-1.2,0.8-2.2,1.7-3.3,2.5c-2.7,2-6.2,1.7-8.6-0.7c-1.5-1.5-3-3.1-4.5-4.6c-2.5-2.6-2.6-6-0.5-8.8c0.8-1.1,1.7-2.1,2.6-3.2
				c0.4-0.5,0.4-0.8,0.1-1.4c-0.8-1.6-1.8-3.2-2.1-4.9c-0.5-2.3-1.7-3.2-4-3.1c-0.7,0-1.5-0.2-2.3-0.3c-2.8-0.6-4.3-2.4-5.2-4.9
				c0-3,0-6.1,0-9.1c0.1-0.1,0.2-0.3,0.2-0.4c0.9-3.2,2.9-4.8,6.2-5.1c1.1-0.1,2.2-0.2,3.3-0.4c0.3-0.1,0.8-0.4,0.9-0.7
				c1.1-2.8,2.2-5.6,3.4-8.7c-0.7-1-1.7-2.1-2.6-3.4c-2-2.7-1.8-6.2,0.6-8.6c1.5-1.6,3.1-3.1,4.7-4.6c2.6-2.4,6-2.6,8.8-0.4
				c1.1,0.8,2.1,1.7,3,2.5c2.4-1,4.6-2.3,6.9-2.9c2.6-0.6,3.4-1.9,3.5-4.4c0.1-2.6,1.4-4.5,3.7-5.7c0.4-0.2,0.8-0.4,1.3-0.6
				c3.1,0,6.2,0,9.4,0c0.1,0.1,0.2,0.2,0.4,0.2c3,0.9,4.7,2.9,5,6c0.1,0.8,0.2,1.7,0.2,2.5c0,0.9,0.4,1.3,1.3,1.6
				c1.6,0.5,3.1,1.1,4.6,1.7c1.3,0.6,2.5,1.8,3.7,1.7c1.2-0.1,2.3-1.5,3.4-2.3c2.6-1.8,6-1.6,8.2,0.5c1.7,1.6,3.4,3.3,5,5
				c2.3,2.5,2.4,6,0.3,8.7c-0.7,0.9-1.3,1.7-2.1,2.5c-0.4,0.5-0.4,0.9-0.2,1.5c1,2.3,2,4.7,2.8,7.1c0.3,1,0.8,1.3,1.7,1.4
				c1.8,0.3,3.6,0.5,5.2,1.2C-56.1,476.9-55.3,478.9-54.7,480.9z M-85.5,484.4c0-9.4-7.7-17.1-17.1-17.2c-9.4,0-17.2,7.7-17.2,17.1
				c0,9.4,7.7,17.1,17,17.1C-93.3,501.5-85.5,493.8-85.5,484.4z"/>
			<path class="st18" d="M-99.6,533c1.3-0.7,2.7-1.2,3.8-2c1.2-0.9,1.8-2.3,1.9-3.9c0.2-1.3,0.3-2.5,0.5-3.8c0.1-0.4,0.5-0.9,0.8-1
				c2.9-1.1,5.7-2.1,8.8-3.2c0.9,0.7,2.1,1.7,3.3,2.6c2.8,2.2,6.2,2.1,8.8-0.4c1.6-1.5,3.2-3,4.7-4.6c2.4-2.4,2.6-5.8,0.7-8.5
				c-0.7-1-1.5-2-2.3-2.9c-0.4-0.5-0.5-0.9-0.2-1.6c1.2-2.5,2.2-5,3.3-7.6c0.2-0.6,0.5-0.8,1.1-0.8c1.2-0.1,2.3-0.2,3.5-0.4
				c3.5-0.5,5.7-3,5.8-6.5c0-0.3,0.1-0.7,0.2-1c0,15.2,0,30.4,0,45.6C-69.7,533-84.6,533-99.6,533z"/>
			<path class="st18" d="M-150.9,489.3c0.9,2.5,2.5,4.4,5.2,4.9c0.7,0.1,1.5,0.3,2.3,0.3c2.3-0.1,3.5,0.8,4,3.1
				c0.4,1.7,1.3,3.3,2.1,4.9c0.3,0.5,0.3,0.9-0.1,1.4c-0.9,1-1.7,2.1-2.6,3.2c-2.2,2.8-2,6.3,0.5,8.8c1.5,1.6,3,3.1,4.5,4.6
				c2.4,2.4,5.9,2.6,8.6,0.7c1.1-0.8,2.2-1.7,3.3-2.5c0.3-0.2,0.9-0.2,1.2-0.1c2.4,1,4.8,2.1,7.2,3.1c0.3,0.2,0.7,0.6,0.8,1
				c0.2,1.2,0.3,2.5,0.4,3.7c0.3,3.9,3,6.3,6.9,6.4c0.9,0,1.8,0.1,2.7,0.2c-15.7,0-31.3,0-47,0
				C-150.9,518.4-150.9,503.8-150.9,489.3z"/>
			<path class="st18" d="M-107,436.7c-0.4,0.2-0.8,0.4-1.3,0.6c-2.4,1.2-3.7,3.1-3.7,5.7c-0.1,2.4-0.8,3.8-3.5,4.4
				c-2.4,0.5-4.6,1.8-6.9,2.9c-0.9-0.8-2-1.6-3-2.5c-2.8-2.2-6.3-2-8.8,0.4c-1.6,1.5-3.1,3.1-4.7,4.6c-2.4,2.4-2.6,5.9-0.6,8.6
				c0.9,1.2,1.8,2.4,2.6,3.4c-1.2,3-2.2,5.9-3.4,8.7c-0.1,0.3-0.6,0.7-0.9,0.7c-1.1,0.2-2.2,0.3-3.3,0.4c-3.2,0.3-5.2,2-6.2,5.1
				c0,0.1-0.1,0.3-0.2,0.4c0-14.5,0-28.9,0-43.4C-136.3,436.7-121.7,436.7-107,436.7z"/>
			<path class="st18" d="M-54.7,480.9c-0.6-2-1.4-4-3.4-4.8c-1.6-0.7-3.4-0.9-5.2-1.2c-1-0.1-1.4-0.4-1.7-1.4
				c-0.8-2.4-1.8-4.8-2.8-7.1c-0.3-0.6-0.3-1,0.2-1.5c0.7-0.8,1.4-1.7,2.1-2.5c2.1-2.7,2-6.1-0.3-8.7c-1.6-1.7-3.3-3.4-5-5
				c-2.2-2.1-5.6-2.3-8.2-0.5c-1.1,0.8-2.2,2.2-3.4,2.3c-1.2,0.1-2.5-1.2-3.7-1.7c-1.5-0.7-3-1.3-4.6-1.7c-0.9-0.3-1.2-0.7-1.3-1.6
				c0-0.8-0.2-1.7-0.2-2.5c-0.3-3.1-1.9-5.1-5-6c-0.1,0-0.3-0.2-0.4-0.2c14.3,0,28.6,0,43,0C-54.7,451.4-54.7,466.2-54.7,480.9z"/>
			<path class="st18" d="M-85.5,484.4c0,9.4-7.7,17.1-17.2,17.1c-9.4,0-17-7.7-17-17.1c0-9.4,7.8-17.2,17.2-17.1
				C-93.2,467.3-85.5,475-85.5,484.4z"/>
		</g>
		
			<linearGradient id="SVGID_17_" gradientUnits="userSpaceOnUse" x1="-11.9983" y1="786.8262" x2="80.867" y2="786.8262" gradientTransform="matrix(1 0 0 -1 0 1028.072)">
			<stop  offset="0" style="stop-color:#FEE662"/>
			<stop  offset="0.1846" style="stop-color:#FED15D"/>
			<stop  offset="0.5658" style="stop-color:#FF9B50"/>
			<stop  offset="1" style="stop-color:#FF5740"/>
		</linearGradient>
		<path class="st19" d="M14.9,259.6l0.5-0.8c0.8-1.6,1.2-3.2,1.3-4.9L56.2,240c1.2,1.2,2.5,2.2,4.1,3l0.9,0.3c7,2.8,15-0.2,18.3-7.1
			c1-2,1.4-4.1,1.4-6.2l-12.8,4.5c-0.7,0.2-1.4,0.3-2,0.2c-1.8-0.2-3.5-1.3-4.1-3.2c-0.4-1.3-0.3-2.6,0.2-3.7c0.3-0.5,0.6-1,1-1.4
			c0.5-0.5,1-0.9,1.7-1.1l12.8-4.5c-1.3-1.6-2.9-3-4.9-4c-6.9-3.3-15-0.6-18.7,5.9l-0.5,0.8c-0.8,1.6-1.1,3.3-1.3,4.9l-39.5,13.9
			c-1.2-1.2-2.5-2.2-4.1-3l-0.9-0.3c-7-2.8-15,0.2-18.3,7.1c-1,2-1.4,4.1-1.4,6.2L0.8,248c0.7-0.3,1.4-0.3,2-0.3
			c1.8,0.2,3.5,1.4,4.1,3.2c0.4,1.3,0.3,2.6-0.2,3.7c-0.2,0.5-0.6,1-1,1.4c-0.5,0.5-1,0.9-1.7,1.1l-12.8,4.5c1.3,1.6,3,3,5,4
			C3,268.8,11.1,266.1,14.9,259.6L14.9,259.6z"/>
		<g>
			
				<linearGradient id="SVGID_18_" gradientUnits="userSpaceOnUse" x1="25.9388" y1="663.5938" x2="382.6213" y2="306.9113" gradientTransform="matrix(1 0 0 -1 0 1028.072)">
				<stop  offset="0" style="stop-color:#FEE662"/>
				<stop  offset="1" style="stop-color:#FFBF3F"/>
			</linearGradient>
			<path class="st20" d="M231.8,210.3v38.6h-90.2v10.5h90.2v80.4h-74.3v-67.6h-15.9v67.6v10.5v79.7v10.5v79.7v10.5v79.7v10.5v79.7
				V711v79.7v10.5v54.9h15.9v-54.9h74.3v54.9h15.9v-54.9v-10.5V711v-10.5v-79.7v-10.5v-79.7v-10.5v-79.7v-10.5v-79.7v-10.5v-80.4
				v-10.5v-38.6H231.8z M231.8,790.7h-74.3V711h74.3V790.7z M231.8,700.5h-74.3v-79.7h74.3V700.5z M231.8,610.3h-74.3v-79.7h74.3
				V610.3z M231.8,520.1h-74.3v-79.7h74.3V520.1z M231.8,429.9h-74.3v-79.7h74.3V429.9z"/>
			<g>
				<g>
					
						<linearGradient id="SVGID_19_" gradientUnits="userSpaceOnUse" x1="242.586" y1="486.1444" x2="256.321" y2="486.1444" gradientTransform="matrix(1 0 0 -1 0 1028.072)">
						<stop  offset="0" style="stop-color:#FEE662"/>
						<stop  offset="1" style="stop-color:#FFBF3F"/>
					</linearGradient>
					<path class="st21" d="M251.3,547.8l5-5.9l-0.1-4.6c0,0-1,0.5-1,3.2l-2.1,1.8l-0.1-6l-1.6-5.4c0,0-1-0.7-1.1,0.4
						c-0.2,1.1,0.8,4.4,0.8,4.4l-0.2,2.7l-1.9-3.1l-4.5-2.7c0,0-0.8,1.3,2.1,2.8c1.3,0.7,1.4,3.1,1.4,3.1l-2.6-1.6
						c0,0-2.4-0.8-2.7-0.2c-0.3,0.5,0.7,1,0.7,1s-0.7,0-0.6,0.5c0.1,0.6,1.4,1.3,1.4,1.3l0.8,2.5c0,0-1.1,5.7,2.1,7.3
						c0.9,0.4,1.5,3.9,1.5,3.9L251.3,547.8z"/>
					
						<linearGradient id="SVGID_20_" gradientUnits="userSpaceOnUse" x1="245.332" y1="435.0151" x2="294.546" y2="435.0151" gradientTransform="matrix(1 0 0 -1 0 1028.072)">
						<stop  offset="0" style="stop-color:#FFFFFF"/>
						<stop  offset="0.1059" style="stop-color:#F7F9FC"/>
						<stop  offset="0.273" style="stop-color:#E0E7F3"/>
						<stop  offset="0.4806" style="stop-color:#BBCBE5"/>
						<stop  offset="0.7206" style="stop-color:#87A4D1"/>
						<stop  offset="0.9848" style="stop-color:#4673B8"/>
						<stop  offset="0.9975" style="stop-color:#4370B7"/>
					</linearGradient>
					<path class="st22" d="M288.7,617c-5.6-7.5-23.5-31.4-23.5-31.4l-11.5-38.9l-8.4,3.4l6.2,45c0,0,23.4,35.6,32.5,43.2
						C288.5,642.1,302.3,635.5,288.7,617z"/>
				</g>
				<path class="st23" d="M330,578c0.2,9.6-8.2,13.6-10.5,17.4c-2.3,3.8,0.9,9.7,0.9,9.7s-14.8,4.7-14,1.5c0.1-0.6,0.2-5.2-2.6-9
					c-1.3-1.7-7.6-3.6-7.8-5.4c-1.1-12.2,7.4-27,13.4-29.3c0.9-0.3,1.8-0.6,2.7-0.7C321.7,560.9,329.8,568.4,330,578z"/>
				
					<linearGradient id="SVGID_21_" gradientUnits="userSpaceOnUse" x1="279.523" y1="379.2411" x2="342.3824" y2="379.2411" gradientTransform="matrix(1 0 0 -1 0 1028.072)">
					<stop  offset="0" style="stop-color:#FFFFFF"/>
					<stop  offset="0.1059" style="stop-color:#F7F9FC"/>
					<stop  offset="0.273" style="stop-color:#E0E7F3"/>
					<stop  offset="0.4806" style="stop-color:#BBCBE5"/>
					<stop  offset="0.7206" style="stop-color:#87A4D1"/>
					<stop  offset="0.9848" style="stop-color:#4673B8"/>
					<stop  offset="0.9975" style="stop-color:#4370B7"/>
				</linearGradient>
				<path class="st24" d="M281.2,634.4c0,0,0.2,31.4-1.6,57.1l39.7-1.8c0,0,1.1-22.1,9.6-43.1c7-17.3,22.5-30.3,6.7-37.1
					c-16.8-7.2-40.4-1.2-48.9,2.3C280.6,614.3,281.2,634.4,281.2,634.4z"/>
				
					<linearGradient id="SVGID_22_" gradientUnits="userSpaceOnUse" x1="294.6223" y1="449.4032" x2="321.0074" y2="449.4032" gradientTransform="matrix(1 0 0 -1 0 1028.072)">
					<stop  offset="0" style="stop-color:#FEE662"/>
					<stop  offset="1" style="stop-color:#FFBF3F"/>
				</linearGradient>
				<path class="st25" d="M317.1,578.2c4.6-0.6,5.4,3.9,1,7c-6.3,4.6-5.7-0.4-5.7-0.4c-4.9,7.9-8.6,10.5-14.6,9.4
					c-8.9-4.2,2.5-27.9,11.5-31.3c8.8-0.3,10.4,4.4,10.4,4.4C315.3,571.2,317.1,578.2,317.1,578.2z"/>
				<path class="st9" d="M309.6,609.3l-3.1-4.7l-5,4.5l1.5,3.9c-9.3,15.3-18.2,45.5-18.2,45.5l4.7,16.4l5.1-14.6
					c-2.4-13.6,11-47.2,11-47.2L309.6,609.3z"/>
				<path class="st18" d="M299.9,609l-1.7,4.7l7-6c0,0,3,4.4,4.3,4.7c1.3,0.3,13.3-5.8,13.3-5.8l-2.1-5.5l-14.1,3.6l-0.6-1.1
					L299.9,609z"/>
				<path class="st9" d="M319.6,685c0,0,2.5,68,9.5,90.1c5.2,16.2,42.7,78.1,42.7,78.1s-15.5,14.2-23.9,12.6c0,0-5.4-2.6,14-15.9
					c0,0-44.8-57.5-50.2-71.6c-8.5-22.3-14.6-57.1-17.9-56.9c-3.3,0.2-6.5,55.2-5.1,63.3c5.1,30.5,8.9,63.3,10.3,67.9
					c0,0-17.2,11.9-27.2,7.2c0,0,5.5-7.6,18.9-8.2c0,0-16.7-58.3-19.2-71.5c-4.7-24.8,8.9-77.4,8.5-95.5
					C280,684.6,292.2,680.4,319.6,685z"/>
				<path class="st10" d="M285.1,690.9c0,0,2.6-2.7,9.5-0.7l-0.4-4.7c0,0-4.2-1-9.6-0.1L285.1,690.9z"/>
				
					<linearGradient id="SVGID_23_" gradientUnits="userSpaceOnUse" x1="302.3477" y1="451.244" x2="335.7633" y2="451.244" gradientTransform="matrix(1 0 0 -1 0 1028.072)">
					<stop  offset="2.500000e-003" style="stop-color:#212121"/>
					<stop  offset="0.5937" style="stop-color:#0F0F0F"/>
					<stop  offset="1" style="stop-color:#000000"/>
				</linearGradient>
				<path class="st26" d="M317.1,558c-1,0-2,0.1-2.8,0.4c-2.8-0.9-5.2-1.3-6.4-1.2c-2.5,0.3-4-0.9-4-0.9c-1.6,1-3.6,8.3,2.4,10.8
					c2.6,1.1,6,1.8,8.9,2.2c1.8,3.7-1.5,8-1.5,8s4.5,1.8,2.7,8.6c-1.8,6.7-1.2,10.1,3.7,11.6c0,0,11.6-6.9,14.3-16.7
					C338,568.2,335,558,317.1,558z"/>
				<g>
					
						<linearGradient id="SVGID_24_" gradientUnits="userSpaceOnUse" x1="230.5721" y1="359.0079" x2="252.479" y2="359.0079" gradientTransform="matrix(1 0 0 -1 0 1028.072)">
						<stop  offset="0" style="stop-color:#FEE662"/>
						<stop  offset="1" style="stop-color:#FFBF3F"/>
					</linearGradient>
					<path class="st27" d="M247.6,668.8l-5-5.9l-4.5-0.6c0,0,0.3,1,3,1.5l1.4,2.4l-6-0.9l-5.6,0.8c0,0-0.8,0.8,0.3,1.2
						c1.1,0.3,4.5-0.1,4.5-0.1l2.6,0.6l-3.3,1.4l-3.4,4c0,0,1.2,1,3.1-1.6c0.8-1.1,3.3-0.9,3.3-0.9l-2,2.3c0,0-1.2,2.2-0.6,2.7
						c0.5,0.4,1.1-0.5,1.1-0.5s-0.1,0.7,0.4,0.7c0.6,0,1.4-1.2,1.4-1.2l2.6-0.4c0,0,5.5,2,7.5-0.9c0.6-0.9,4.1-0.8,4.1-0.8
						L247.6,668.8z"/>
					
						<linearGradient id="SVGID_25_" gradientUnits="userSpaceOnUse" x1="246.958" y1="385.3172" x2="343.705" y2="385.3172" gradientTransform="matrix(1 0 0 -1 0 1028.072)">
						<stop  offset="0" style="stop-color:#FFFFFF"/>
						<stop  offset="0.1059" style="stop-color:#F7F9FC"/>
						<stop  offset="0.273" style="stop-color:#E0E7F3"/>
						<stop  offset="0.4806" style="stop-color:#BBCBE5"/>
						<stop  offset="0.7206" style="stop-color:#87A4D1"/>
						<stop  offset="0.9848" style="stop-color:#4673B8"/>
						<stop  offset="0.9975" style="stop-color:#4370B7"/>
					</linearGradient>
					<path class="st28" d="M327.3,613.6c-8.1,4.8-35.8,31.4-35.8,31.4L247,666.2l2,8.8l48.6-14.2c0,0,30.4-20.9,40-27.8
						C346.7,626.6,347.4,601.8,327.3,613.6z"/>
				</g>
			</g>
			<g>
				
					<linearGradient id="SVGID_26_" gradientUnits="userSpaceOnUse" x1="33.9463" y1="779.2625" x2="56.94" y2="779.2625" gradientTransform="matrix(1 0 0 -1 0 1028.072)">
					<stop  offset="0" style="stop-color:#FEE662"/>
					<stop  offset="1" style="stop-color:#FFBF3F"/>
				</linearGradient>
				<path class="st29" d="M56.9,254.4l-2.7-9.7c0,0-7.2-4.3-10.5-8c0,0-0.6,3,2.6,6.2l-9.2-4.9c0,0-5-0.8-2.3,2.1
					c2.7,3,2.6,6.1,3.1,8.7c0.5,2.6,10.5,6.8,13.2,11C53.8,264.1,56.9,254.4,56.9,254.4z"/>
				
					<linearGradient id="SVGID_27_" gradientUnits="userSpaceOnUse" x1="155.6076" y1="803.1736" x2="195.5898" y2="803.1736" gradientTransform="matrix(1 0 0 -1 0 1028.072)">
					<stop  offset="0" style="stop-color:#FEE662"/>
					<stop  offset="1" style="stop-color:#FFBF3F"/>
				</linearGradient>
				<path class="st30" d="M175.7,250.7c0.7-2.3,0.2-11,5.1-13.9c4.9-2.9,12.8-2.2,14.6-17.3c1.8-15.1-15.7-19.4-22.3-20.6
					c-6-1.1-18.4,16.9-17.5,21.2c1.3,6.6,6.7,12.5,6.7,12.5l-3.7,18.3L175.7,250.7z"/>
				
					<linearGradient id="SVGID_28_" gradientUnits="userSpaceOnUse" x1="163.8826" y1="813.6266" x2="201.5132" y2="813.6266" gradientTransform="matrix(1 0 0 -1 0 1028.072)">
					<stop  offset="2.500000e-003" style="stop-color:#212121"/>
					<stop  offset="0.5937" style="stop-color:#0F0F0F"/>
					<stop  offset="1" style="stop-color:#000000"/>
				</linearGradient>
				<path class="st31" d="M166.4,212.5c0,0,4-0.8,4.3,1.1c0.3,1.9-2.5,3.5-6.4,6.1c0,0-1.9,9,2.1,12.1c4,3.1,11.7,7.9,11.7,7.9
					s24.1-8.7,23.3-28.3c-0.7-19.6-21.9-23.5-33.1-21.7c0,0-3,3.2-3.1,6.3C165.3,200.7,167.9,206.7,166.4,212.5z"/>
				
					<linearGradient id="SVGID_29_" gradientUnits="userSpaceOnUse" x1="221.3405" y1="779.8085" x2="232.124" y2="779.8085" gradientTransform="matrix(1 0 0 -1 0 1028.072)">
					<stop  offset="0" style="stop-color:#FEE662"/>
					<stop  offset="1" style="stop-color:#FFBF3F"/>
				</linearGradient>
				<path class="st32" d="M222.3,251.7c0,0,0-0.1-0.1-0.4c-0.4-1.4-1.6-6,0.1-6.5c2.1-0.6,9.5-1.5,9.5-1.5l0.3,7.5l-4.5,2.2
					L222.3,251.7z"/>
				<path class="st9" d="M175.5,321.5c0,0,28.2,8.4,27.3,66.3c-0.2,11,0.1,26.3,0.1,26.3l3.4,16.1h-13l-1-14.7c0,0-3.9-16-5.3-41.1
					c-0.9-16.2-5.1-13.6-11-12.3c-4.8,1-11.4-0.4-13.1-0.4c-9,0,11.9,141.9,11.9,141.9l-3.4,16.3h-15.7l5.1-14.7
					c0,0-34.4-106.9-22.5-178C138.3,327.5,167.2,317.5,175.5,321.5z"/>
				
					<linearGradient id="SVGID_30_" gradientUnits="userSpaceOnUse" x1="51.0921" y1="748.2387" x2="228.3671" y2="748.2387" gradientTransform="matrix(1 0 0 -1 0 1028.072)">
					<stop  offset="0" style="stop-color:#FFFFFF"/>
					<stop  offset="0.1059" style="stop-color:#F7F9FC"/>
					<stop  offset="0.273" style="stop-color:#E0E7F3"/>
					<stop  offset="0.4806" style="stop-color:#BBCBE5"/>
					<stop  offset="0.7206" style="stop-color:#87A4D1"/>
					<stop  offset="0.9848" style="stop-color:#4673B8"/>
					<stop  offset="0.9975" style="stop-color:#4370B7"/>
				</linearGradient>
				<path class="st33" d="M222.3,248.8L204.4,274c0,0-5.9-22.4-15.9-27c-5.8-2.7-22.9,1.4-27.5-8.1c-0.2-0.4-0.6-0.6-1.3-0.7
					l0.1-0.1c0,0-0.1,0-0.4,0c-0.3,0-0.6,0-0.9,0c-2.2-0.1-7.5-1-16.9-5.5c-10.9-5.2-52.5,41.3-52.5,41.3l-33.3-23.3l-4.8,9.2
					c0,0,30.1,31.8,41,31.2c7.7-0.4,26.9-14.9,37.5-23.4c1.5,17.4,4.2,42.2,8.6,59.9l37.9-5.9c0,0-2.2-28.4,6.9-39.5
					c0,0,10.7,11.4,20.5,8.9c11.4-2.8,24.7-38.4,24.7-38.4L222.3,248.8z"/>
				<path class="st34" d="M156.1,239l5.7-4.2l15.4,7.1l2.7,3.9c0,0-9.5,6.3-23.8-6.4L156.1,239L156.1,239z"/>
				<polygon class="st9" points="136.9,337.3 136.9,321.7 175.6,316.8 178.3,322.8 				"/>
			</g>
		</g>
	</g>
</g>
<g id="Layer_1_1_">
</g>
</svg>
