<?xml version="1.0" encoding="iso-8859-1"?>
<!-- Generator: Adobe Illustrator 19.0.0, SVG Export Plug-In . SVG Version: 6.00 Build 0)  -->
<svg version="1.1" xmlns="http://www.w3.org/2000/svg" xmlns:xlink="http://www.w3.org/1999/xlink" x="0px" y="0px"
	 viewBox="0 0 588.804 705.964" style="enable-background:new 0 0 588.804 705.964;" xml:space="preserve">
<g id="rocket_x5F_build">
	<g>
		
			<linearGradient id="SVGID_1_" gradientUnits="userSpaceOnUse" x1="597.413" y1="283.7471" x2="502.7731" y2="257.2349" gradientTransform="matrix(0.9994 -0.0345 0.0345 0.9994 -120.7987 308.4807)">
			<stop  offset="0.0025" style="stop-color:#486BED"/>
			<stop  offset="0.1346" style="stop-color:#4766E5"/>
			<stop  offset="0.3434" style="stop-color:#4357CE"/>
			<stop  offset="0.6026" style="stop-color:#3D3FA9"/>
			<stop  offset="0.8996" style="stop-color:#341D76"/>
			<stop  offset="1" style="stop-color:#311163"/>
		</linearGradient>
		<path style="fill:url(#SVGID_1_);" d="M458.553,474.002c-0.64-0.674-1.376-1.34-2.173-1.989
			c-8.443-6.872-20.066-8.819-30.287-5.074c-0.965,0.354-1.878,0.743-2.703,1.172c-6.6,3.429-49.792,143.676-45.014,158.33
			c6.464,19.828,32.948,21.587,32.948,21.587s25.611,6.968,38.184-9.67C458.799,626.061,463.674,479.395,458.553,474.002z"/>
		
			<linearGradient id="SVGID_2_" gradientUnits="userSpaceOnUse" x1="1357.5293" y1="283.3196" x2="1262.8877" y2="256.8068" gradientTransform="matrix(-0.9994 0.0345 0.0345 0.9994 1498.1493 253.0076)">
			<stop  offset="0.0025" style="stop-color:#486BED"/>
			<stop  offset="0.1559" style="stop-color:#4662DF"/>
			<stop  offset="0.4478" style="stop-color:#3F49B9"/>
			<stop  offset="0.8444" style="stop-color:#35227D"/>
			<stop  offset="1" style="stop-color:#311163"/>
		</linearGradient>
		<path style="fill:url(#SVGID_2_);" d="M171.908,483.892c0.592-0.716,1.28-1.431,2.031-2.134c7.949-7.438,19.41-10.181,29.865-7.15
			c0.987,0.286,1.925,0.612,2.777,0.983c6.82,2.966,59.576,139.902,55.82,154.852c-5.082,20.226-31.381,23.806-31.381,23.806
			s-25.069,8.717-38.76-7.015C182.142,635.607,167.17,489.625,171.908,483.892z"/>
		<linearGradient id="SVGID_3_" gradientUnits="userSpaceOnUse" x1="191.9557" y1="195.4561" x2="432.1324" y2="489.0797">
			<stop  offset="0" style="stop-color:#FF543C"/>
			<stop  offset="0.1039" style="stop-color:#FF4B40"/>
			<stop  offset="0.2718" style="stop-color:#FF3349"/>
			<stop  offset="0.4817" style="stop-color:#FF0D59"/>
			<stop  offset="0.5433" style="stop-color:#FF005E"/>
			<stop  offset="0.6695" style="stop-color:#C7045F"/>
			<stop  offset="0.895" style="stop-color:#680A60"/>
			<stop  offset="0.9967" style="stop-color:#420C60"/>
		</linearGradient>
		<path style="fill:url(#SVGID_3_);" d="M300.803,144.546c-30.595,0-59.785-3.329-86.454-9.369
			c-48.294,107.179-82.9,261.941,12.655,407.752c19.887,30.347,54.232,48.063,90.493,46.812l0,0l0,0
			c36.261-1.251,69.303-21.292,87.051-52.937c83.92-149.628,41.494-299.217-12.832-402.669
			C363.855,140.832,333.113,144.546,300.803,144.546z"/>
		
			<linearGradient id="SVGID_4_" gradientUnits="userSpaceOnUse" x1="492.9232" y1="482.6553" x2="368.0502" y2="357.7823" gradientTransform="matrix(0.9994 -0.0345 -0.0345 -0.9994 -107.828 695.4744)">
			<stop  offset="0" style="stop-color:#FEE662"/>
			<stop  offset="0.1846" style="stop-color:#FED15D"/>
			<stop  offset="0.5658" style="stop-color:#FF9B50"/>
			<stop  offset="1" style="stop-color:#FF5740"/>
		</linearGradient>
		<path style="fill:url(#SVGID_4_);" d="M395.726,262.686c-1.819-52.742-44.802-94.066-96.003-92.299
			c-51.201,1.767-91.233,45.954-89.413,98.696c1.819,52.742,44.802,94.066,96.003,92.299
			C357.514,359.616,397.546,315.428,395.726,262.686z"/>
		
			<linearGradient id="SVGID_5_" gradientUnits="userSpaceOnUse" x1="1075.5074" y1="29.4777" x2="958.1507" y2="-89.86" gradientTransform="matrix(-0.9994 0.0345 0.0345 0.9994 1322.0361 259.0839)">
			<stop  offset="0" style="stop-color:#FEE662"/>
			<stop  offset="0.1846" style="stop-color:#FED15D"/>
			<stop  offset="0.5658" style="stop-color:#FF9B50"/>
			<stop  offset="1" style="stop-color:#FF5740"/>
		</linearGradient>
		<path style="fill:url(#SVGID_5_);" d="M365.437,324.14c32.841-35.188,31.519-89.796-2.954-121.969
			c-34.473-32.174-89.042-29.73-121.883,5.459c-32.841,35.188-31.519,89.796,2.954,121.97
			C278.027,361.772,332.596,359.328,365.437,324.14z"/>
		
			<linearGradient id="SVGID_6_" gradientUnits="userSpaceOnUse" x1="1019.2781" y1="244.9359" x2="1166.8777" y2="244.9359" gradientTransform="matrix(-0.7311 -0.6823 -0.6823 0.7311 1269.1891 830.5579)">
			<stop  offset="0" style="stop-color:#300D5D"/>
			<stop  offset="0.9975" style="stop-color:#CB1B5E"/>
		</linearGradient>
		<path style="fill:url(#SVGID_6_);" d="M305.466,336.826c41.15-1.42,73.382-35.251,71.991-75.565
			c-1.391-40.314-35.877-71.843-77.028-70.423c-41.15,1.42-73.382,35.251-71.991,75.565
			C229.829,306.716,264.316,338.246,305.466,336.826z"/>
		<linearGradient id="SVGID_7_" gradientUnits="userSpaceOnUse" x1="440.1435" y1="120.2348" x2="227.883" y2="60.7724">
			<stop  offset="0" style="stop-color:#311163"/>
			<stop  offset="0.1556" style="stop-color:#35227D"/>
			<stop  offset="0.5522" style="stop-color:#3F49B9"/>
			<stop  offset="0.8441" style="stop-color:#4662DF"/>
			<stop  offset="0.9975" style="stop-color:#486BED"/>
		</linearGradient>
		<path style="fill:url(#SVGID_7_);" d="M300.803,146.508c32.31,0,63.052-3.714,90.914-10.411C348.215,53.256,297.082,0,297.082,0
			s-45.446,54.388-82.733,137.139C241.018,143.178,270.208,146.508,300.803,146.508z"/>
		
			<linearGradient id="SVGID_8_" gradientUnits="userSpaceOnUse" x1="392.2615" y1="268.7426" x2="467.4879" y2="268.7426" gradientTransform="matrix(0.9994 -0.0345 0.0345 0.9994 -120.7987 308.4807)">
			<stop  offset="0.0025" style="stop-color:#486BED"/>
			<stop  offset="0.1475" style="stop-color:#4359D1"/>
			<stop  offset="0.4233" style="stop-color:#3B3AA2"/>
			<stop  offset="0.6674" style="stop-color:#362480"/>
			<stop  offset="0.8679" style="stop-color:#32166B"/>
			<stop  offset="1" style="stop-color:#311163"/>
		</linearGradient>
		<path style="fill:url(#SVGID_8_);" d="M332.921,474.707c-0.762-0.533-1.615-1.039-2.526-1.516
			c-9.642-5.053-21.42-4.647-30.691,1.059c-0.876,0.539-1.692,1.103-2.415,1.687c-5.785,4.674-20.183,150.714-12.583,164.124
			c10.283,18.143,36.586,14.593,36.586,14.593s26.485,1.729,35.493-17.08C363.444,623.672,339.014,478.972,332.921,474.707z"/>
		<g>
			<linearGradient id="SVGID_9_" gradientUnits="userSpaceOnUse" x1="52.0108" y1="425.8026" x2="111.7335" y2="485.5252">
				<stop  offset="0" style="stop-color:#FFFFFF"/>
				<stop  offset="0.1254" style="stop-color:#FAFBFD"/>
				<stop  offset="0.272" style="stop-color:#ECF1F8"/>
				<stop  offset="0.4293" style="stop-color:#D4DFEF"/>
				<stop  offset="0.594" style="stop-color:#B4C6E2"/>
				<stop  offset="0.7647" style="stop-color:#89A5D2"/>
				<stop  offset="0.9377" style="stop-color:#567FBE"/>
				<stop  offset="0.9975" style="stop-color:#4370B7"/>
			</linearGradient>
			<path style="fill:url(#SVGID_9_);" d="M120.494,382.2c0,0-10.048,29.224-16.21,37.316c-6.077,7.98-23.916,19.306-30.753,25.763
				c-0.061,0.057-0.11,0.112-0.17,0.169l-3.074-6.094c0,0-0.313,3.436-2.92,3.275c-4.262-0.262-11.69-4.171-17.962-5.365
				c-2.527-0.481-8.677,1.295-11.023,2.353c-3.828,1.724-3.039,17.521-3.039,17.521c-12.548,40.066,3.721,70.676,3.721,70.676
				l39.439-9.057c-4.338-24.965-1.344-45.225,3.46-55.09c10.395-6.216,28.456-22.131,34.094-32.367
				c5.537-10.052,12.125-44.284,12.125-44.284L120.494,382.2z"/>
			<path style="fill:#161743;" d="M39.063,527.813l33.366,70.389l-33.735,65.739c0,0,18.511,15.159,35.847,9.163
				c0,0-2.379-9.039-20.136-16.024c0,0,40.353-47.345,42.399-58.293c1.984-10.622-21.409-47.841-21.409-47.841l44.008,30.634
				l9.242,82.485c0,0,24.997,9.039,37.804,0c0,0-10.893-6.135-27.838-10.169c0,0,2.527-47.256,0.137-77.124
				c-1.13-14.124-49.781-40.819-60.246-58.015C78.503,518.756,63.842,515.98,39.063,527.813z"/>
			<path style="fill:#B9BBBC;" d="M75.859,523.699c0,0-4.145-0.878-9.582,1.629l-1.587-4.515c0,0,5.583-2.181,9.814-1.139
				L75.859,523.699z"/>
			<g>
				<linearGradient id="SVGID_10_" gradientUnits="userSpaceOnUse" x1="38.3811" y1="421.5175" x2="73.7872" y2="421.5175">
					<stop  offset="0" style="stop-color:#FEE662"/>
					<stop  offset="1" style="stop-color:#FFBF3F"/>
				</linearGradient>
				<path style="fill:url(#SVGID_10_);" d="M69.64,411.263c-5.682-10.834-9.565-18.097-21.453-14.148
					c-8.923,2.966-11.952,10.796-8.279,20.716c2.673,7.256,5.814,9.823,8.277,11.454c2.389,1.569,3.924,2.941,4.391,5.845
					c0.042,1.552-0.257,3.647-0.997,6.615l4.403,0.825l8.963,4.441l5.233-4.072c0,0-3.423-7.938-2.145-12.89
					c0.734-0.58,2.168-0.033,4.334-2.152C72.365,427.896,76.956,425.212,69.64,411.263z"/>
				<linearGradient id="SVGID_11_" gradientUnits="userSpaceOnUse" x1="34.8553" y1="411.0815" x2="68.3684" y2="411.0815">
					<stop  offset="0.0025" style="stop-color:#212121"/>
					<stop  offset="0.5937" style="stop-color:#0F0F0F"/>
					<stop  offset="1" style="stop-color:#000000"/>
				</linearGradient>
				<path style="fill:url(#SVGID_11_);" d="M51.83,403.885c-0.442-0.353,0.882,5.619-2.044,7.788
					c-2.925,2.169-1.941,7.214-1.941,7.214s-2.249-3.738-4.223-0.56c-1.975,3.174,4.159,10.686,5.942,7.08l0.099,4.835
					c0,0-1.581-0.117-2.863-1.379c-1.285-1.26-14.55-14.983-11.488-22.27c1.974-4.698,5.452-4.873,5.452-4.873
					s3.876-6.126,10.038-9.015c6.163-2.889,13.991,2.924,15.977,5.926c1.987,2.999,1.547,9.737,1.547,9.737
					s-1.125-3.004-4.447-3.193C60.552,404.988,54.684,406.167,51.83,403.885z"/>
			</g>
			<path style="fill:#161743;" d="M63.357,445.655l3.191,6.894c0,0-5.683,36.82-1.51,49.781l5.235,5.113l2.52-7.148
				c-4.496-8.441-3.672-48.324-3.672-48.324l2.198-5.963l-3.374-2.686L63.357,445.655z"/>
			<linearGradient id="SVGID_12_" gradientUnits="userSpaceOnUse" x1="49.4048" y1="442.6291" x2="75.5566" y2="442.6291">
				<stop  offset="0" style="stop-color:#FFFFFF"/>
				<stop  offset="0.1059" style="stop-color:#F7F9FC"/>
				<stop  offset="0.273" style="stop-color:#E0E7F3"/>
				<stop  offset="0.4806" style="stop-color:#BBCBE5"/>
				<stop  offset="0.7206" style="stop-color:#87A4D1"/>
				<stop  offset="0.9848" style="stop-color:#4673B8"/>
				<stop  offset="0.9975" style="stop-color:#4370B7"/>
			</linearGradient>
			<polygon style="fill:url(#SVGID_12_);" points="70.287,439.354 67.376,441.645 52.37,433.521 49.405,437.264 58.645,451.737 
				67.859,444.642 72.761,450.346 75.557,444.289 			"/>
			<linearGradient id="SVGID_13_" gradientUnits="userSpaceOnUse" x1="15.0227" y1="453.4577" x2="54.016" y2="492.451">
				<stop  offset="0" style="stop-color:#FFFFFF"/>
				<stop  offset="0.1165" style="stop-color:#F1F5FA"/>
				<stop  offset="0.3351" style="stop-color:#CDD9EC"/>
				<stop  offset="0.6324" style="stop-color:#93ADD6"/>
				<stop  offset="0.9937" style="stop-color:#4471B7"/>
				<stop  offset="0.9975" style="stop-color:#4370B7"/>
			</linearGradient>
			<path style="fill:url(#SVGID_13_);" d="M53.914,485.125l-1.232,8.66c0,0-48.736,0.141-52.341-12.844
				c-3.933-14.17,27.139-43.231,41.741-41.454c3.237,0.388,9.237,5.917,9.269,9.178c0.089,9.355-31.479,27.683-31.479,27.683
				L53.914,485.125z"/>
			<linearGradient id="SVGID_14_" gradientUnits="userSpaceOnUse" x1="52.6743" y1="493.0844" x2="65.3164" y2="493.0844">
				<stop  offset="0" style="stop-color:#FEE662"/>
				<stop  offset="1" style="stop-color:#FFBF3F"/>
			</linearGradient>
			<path style="fill:url(#SVGID_14_);" d="M53.757,486.224c0,0,10.77,1.064,11.476,3.182s-3.211,10.145-6.247,10.523
				c-1.493,0.185-1.734-1.271-4.276-4.237c-2.542-2.966-1.984-2.22-1.984-2.22L53.757,486.224z"/>
			<linearGradient id="SVGID_15_" gradientUnits="userSpaceOnUse" x1="120.3876" y1="376.4707" x2="137.9411" y2="376.4707">
				<stop  offset="0" style="stop-color:#FEE662"/>
				<stop  offset="1" style="stop-color:#FFBF3F"/>
			</linearGradient>
			<path style="fill:url(#SVGID_15_);" d="M132.158,364.926c-0.952-0.511-3.169,2.948-4.934,6.307
				c-1.01,0.548-1.994,1.153-2.741,1.764c-2.496,2.043-2.343,8.32-2.343,8.32l0.001-0.001c-1.046,2.164-1.754,3.925-1.754,3.925
				l5.438,2.825c0,0,10.381-8.616,10.311-10.593c-0.003-0.098-0.027-0.196-0.053-0.295c0.359-0.465,0.716-0.966,1.065-1.517
				C140.168,370.889,133.7,365.754,132.158,364.926z"/>
		</g>
		<path d="M71.736,314.426c-3.283,0.339-5.812,3.102-5.839,6.412l-0.078,6.594c-0.052,3.31,2.398,6.125,5.682,6.543l4.848,0.625
			c0.808,2.945,1.955,5.76,3.44,8.419l-3.127,3.858c-2.086,2.581-1.929,6.282,0.391,8.654l4.613,4.717
			c2.32,2.372,6.021,2.633,8.653,0.599l3.884-2.997c2.736,1.616,5.629,2.894,8.653,3.78l0.522,5.004
			c0.339,3.284,3.102,5.812,6.412,5.839l6.594,0.078c3.31,0.052,6.126-2.398,6.543-5.683l0.599-4.743
			c3.283-0.808,6.412-2.033,9.384-3.649l3.649,2.945c2.58,2.085,6.281,1.929,8.653-0.391l4.718-4.613
			c2.372-2.32,2.632-6.021,0.599-8.654l-2.789-3.622c1.72-2.867,3.05-5.917,3.962-9.123l4.326-0.443
			c3.285-0.34,5.812-3.103,5.839-6.412l0.078-6.595c0.052-3.31-2.398-6.126-5.681-6.542l-4.223-0.547
			c-0.808-3.18-2.007-6.257-3.571-9.123l2.633-3.232c2.085-2.581,1.928-6.282-0.392-8.653l-4.613-4.718
			c-2.319-2.372-6.02-2.633-8.653-0.599l-3.154,2.423c-2.972-1.798-6.151-3.179-9.488-4.117l-0.416-4.093
			c-0.34-3.284-3.103-5.812-6.412-5.838l-6.595-0.079c-3.31-0.052-6.126,2.398-6.542,5.682l-0.522,4.066
			c-3.44,0.886-6.75,2.241-9.826,4.014l-3.258-2.659c-2.58-2.086-6.282-1.929-8.653,0.391l-4.744,4.639
			c-2.371,2.32-2.632,6.021-0.599,8.654l2.79,3.597c-1.616,2.867-2.894,5.917-3.728,9.123L71.736,314.426z M114.3,306.971
			c9.461,0.105,17.046,7.899,16.942,17.36c-0.105,9.461-7.899,17.046-17.36,16.942c-9.461-0.105-17.046-7.897-16.942-17.36
			C97.045,314.452,104.838,306.867,114.3,306.971L114.3,306.971z M114.3,306.971"/>
		<linearGradient id="SVGID_16_" gradientUnits="userSpaceOnUse" x1="204.9998" y1="81.2108" x2="297.8657" y2="81.2108">
			<stop  offset="0" style="stop-color:#FEE662"/>
			<stop  offset="0.1846" style="stop-color:#FED15D"/>
			<stop  offset="0.5658" style="stop-color:#FF9B50"/>
			<stop  offset="1" style="stop-color:#FF5740"/>
		</linearGradient>
		<path style="fill:url(#SVGID_16_);" d="M231.859,99.553l0.503-0.825c0.761-1.587,1.161-3.24,1.316-4.912l39.479-13.884
			c1.159,1.209,2.514,2.245,4.101,3.006l0.906,0.334c6.994,2.782,15.013-0.214,18.313-7.093c0.964-2.01,1.38-4.128,1.39-6.203
			l-12.797,4.482c-0.665,0.247-1.371,0.302-2.009,0.229c-1.819-0.166-3.474-1.327-4.106-3.162c-0.437-1.256-0.332-2.558,0.195-3.657
			c0.255-0.531,0.599-0.985,1.012-1.36c0.492-0.47,1.047-0.877,1.726-1.098l12.775-4.493c-1.3-1.636-2.946-3.025-4.934-3.979
			c-6.9-3.31-15.04-0.605-18.743,5.921l-0.513,0.847c-0.761,1.587-1.139,3.251-1.306,4.89l-39.473,13.887
			c-1.153-1.179-2.492-2.235-4.079-2.996l-0.927-0.345c-6.978-2.774-15.022,0.217-18.329,7.112c-0.953,1.988-1.37,4.107-1.357,6.191
			l12.772-4.487c0.668-0.253,1.363-0.286,2.022-0.256c1.809,0.188,3.47,1.351,4.093,3.189c0.44,1.25,0.335,2.552-0.203,3.674
			c-0.244,0.509-0.591,0.969-1.012,1.36c-0.476,0.451-1.039,0.861-1.718,1.082l-12.783,4.509c1.308,1.62,2.956,3.004,4.972,3.97
			C220.017,108.783,228.146,106.1,231.859,99.553L231.859,99.553z M231.859,99.553"/>
		<g>
			<linearGradient id="SVGID_17_" gradientUnits="userSpaceOnUse" x1="242.9395" y1="204.4414" x2="599.621" y2="561.1229">
				<stop  offset="0" style="stop-color:#FEE662"/>
				<stop  offset="1" style="stop-color:#FFBF3F"/>
			</linearGradient>
			<path style="fill:url(#SVGID_17_);" d="M448.798,50.224v38.551h-90.192v10.523h90.192v80.42h-74.311v-67.644h-15.88v67.644
				v10.523v79.67v10.521v79.671v10.521v79.671v10.521v79.671v10.521v79.671v10.521v54.868h15.88v-54.868h74.311v54.868h15.88
				v-54.868v-10.521v-79.671v-10.521v-79.671v-10.521v-79.671v-10.521v-79.671V269.91v-79.67v-10.523v-80.42V88.774V50.224H448.798z
				 M448.798,630.677h-74.311v-79.671h74.311V630.677z M448.798,540.485h-74.311v-79.671h74.311V540.485z M448.798,450.293h-74.311
				v-79.671h74.311V450.293z M448.798,360.102h-74.311v-79.671h74.311V360.102z M448.798,269.91h-74.311v-79.67h74.311V269.91z"/>
			<g>
				<g>
					<linearGradient id="SVGID_18_" gradientUnits="userSpaceOnUse" x1="459.5876" y1="381.8909" x2="473.3211" y2="381.8909">
						<stop  offset="0" style="stop-color:#FEE662"/>
						<stop  offset="1" style="stop-color:#FFBF3F"/>
					</linearGradient>
					<path style="fill:url(#SVGID_18_);" d="M468.296,387.765l5.025-5.888l-0.128-4.573c0,0-0.986,0.484-1.022,3.224l-2.143,1.777
						l-0.057-6.029l-1.623-5.439c0,0-0.958-0.7-1.121,0.432c-0.163,1.13,0.777,4.384,0.777,4.384l-0.176,2.708l-1.88-3.063
						l-4.468-2.697c0,0-0.81,1.313,2.061,2.816c1.251,0.658,1.383,3.102,1.383,3.102l-2.552-1.596c0,0-2.391-0.801-2.731-0.174
						c-0.295,0.544,0.692,1.006,0.692,1.006s-0.687-0.005-0.63,0.46c0.075,0.619,1.37,1.251,1.37,1.251l0.782,2.515
						c0,0-1.141,5.749,2.076,7.264c0.942,0.449,1.467,3.915,1.467,3.915L468.296,387.765z"/>
					<linearGradient id="SVGID_19_" gradientUnits="userSpaceOnUse" x1="462.3313" y1="433.0205" x2="511.5463" y2="433.0205">
						<stop  offset="0" style="stop-color:#FFFFFF"/>
						<stop  offset="0.1059" style="stop-color:#F7F9FC"/>
						<stop  offset="0.273" style="stop-color:#E0E7F3"/>
						<stop  offset="0.4806" style="stop-color:#BBCBE5"/>
						<stop  offset="0.7206" style="stop-color:#87A4D1"/>
						<stop  offset="0.9848" style="stop-color:#4673B8"/>
						<stop  offset="0.9975" style="stop-color:#4370B7"/>
					</linearGradient>
					<path style="fill:url(#SVGID_19_);" d="M505.696,456.981c-5.573-7.548-23.503-31.38-23.503-31.38l-11.461-38.864l-8.4,3.369
						l6.218,44.983c0,0,23.446,35.614,32.481,43.218C505.456,482.026,519.328,475.442,505.696,456.981z"/>
				</g>
				<path style="fill:#F2C977;" d="M546.989,417.965c0.192,9.62-8.169,13.608-10.464,17.424c-2.297,3.798,0.872,9.697,0.872,9.697
					s-14.775,4.708-14.026,1.513c0.141-0.599,0.225-5.221-2.638-9.028c-1.299-1.735-7.625-3.567-7.802-5.443
					c-1.123-12.21,7.385-26.978,13.417-29.27c0.868-0.333,1.77-0.566,2.653-0.692C538.679,400.829,546.809,408.368,546.989,417.965z
					"/>
				<linearGradient id="SVGID_20_" gradientUnits="userSpaceOnUse" x1="496.5231" y1="488.7953" x2="559.3828" y2="488.7953">
					<stop  offset="0" style="stop-color:#FFFFFF"/>
					<stop  offset="0.1059" style="stop-color:#F7F9FC"/>
					<stop  offset="0.273" style="stop-color:#E0E7F3"/>
					<stop  offset="0.4806" style="stop-color:#BBCBE5"/>
					<stop  offset="0.7206" style="stop-color:#87A4D1"/>
					<stop  offset="0.9848" style="stop-color:#4673B8"/>
					<stop  offset="0.9975" style="stop-color:#4370B7"/>
				</linearGradient>
				<path style="fill:url(#SVGID_20_);" d="M498.157,474.367c0,0,0.233,31.389-1.634,57.074l39.694-1.761
					c0,0,1.145-22.121,9.607-43.077c7.007-17.342,22.522-30.321,6.667-37.087c-16.768-7.159-40.432-1.2-48.861,2.255
					C497.6,454.241,498.157,474.367,498.157,474.367z"/>
				<linearGradient id="SVGID_21_" gradientUnits="userSpaceOnUse" x1="511.6227" y1="418.6327" x2="538.0075" y2="418.6327">
					<stop  offset="0" style="stop-color:#FEE662"/>
					<stop  offset="1" style="stop-color:#FFBF3F"/>
				</linearGradient>
				<path style="fill:url(#SVGID_21_);" d="M534.086,418.127c4.646-0.581,5.386,3.878,1.019,7.027
					c-6.319,4.562-5.714-0.403-5.714-0.403c-4.91,7.899-8.588,10.523-14.555,9.442c-8.88-4.201,2.517-27.921,11.512-31.336
					c8.772-0.328,10.431,4.432,10.431,4.432C532.324,411.213,534.086,418.127,534.086,418.127z"/>
				<path style="fill:#161743;" d="M526.643,449.283l-3.067-4.653l-4.987,4.531l1.517,3.88c-9.328,15.345-18.181,45.53-18.181,45.53
					l4.717,16.44l5.093-14.649c-2.405-13.597,10.959-47.181,10.959-47.181L526.643,449.283z"/>
				<path style="fill:#FFFFFF;" d="M516.882,448.922l-1.689,4.653l7.02-5.981c0,0,3.012,4.437,4.307,4.723
					c1.295,0.28,13.284-5.828,13.284-5.828l-2.094-5.501l-14.134,3.642l-0.572-1.079L516.882,448.922z"/>
				<path style="fill:#161743;" d="M536.623,524.996c0,0,2.479,67.965,9.523,90.123c5.155,16.215,42.658,78.145,42.658,78.145
					s-15.524,14.205-23.935,12.569c0,0-5.435-2.609,14.022-15.894c0,0-44.796-57.486-50.174-71.634
					c-8.464-22.273-14.561-57.114-17.904-56.867c-3.343,0.249-6.463,55.183-5.122,63.262c5.058,30.526,8.898,63.266,10.32,67.853
					c0,0-17.195,11.914-27.209,7.2c0,0,5.468-7.568,18.886-8.191c0,0-16.708-58.305-19.21-71.491
					c-4.708-24.787,8.922-77.447,8.486-95.474C496.966,524.598,509.235,520.337,536.623,524.996z"/>
				<path style="fill:#B9BBBC;" d="M502.076,530.856c0,0,2.581-2.715,9.534-0.709l-0.35-4.701c0,0-4.193-0.956-9.589-0.079
					L502.076,530.856z"/>
				<linearGradient id="SVGID_22_" gradientUnits="userSpaceOnUse" x1="519.3474" y1="416.7907" x2="552.7627" y2="416.7907">
					<stop  offset="0.0025" style="stop-color:#212121"/>
					<stop  offset="0.5937" style="stop-color:#0F0F0F"/>
					<stop  offset="1" style="stop-color:#000000"/>
				</linearGradient>
				<path style="fill:url(#SVGID_22_);" d="M534.148,397.98c-1.013,0.001-1.956,0.145-2.841,0.372
					c-2.782-0.884-5.157-1.347-6.359-1.217c-2.526,0.269-3.961-0.94-3.961-0.94c-1.599,0.998-3.554,8.286,2.361,10.845
					c2.642,1.146,6.006,1.821,8.923,2.219c1.75,3.664-1.529,7.994-1.529,7.994s4.527,1.823,2.722,8.554
					c-1.801,6.731-1.2,10.054,3.693,11.582c0,0,11.567-6.905,14.312-16.704C554.974,408.168,552.045,397.96,534.148,397.98z"/>
				<g>
					<linearGradient id="SVGID_23_" gradientUnits="userSpaceOnUse" x1="447.5721" y1="509.0282" x2="469.4767" y2="509.0282">
						<stop  offset="0" style="stop-color:#FEE662"/>
						<stop  offset="1" style="stop-color:#FFBF3F"/>
					</linearGradient>
					<path style="fill:url(#SVGID_23_);" d="M464.595,508.755l-5.036-5.879l-4.538-0.581c0,0,0.326,1.05,3.028,1.508l1.42,2.391
						l-5.963-0.876l-5.626,0.755c0,0-0.839,0.839,0.253,1.18c1.092,0.333,4.455-0.09,4.455-0.09l2.645,0.592l-3.316,1.385
						l-3.358,3.994c0,0,1.171,1.004,3.103-1.599c0.843-1.134,3.279-0.885,3.279-0.885l-1.975,2.272c0,0-1.158,2.24-0.595,2.669
						c0.491,0.379,1.101-0.526,1.101-0.526s-0.11,0.678,0.359,0.696c0.623,0.022,1.449-1.158,1.449-1.158l2.603-0.381
						c0,0,5.505,2.017,7.5-0.927c0.59-0.863,4.096-0.841,4.096-0.841L464.595,508.755z"/>
					<linearGradient id="SVGID_24_" gradientUnits="userSpaceOnUse" x1="463.9586" y1="482.7191" x2="560.705" y2="482.7191">
						<stop  offset="0" style="stop-color:#FFFFFF"/>
						<stop  offset="0.1059" style="stop-color:#F7F9FC"/>
						<stop  offset="0.273" style="stop-color:#E0E7F3"/>
						<stop  offset="0.4806" style="stop-color:#BBCBE5"/>
						<stop  offset="0.7206" style="stop-color:#87A4D1"/>
						<stop  offset="0.9848" style="stop-color:#4673B8"/>
						<stop  offset="0.9975" style="stop-color:#4370B7"/>
					</linearGradient>
					<path style="fill:url(#SVGID_24_);" d="M544.294,453.574c-8.081,4.765-35.808,31.375-35.808,31.375l-44.528,21.238l2.026,8.823
						l48.573-14.159c0,0,30.387-20.938,40.025-27.76C563.742,466.61,564.36,441.746,544.294,453.574z"/>
				</g>
			</g>
			<g>
				<linearGradient id="SVGID_25_" gradientUnits="userSpaceOnUse" x1="250.9458" y1="88.7743" x2="273.9399" y2="88.7743">
					<stop  offset="0" style="stop-color:#FEE662"/>
					<stop  offset="1" style="stop-color:#FFBF3F"/>
				</linearGradient>
				<path style="fill:url(#SVGID_25_);" d="M273.94,94.413l-2.686-9.728c0,0-7.216-4.339-10.51-8.013c0,0-0.577,2.97,2.561,6.185
					l-9.237-4.922c0,0-5.045-0.846-2.308,2.127c2.731,2.97,2.603,6.143,3.133,8.706c0.529,2.564,10.519,6.788,13.198,11.028
					C270.769,104.036,273.94,94.413,273.94,94.413z"/>
				<linearGradient id="SVGID_26_" gradientUnits="userSpaceOnUse" x1="372.6071" y1="64.8624" x2="412.5889" y2="64.8624">
					<stop  offset="0" style="stop-color:#FEE662"/>
					<stop  offset="1" style="stop-color:#FFBF3F"/>
				</linearGradient>
				<path style="fill:url(#SVGID_26_);" d="M392.691,90.635c0.7-2.311,0.242-11.011,5.131-13.891
					c4.886-2.881,12.798-2.168,14.634-17.268c1.834-15.101-15.689-19.375-22.284-20.588c-6.038-1.111-18.369,16.927-17.523,21.249
					c1.299,6.64,6.674,12.455,6.674,12.455l-3.739,18.294L392.691,90.635z"/>
				<linearGradient id="SVGID_27_" gradientUnits="userSpaceOnUse" x1="380.8828" y1="54.4088" x2="418.5135" y2="54.4088">
					<stop  offset="0.0025" style="stop-color:#212121"/>
					<stop  offset="0.5937" style="stop-color:#0F0F0F"/>
					<stop  offset="1" style="stop-color:#000000"/>
				</linearGradient>
				<path style="fill:url(#SVGID_27_);" d="M383.359,52.504c0,0,3.999-0.799,4.322,1.057c0.322,1.857-2.55,3.473-6.355,6.061
					c0,0-1.878,8.955,2.096,12.08c3.977,3.125,11.741,7.914,11.741,7.914s24.061-8.719,23.334-28.295
					c-0.729-19.576-21.892-23.549-33.056-21.717c0,0-2.992,3.216-3.069,6.342C382.255,40.672,384.867,46.642,383.359,52.504z"/>
				<linearGradient id="SVGID_28_" gradientUnits="userSpaceOnUse" x1="438.3412" y1="88.2287" x2="449.1241" y2="88.2287">
					<stop  offset="0" style="stop-color:#FEE662"/>
					<stop  offset="1" style="stop-color:#FFBF3F"/>
				</linearGradient>
				<path style="fill:url(#SVGID_28_);" d="M439.259,91.705c0,0-0.046-0.139-0.117-0.377c-0.405-1.366-1.643-6.002,0.117-6.483
					c2.065-0.564,9.539-1.503,9.539-1.503l0.326,7.543l-4.51,2.228L439.259,91.705z"/>
				<path style="fill:#161743;" d="M392.517,161.485c0,0,28.154,8.415,27.26,66.294c-0.17,10.966,0.081,26.318,0.081,26.318
					l3.382,16.109h-13.011l-0.973-14.656c0,0-3.913-15.968-5.322-41.053c-0.909-16.165-5.058-13.617-10.99-12.308
					c-4.752,1.048-11.36-0.375-13.069-0.375c-9.019,0,11.939,141.942,11.939,141.942l-3.426,16.347h-15.74l5.073-14.656
					c0,0-34.399-106.882-22.469-177.981C355.253,167.465,384.215,157.455,392.517,161.485z"/>
				<linearGradient id="SVGID_29_" gradientUnits="userSpaceOnUse" x1="268.0914" y1="119.7968" x2="445.3654" y2="119.7968">
					<stop  offset="0" style="stop-color:#FFFFFF"/>
					<stop  offset="0.1059" style="stop-color:#F7F9FC"/>
					<stop  offset="0.273" style="stop-color:#E0E7F3"/>
					<stop  offset="0.4806" style="stop-color:#BBCBE5"/>
					<stop  offset="0.7206" style="stop-color:#87A4D1"/>
					<stop  offset="0.9848" style="stop-color:#4673B8"/>
					<stop  offset="0.9975" style="stop-color:#4370B7"/>
				</linearGradient>
				<path style="fill:url(#SVGID_29_);" d="M439.308,88.774l-17.9,25.142c0,0-5.93-22.427-15.878-27.018
					c-5.833-2.692-22.927,1.396-27.483-8.072c-0.177-0.367-0.631-0.586-1.302-0.684l0.06-0.062c0,0-0.125,0.018-0.386,0.025
					c-0.264-0.022-0.555-0.028-0.87-0.021c-2.206-0.139-7.466-1.021-16.942-5.546c-10.948-5.228-52.472,41.338-52.472,41.338
					l-33.252-23.292l-4.791,9.214c0,0,30.147,31.814,41.046,31.214c7.694-0.424,26.904-14.918,37.538-23.406
					c1.474,17.426,4.173,42.248,8.578,59.86l37.924-5.851c0,0-2.204-28.427,6.934-39.538c0,0,10.737,11.366,20.549,8.924
					c11.421-2.843,24.706-38.413,24.706-38.413L439.308,88.774z"/>
				<path style="fill:#EBEBEB;" d="M373.142,78.998l5.734-4.222l15.352,7.05l2.733,3.894c0,0-9.515,6.314-23.818-6.439V78.998z"/>
				<polygon style="fill:#161743;" points="353.923,177.225 353.923,161.702 392.598,156.717 395.289,162.745 				"/>
			</g>
		</g>
	</g>
</g>
<g id="Layer_1">
</g>
</svg>
